<svg width="276" height="120" viewBox="0 0 276 120" fill="none" xmlns="http://www.w3.org/2000/svg">
<g filter="url(#filter0_d_0_1)">
<path d="M207.172 0.672363C207.468 0.672365 207.764 0.672365 208.163 0.735132C215.485 1.99295 222.705 3.18502 229.924 4.38395C236.323 5.44665 242.723 6.50379 249.118 7.58915C252.622 8.18398 256.121 8.81936 259.614 9.47414C260.004 9.54717 260.446 9.78664 260.694 10.0881C261.38 10.9231 262.016 11.8065 262.601 12.7165C263.75 14.5031 265.26 16.0323 266.029 18.0958C267.367 21.6885 268.87 25.2199 270.309 28.7753C272.261 33.6003 274.218 38.4237 276.172 43.2478C276.172 43.6564 276.172 44.065 276.113 44.5319C275.273 45.6099 274.47 46.6133 273.717 47.6524C271.018 51.3752 268.345 55.1168 265.638 58.8339C265.177 59.4664 264.521 59.7375 263.702 59.4937C263.056 59.3016 262.391 59.1737 261.604 58.9861C261.824 59.4905 261.93 59.8533 262.124 60.1604C263.971 63.0808 265.826 65.9955 267.691 68.9041C268.756 70.5647 269.8 72.2417 270.934 73.8546C271.896 75.2235 272.263 76.6589 272.207 78.3462C272.092 81.7609 272.178 85.1822 272.164 88.6007C272.163 88.9303 272.073 89.2661 271.983 89.5875C271.743 90.4449 270.921 90.633 270.279 91.027C267.579 92.6848 264.881 94.3452 262.18 96.0009C258.797 98.0745 255.42 100.158 252.025 102.212C249.435 103.779 246.819 105.305 244.217 106.854C242.224 108.04 240.172 109.14 238.271 110.459C237.141 111.242 236.104 111.602 234.773 111.21C233.099 110.716 231.401 110.304 229.715 109.851C229.108 109.688 228.474 109.579 227.906 109.326C224.428 107.772 220.953 106.21 217.501 104.599C214.182 103.05 210.96 101.271 207.565 99.9182C205.669 99.1629 205.102 98.103 205.215 96.2321C205.296 94.8829 205.095 93.5168 205.014 92.0528C203.077 94.2248 201.239 96.2917 199.394 98.3528C198.594 99.246 197.881 100.253 196.954 100.988C194.829 102.675 192.585 104.212 190.412 105.838C187.959 107.674 185.534 109.545 183.09 111.393C182.103 112.139 181.473 112.166 180.411 111.509C179.731 111.088 179.089 110.602 178.398 110.2C175.275 108.387 172.138 106.597 169.01 104.79C167.521 103.93 166.036 103.061 164.561 102.177C163.089 101.295 161.632 100.39 160.13 99.4701C160.052 99.4576 160.012 99.4694 159.972 99.4812C159.996 99.5368 160.02 99.5923 160.042 99.7154C160.269 100.641 160.557 101.488 160.715 102.36C160.901 103.388 160.966 104.422 159.939 105.154C159.669 105.346 159.498 105.673 159.274 105.932C158.257 107.107 157.284 108.212 155.413 107.839C151.53 107.065 147.577 106.607 143.735 105.675C140.545 104.902 137.466 103.663 134.353 102.584C130.188 101.14 126.039 99.6514 121.897 98.1867C121.685 99.1411 121.522 100.037 121.283 100.913C121.05 101.771 120.604 102.441 119.664 102.746C118.686 103.064 117.755 103.525 116.801 103.915C113.621 105.211 110.432 106.484 107.263 107.806C105.124 108.698 103.026 109.686 100.886 110.576C99.9455 110.967 98.9672 111.353 97.9705 111.5C96.9018 111.658 95.7885 111.582 94.6993 111.522C86.4384 111.071 78.1781 110.606 69.9201 110.105C69.5405 110.082 69.078 109.743 68.8358 109.417C67.4236 107.513 66.113 105.534 64.6693 103.655C63.969 102.744 64.0031 101.885 64.3818 100.933C65.3025 98.6195 66.2335 96.3098 67.1554 93.9963C67.2189 93.8368 67.2408 93.6607 67.2992 93.4222C66.9951 93.6207 66.792 93.7788 66.5674 93.8958C64.3079 95.0735 62.0379 96.2312 59.7844 97.4202C55.0481 99.9193 50.3273 102.448 45.5859 104.937C42.4656 106.576 39.3174 108.161 36.19 109.786C35.7176 110.031 35.3113 110.404 34.8372 110.646C33.9543 111.095 33.1229 111.632 32.034 111.587C28.474 111.44 24.9104 111.381 21.3494 111.256C15.6162 111.054 9.88394 110.825 4.08648 110.605C3.39528 108.95 2.64807 107.126 1.87247 105.314C1.32578 104.037 0.740524 102.777 0.172485 101.509C0.172486 101.213 0.172486 100.918 0.237004 100.542C0.431908 100.083 0.57441 99.7081 0.690856 99.325C2.34775 93.8743 3.99972 88.4222 5.65578 82.9712C7.09641 78.2294 8.71588 73.5336 9.94619 68.7379C12.3603 59.3281 14.5549 49.8621 16.856 40.4231C16.9841 39.8978 16.8211 39.6102 16.3807 39.3826C15.2234 38.7842 14.0718 38.175 12.8212 37.5194C12.8221 37.5086 12.8271 37.3104 12.8566 37.1159C13.3204 34.0531 13.7736 30.9885 14.2564 27.9286C15.3114 21.2421 16.3884 14.559 17.4324 7.87074C17.5126 7.35652 17.7199 7.12532 18.2088 7.03995C19.4526 6.82279 20.6917 6.5788 21.9334 6.34933C27.8318 5.25928 33.7307 4.17237 39.6287 3.08055C43.2399 2.41205 46.8506 1.74068 50.4598 1.0613C51.2477 0.91301 51.9438 0.860328 52.5325 1.61555C53.7954 3.23547 55.1313 4.79832 56.4284 6.39178C57.3811 7.56208 58.3061 8.75502 59.2679 9.91758C60.3238 11.1937 61.4293 12.4292 62.4745 13.7138C64.0024 15.5915 65.4907 17.5014 67.0053 19.3901C69.0406 21.9281 71.1108 24.4386 73.1181 26.9985C75.1579 29.5999 77.1329 32.252 79.1487 34.8723C80.6263 36.7928 82.1294 38.6937 83.6108 40.6113C84.5056 41.7695 84.4733 42.3604 83.453 43.4063C81.5517 45.3552 79.6371 47.2912 77.7316 49.236C76.8401 50.1459 75.957 51.064 75.0169 52.0332C76.7547 53.5542 78.346 54.9886 79.9884 56.362C80.5765 56.8538 81.0409 57.3235 80.9201 58.1524C80.897 58.3107 80.9541 58.4806 81.0033 58.8826C82.0778 56.1441 83.0515 53.6423 84.0413 51.147C84.7054 49.4727 85.4072 47.8132 86.0656 46.1367C87.1427 43.3944 88.1817 40.6371 89.2668 37.898C90.7209 34.2272 92.2184 30.5737 93.6698 26.9019C95.0053 23.5231 96.2891 20.124 97.6233 16.7448C99.5361 11.9001 101.479 7.06741 103.398 2.2249C103.967 0.787198 104.056 0.720961 105.597 1.01088C105.682 1.0268 105.77 1.0265 105.853 1.04855C110.618 2.3196 115.383 3.59038 120.147 4.86663C120.878 5.06233 121.469 5.40811 121.95 6.06301C123.06 7.57631 124.258 9.02636 125.443 10.483C127.352 12.8277 129.288 15.1493 131.196 17.495C133.048 19.7729 134.815 22.1232 136.735 24.3414C138.601 26.4962 139.987 28.8179 140.594 31.6517C141.105 34.0415 141.915 36.3674 142.623 38.8242C144.158 37.3962 145.652 36.039 147.108 34.6424C148.936 32.8885 150.726 31.094 152.548 29.3331C153.595 28.3215 154.696 27.3663 155.73 26.3418C157.347 24.7386 158.901 23.071 160.531 21.4806C162.346 19.709 164.223 18.0011 166.059 16.2507C167.484 14.8925 168.881 13.5051 170.302 12.1429C171.331 11.1566 172.391 10.2026 173.416 9.21228C175.221 7.46841 176.933 5.61772 178.846 4.00323C179.512 3.44118 180.643 3.3705 181.585 3.20414C186.076 2.4106 190.574 1.65468 195.075 0.915178C195.31 0.876544 195.749 1.04545 195.826 1.22908C196.775 3.50539 197.675 5.80239 198.574 8.0588C199.322 7.94694 199.978 7.86412 200.626 7.74384C200.862 7.70017 201.152 7.62975 201.296 7.46529C203.267 5.21186 205.217 2.93982 207.172 0.672363ZM60.3943 44.9055C55.2408 45.4706 50.0873 46.0357 44.7055 46.6258C52.3421 38.8684 59.8139 31.2785 67.2702 23.7045C65.5526 21.4426 63.9177 19.2646 62.2565 17.107C58.7214 12.5153 55.1624 7.94203 51.643 3.33839C51.2292 2.79698 50.8432 2.69316 50.2002 2.81569C43.5755 4.07816 36.9444 5.307 30.3154 6.54748C26.5957 7.24356 22.8767 7.94389 19.1403 8.64552C17.6954 17.6558 16.258 26.6202 14.8045 35.6842C16.598 35.3291 18.2676 34.9985 19.9092 34.6735C19.1282 38.0899 18.3835 41.4673 17.5817 44.831C15.6875 52.7774 13.9005 60.7528 11.8118 68.6482C10.2448 74.5718 8.27728 80.3897 6.48483 86.2537C5.05313 90.9375 3.61368 95.619 2.18907 100.305C2.10021 100.597 1.99223 100.967 2.09357 101.221C3.0467 103.608 4.04348 105.977 5.03856 108.378C5.27786 108.263 5.43396 108.195 5.58406 108.116C9.74147 105.92 13.8971 103.72 18.0555 101.526C23.3017 98.7579 28.5473 95.9883 33.7984 93.229C40.9563 89.4677 48.092 85.6623 55.3016 82.0025C56.8132 81.2352 57.3886 80.2739 57.641 78.6744C59.1651 69.0146 60.7928 59.371 62.3849 49.7219C62.6624 48.0398 62.9352 46.3569 63.2227 44.5976C62.2521 44.6981 61.4002 44.7862 60.3943 44.9055ZM118.677 81.2571C119.515 85.7101 120.398 90.1556 121.158 94.6219C121.326 95.6079 121.745 96.0705 122.619 96.3725C126.821 97.8238 131.014 99.3035 135.208 100.779C137.663 101.642 140.117 102.509 142.565 103.392C143.124 103.593 143.507 103.49 143.89 103.013C144.588 102.141 145.332 101.303 146.101 100.491C146.43 100.145 146.431 99.8806 146.279 99.4408C145.607 97.4937 144.91 95.5483 144.384 93.5596C142.794 87.5494 141.597 81.436 139.583 75.5368C138.778 73.178 137.967 70.8162 137.294 68.4179C135.622 62.4585 134.066 56.4667 132.391 50.508C130.817 44.9072 129.137 39.3363 127.531 33.7445C125.908 28.0983 124.318 22.4431 122.717 16.791C121.967 14.1442 121.217 11.4974 120.48 8.84702C120.116 7.53672 119.459 6.55531 117.977 6.36239C117.468 6.29612 116.972 6.13235 116.47 6.00912C112.745 5.09337 108.892 4.65468 105.344 3.06658C105.309 3.05057 105.243 3.10065 105.179 3.12474C104.277 5.37664 103.367 7.63381 102.47 9.89629C99.0697 18.4741 95.6863 27.0588 92.2699 35.6303C90.6893 39.5962 88.9354 43.4965 87.459 47.4999C85.06 54.0052 82.8461 60.5791 79.8579 66.8526C79.6622 67.2633 79.4716 67.6982 79.3978 68.1417C78.3432 74.4809 77.2806 80.8191 76.2937 87.169C76.0922 88.4656 75.3664 89.1925 74.3164 89.7382C73.4513 90.1878 72.5408 90.5546 71.6975 91.0398C70.9988 91.4418 70.0444 91.8203 69.7643 92.4561C68.5404 95.2336 67.5295 98.1043 66.4219 100.934C66.1108 101.729 66.2012 102.424 66.6988 103.115C67.8549 104.721 68.9854 106.345 70.1433 107.986C70.5206 107.839 70.8949 107.701 71.2628 107.548C76.1852 105.5 81.1026 103.441 86.0298 101.404C89.3173 100.046 92.6092 98.6967 95.9209 97.3989C96.6203 97.1248 96.9375 96.747 97.0966 96.0234C98.4568 89.8355 99.8062 83.6441 101.282 77.4832C101.606 76.1309 101.362 75.1817 100.388 74.3138C99.9688 73.9399 99.878 73.5376 100.003 72.9458C100.971 68.3717 101.881 63.7855 102.816 59.2047C103.169 57.4757 103.542 55.7509 103.92 53.9613C107.093 55.1759 110.162 56.3846 113.259 57.5132C114.118 57.8261 114.517 58.1813 114.663 59.1881C115.081 62.0506 115.748 64.8759 116.269 67.7246C117.085 72.1831 117.862 76.6489 118.677 81.2571ZM175.905 32.4324C179.188 30.1906 182.472 27.9488 185.853 25.6401C185.144 30.2306 184.446 34.7477 183.736 39.341C184.029 39.3257 184.251 39.3243 184.471 39.3011C188.9 38.8346 193.327 38.3554 197.759 37.9109C198.277 37.8589 198.326 37.5905 198.397 37.1931C199.879 28.9796 201.371 20.7682 202.861 12.5562C203.053 11.4992 203.242 10.4416 203.445 9.31486C200.639 9.67141 197.972 10.0103 195.243 10.357C194.954 7.8432 194.673 5.40641 194.386 2.9081C193.884 2.94452 193.454 2.94081 193.037 3.01134C188.877 3.71481 184.714 4.40769 180.564 5.17038C180.018 5.27085 179.468 5.66811 179.044 6.06176C177.847 7.17313 176.723 8.36192 175.557 9.50617C172.606 12.4007 169.656 15.2966 166.689 18.175C163.764 21.0136 160.818 23.8313 157.881 26.6584C154.096 30.3016 150.31 33.9436 146.527 37.589C145.555 38.5258 144.576 39.4566 143.642 40.43C143.451 40.6289 143.309 41.0426 143.376 41.2963C144.751 46.5029 146.014 51.7496 148.816 56.4516C149.172 57.0478 149.507 57.2656 150.196 57.2603C162.787 57.1626 175.378 57.0924 187.969 57.0166C188.24 57.015 188.51 57.0164 188.781 57.0164C188.817 57.1002 188.853 57.184 188.889 57.2678C183.627 60.9613 178.365 64.6548 173.012 68.4122C172.609 67.8567 172.275 67.436 171.987 66.986C171.803 66.6985 171.69 66.3664 171.54 66.0565C170.904 64.7408 170.821 64.6868 169.36 64.8483C168.076 64.9904 166.789 65.1279 165.51 65.314C162.414 65.7648 159.319 66.234 156.228 66.7191C155.747 66.7944 155.252 66.8135 155.051 67.4987C154.405 69.6981 153.661 71.8684 152.979 74.0575C152.892 74.3379 152.889 74.6755 152.95 74.9649C153.092 75.6363 153.289 76.2965 153.477 76.9575C155.082 82.6066 156.734 88.2431 158.274 93.9102C158.758 95.6932 159.381 97.191 161.196 98.0401C161.897 98.3685 162.351 98.4535 162.949 97.9891C165.032 96.3705 167.107 94.7405 169.229 93.1747C171.816 91.266 174.452 89.4226 177.059 87.5411C178.059 86.8197 179.19 86.2079 180.002 85.3115C183.566 81.3763 186.978 77.303 190.555 73.3806C193.879 69.7368 197.155 66.0418 201.107 63.0124C202.891 61.6447 204.436 59.9627 206.063 58.3955C206.285 58.1818 206.441 57.8163 206.475 57.5044C206.835 54.223 207.174 50.9393 207.496 47.6541C207.643 46.1662 207.606 46.1049 206.087 46.0571C204.365 46.0029 202.637 46.0944 200.916 46.0143C196.496 45.8085 192.08 45.5297 187.662 45.3045C182.873 45.0605 178.084 44.8196 173.293 44.6249C170.423 44.5083 167.548 44.5091 164.677 44.4067C162.969 44.3458 161.264 44.1872 159.558 44.0725C159.541 43.9918 159.525 43.9111 159.508 43.8304C164.94 40.0554 170.372 36.2804 175.905 32.4324ZM231.24 90.1386C234.517 88.1898 237.807 86.2626 241.068 84.2872C246.463 81.0181 251.842 77.7198 257.223 74.4267C257.589 74.2028 257.974 73.9678 258.248 73.6504C258.486 73.3767 258.713 72.9785 258.714 72.6347C258.726 68.2978 258.696 63.9608 258.672 59.6239C258.671 59.41 258.626 59.1964 258.606 59.0288C253.101 61.3855 247.641 63.6998 242.201 66.0579C236.776 68.4095 231.37 70.805 225.894 73.2078C224.833 66.4793 223.801 59.9411 222.759 53.3436C223.057 53.3436 223.28 53.3336 223.501 53.3451C226.142 53.4822 228.782 53.6322 231.423 53.7489C231.733 53.7626 232.13 53.6892 232.35 53.4984C233.02 52.9159 233.617 52.2506 234.254 51.6282C234.868 51.0268 235.07 50.3981 234.843 49.4932C234.375 47.6332 234.073 45.7317 233.703 43.8474C233.223 41.4071 232.743 38.9669 232.256 36.4917C228.858 36.3264 225.53 36.1457 222.201 36.02C221.595 35.9971 221.379 35.8116 221.246 35.227C220.667 32.6836 220.025 30.1548 219.415 27.6185C219.157 26.5457 218.921 25.4676 218.653 24.2982C226.825 26.0332 234.858 27.7387 242.949 29.4565C242.815 30.478 242.686 31.4608 242.559 32.4318C245.15 33.2567 247.678 34.074 250.22 34.848C250.428 34.9112 250.83 34.7555 250.966 34.5717C253.367 31.3163 255.742 28.0422 258.118 24.769C259.754 22.5163 261.37 20.2493 263.023 18.0097C263.446 17.4362 263.462 16.9561 263.041 16.3887C262.119 15.1438 261.171 13.9119 260.339 12.6073C259.59 11.433 258.534 10.9228 257.224 10.7142C253.628 10.1417 250.04 9.5241 246.445 8.95242C238.421 7.67667 230.389 6.45686 222.373 5.13739C217.758 4.37779 213.169 3.46052 208.563 2.64549C208.291 2.59736 207.878 2.74198 207.686 2.94423C206.601 4.08934 205.561 5.27791 204.509 6.45529C204.28 6.7118 204.067 6.98299 203.805 7.29821C204.503 7.26378 205.061 7.2363 205.503 7.21453C205.633 7.90214 205.661 8.48148 205.854 8.9992C207.514 13.4506 209.213 17.8873 210.882 22.3355C212.631 26.9971 214.358 31.667 216.098 36.332C216.472 37.3354 216.683 38.3152 216.463 39.4275C215.642 43.5909 214.877 47.7664 214.162 51.9495C213.987 52.9698 213.741 54.1784 214.11 55.0563C215.669 58.7656 217.438 62.3868 219.151 66.0304C219.534 66.8439 219.862 67.6398 219.758 68.5721C219.421 71.5958 219.147 74.6273 218.756 77.6439C218.672 78.2992 218.332 79.0218 217.886 79.5089C217.043 80.4297 216.026 81.1901 215.101 82.0387C212.942 84.0209 210.834 86.0625 208.627 87.9898C207.032 89.3816 206.206 90.9322 206.825 93.0766C206.998 93.6766 207.047 94.3221 207.079 94.9505C207.121 95.7633 207.09 96.5799 207.09 97.4616C207.342 97.5387 207.636 97.6417 207.937 97.7182C209.855 98.2063 211.804 98.6004 213.685 99.202C215.054 99.6397 216.175 99.4913 217.386 98.7259C221.943 95.8456 226.547 93.0384 231.24 90.1386ZM247.825 54.0705C249.12 56.0204 251.064 57.5818 251.341 60.1218C253.263 59.2753 255.094 58.469 257.051 57.6072C255.785 57.0876 255.359 56.0136 254.74 55.1018C254.588 54.8767 254.395 54.5697 254.171 54.5188C251.863 53.9944 249.546 53.515 247.038 52.982C247.361 53.4256 247.557 53.6954 247.825 54.0705ZM152.389 70.1235C152.718 69.0575 152.997 67.972 153.394 66.9318C153.704 66.1194 153.604 64.9104 155.073 65.0566C152.835 63.0857 150.701 61.2057 148.443 59.2163C149.603 63.3271 150.724 67.2982 151.844 71.2692C151.898 71.2731 151.952 71.277 152.006 71.2809C152.12 70.9374 152.233 70.5938 152.389 70.1235Z" fill="black"/>
</g>
<path d="M48.1888 65.3428C41.5047 69.0098 34.8793 72.646 28.1263 76.3522C28.5698 72.9736 28.9868 69.7928 29.405 66.6122C29.7228 64.1951 30.0645 61.7808 30.3454 59.3594C30.4167 58.7452 30.622 58.5062 31.2504 58.3849C37.3606 57.2059 43.4628 55.9852 49.7047 54.7491C49.5616 56.0756 49.4308 57.3381 49.2882 58.5993C49.0722 60.5087 48.8605 62.4188 48.6153 64.3246C48.5717 64.6639 48.3741 64.9834 48.1888 65.3428Z" fill="black"/>
<path d="M35.411 34.3387C35.438 33.4824 35.8925 33.1895 36.6175 33.0019C39.3353 32.2988 42.0351 31.5262 44.744 30.7882C45.0356 30.7088 45.3425 30.6854 45.7394 30.8066C41.8746 34.182 38.0098 37.5575 33.9581 41.0961C34.4758 38.6901 34.9364 36.5497 35.411 34.3387Z" fill="black"/>
<path d="M111.928 41.1908C112.092 42.7132 112.248 44.1579 112.416 45.7081C110.617 45.1361 108.911 44.5935 107.114 44.0223C108.174 38.6475 109.23 33.2954 110.285 27.9433C110.329 27.9397 110.373 27.9361 110.417 27.9324C110.919 32.326 111.42 36.7195 111.928 41.1908Z" fill="black"/>
<defs>
<filter id="filter0_d_0_1" x="-3.82751" y="0.672363" width="284" height="119.306" filterUnits="userSpaceOnUse" color-interpolation-filters="sRGB">
<feFlood flood-opacity="0" result="BackgroundImageFix"/>
<feColorMatrix in="SourceAlpha" type="matrix" values="0 0 0 0 0 0 0 0 0 0 0 0 0 0 0 0 0 0 127 0" result="hardAlpha"/>
<feOffset dy="4"/>
<feGaussianBlur stdDeviation="2"/>
<feComposite in2="hardAlpha" operator="out"/>
<feColorMatrix type="matrix" values="0 0 0 0 0 0 0 0 0 0 0 0 0 0 0 0 0 0 0.25 0"/>
<feBlend mode="normal" in2="BackgroundImageFix" result="effect1_dropShadow_0_1"/>
<feBlend mode="normal" in="SourceGraphic" in2="effect1_dropShadow_0_1" result="shape"/>
</filter>
</defs>
</svg>
