<svg width="276" height="165" viewBox="0 0 276 136" fill="none" xmlns="http://www.w3.org/2000/svg">
<g filter="url(#filter0_d_25_950)">
<path d="M207.172 0.172371C207.468 0.172373 207.764 0.172373 208.163 0.23514C215.485 1.49296 222.705 2.68503 229.924 3.88396C236.323 4.94666 242.723 6.0038 249.118 7.08916C252.622 7.68399 256.121 8.31937 259.614 8.97415C260.004 9.04718 260.446 9.28665 260.694 9.58813C261.38 10.4231 262.016 11.3065 262.601 12.2165C263.75 14.0031 265.26 15.5323 266.029 17.5958C267.367 21.1885 268.87 24.7199 270.309 28.2753C272.261 33.1003 274.218 37.9237 276.172 42.7478C276.172 43.1564 276.172 43.565 276.113 44.0319C275.273 45.1099 274.47 46.1133 273.717 47.1524C271.018 50.8752 268.345 54.6168 265.638 58.3339C265.177 58.9664 264.521 59.2375 263.702 58.9937C263.056 58.8016 262.391 58.6737 261.604 58.4861C261.824 58.9905 261.93 59.3533 262.124 59.6604C263.971 62.5808 265.826 65.4955 267.691 68.4041C268.756 70.0647 269.8 71.7417 270.934 73.3546C271.896 74.7235 272.263 76.1589 272.207 77.8462C272.092 81.2609 272.178 84.6822 272.164 88.1007C272.163 88.4303 272.073 88.7661 271.983 89.0875C271.743 89.9449 270.921 90.133 270.279 90.527C267.579 92.1848 264.881 93.8452 262.18 95.5009C258.797 97.5745 255.42 99.6577 252.025 101.712C249.435 103.279 246.819 104.805 244.217 106.354C242.224 107.54 240.172 108.64 238.271 109.959C237.141 110.742 236.104 111.102 234.773 110.71C233.099 110.216 231.401 109.804 229.715 109.351C229.108 109.188 228.474 109.079 227.906 108.826C224.428 107.272 220.953 105.71 217.501 104.099C214.182 102.55 210.96 100.771 207.565 99.4182C205.669 98.6629 205.102 97.603 205.215 95.7321C205.296 94.3829 205.095 93.0168 205.014 91.5528C203.077 93.7248 201.239 95.7917 199.394 97.8528C198.594 98.746 197.881 99.7526 196.954 100.488C194.829 102.175 192.585 103.712 190.412 105.338C187.959 107.174 185.534 109.045 183.09 110.893C182.103 111.639 181.473 111.666 180.411 111.009C179.731 110.588 179.089 110.102 178.398 109.7C175.275 107.887 172.138 106.097 169.01 104.29C167.521 103.43 166.036 102.561 164.561 101.677C163.089 100.795 161.632 99.8896 160.13 98.9701C160.052 98.9576 160.012 98.9694 159.972 98.9812C159.996 99.0368 160.02 99.0923 160.042 99.2154C160.269 100.141 160.557 100.988 160.715 101.86C160.901 102.888 160.966 103.922 159.939 104.654C159.669 104.846 159.498 105.173 159.274 105.432C158.257 106.607 157.284 107.712 155.413 107.339C151.53 106.565 147.577 106.107 143.735 105.175C140.545 104.402 137.466 103.163 134.353 102.084C130.188 100.64 126.039 99.1514 121.897 97.6867C121.685 98.6411 121.522 99.5374 121.283 100.413C121.05 101.271 120.604 101.941 119.664 102.246C118.686 102.564 117.755 103.025 116.801 103.415C113.621 104.711 110.432 105.984 107.263 107.306C105.124 108.198 103.026 109.186 100.886 110.076C99.9455 110.467 98.9672 110.853 97.9705 111C96.9018 111.158 95.7885 111.082 94.6993 111.022C86.4384 110.571 78.1781 110.106 69.9201 109.605C69.5405 109.582 69.078 109.243 68.8358 108.917C67.4236 107.013 66.113 105.034 64.6693 103.155C63.969 102.244 64.0031 101.385 64.3818 100.433C65.3025 98.1195 66.2335 95.8098 67.1554 93.4963C67.2189 93.3368 67.2408 93.1607 67.2992 92.9222C66.9951 93.1207 66.792 93.2788 66.5674 93.3958C64.3079 94.5735 62.0379 95.7312 59.7844 96.9202C55.0481 99.4193 50.3273 101.948 45.5859 104.437C42.4656 106.076 39.3174 107.661 36.19 109.286C35.7176 109.531 35.3113 109.904 34.8372 110.146C33.9543 110.595 33.1229 111.132 32.034 111.087C28.474 110.94 24.9104 110.881 21.3494 110.756C15.6162 110.554 9.88394 110.325 4.08648 110.105C3.39528 108.45 2.64807 106.626 1.87247 104.814C1.32578 103.537 0.740524 102.277 0.172485 101.009C0.172486 100.713 0.172486 100.418 0.237004 100.042C0.431908 99.5832 0.57441 99.2081 0.690856 98.825C2.34775 93.3743 3.99972 87.9222 5.65578 82.4712C7.09641 77.7294 8.71588 73.0336 9.94619 68.2379C12.3603 58.8281 14.5549 49.3621 16.856 39.9231C16.9841 39.3978 16.8211 39.1102 16.3807 38.8826C15.2234 38.2842 14.0718 37.675 12.8212 37.0194C12.8221 37.0086 12.8271 36.8104 12.8566 36.6159C13.3204 33.5531 13.7736 30.4885 14.2564 27.4286C15.3114 20.7421 16.3884 14.059 17.4324 7.37075C17.5126 6.85653 17.7199 6.62533 18.2088 6.53996C19.4526 6.3228 20.6917 6.07881 21.9334 5.84934C27.8318 4.75929 33.7307 3.67238 39.6287 2.58056C43.2399 1.91206 46.8506 1.24069 50.4598 0.561312C51.2477 0.413018 51.9438 0.360336 52.5325 1.11556C53.7954 2.73548 55.1313 4.29833 56.4284 5.89179C57.3811 7.06209 58.3061 8.25503 59.2679 9.41759C60.3238 10.6937 61.4293 11.9292 62.4745 13.2138C64.0024 15.0915 65.4907 17.0014 67.0053 18.8901C69.0406 21.4281 71.1108 23.9386 73.1181 26.4985C75.1579 29.0999 77.1329 31.752 79.1487 34.3723C80.6263 36.2928 82.1294 38.1937 83.6108 40.1113C84.5056 41.2695 84.4733 41.8604 83.453 42.9063C81.5517 44.8552 79.6371 46.7912 77.7316 48.736C76.8401 49.6459 75.957 50.564 75.0169 51.5332C76.7547 53.0542 78.346 54.4886 79.9884 55.862C80.5765 56.3538 81.0409 56.8235 80.9201 57.6524C80.897 57.8107 80.9541 57.9806 81.0033 58.3826C82.0778 55.6441 83.0515 53.1423 84.0413 50.647C84.7054 48.9727 85.4072 47.3132 86.0656 45.6367C87.1427 42.8944 88.1817 40.1371 89.2668 37.398C90.7209 33.7272 92.2184 30.0737 93.6698 26.4019C95.0053 23.0231 96.2891 19.624 97.6233 16.2448C99.5361 11.4001 101.479 6.56742 103.398 1.72491C103.967 0.287206 104.056 0.220969 105.597 0.510892C105.682 0.526806 105.77 0.526508 105.853 0.548559C110.618 1.81961 115.383 3.09039 120.147 4.36664C120.878 4.56234 121.469 4.90812 121.95 5.56302C123.06 7.07632 124.258 8.52637 125.443 9.98301C127.352 12.3277 129.288 14.6493 131.196 16.995C133.048 19.2729 134.815 21.6232 136.735 23.8414C138.601 25.9962 139.987 28.3179 140.594 31.1517C141.105 33.5415 141.915 35.8674 142.623 38.3242C144.158 36.8962 145.652 35.539 147.108 34.1424C148.936 32.3885 150.726 30.594 152.548 28.8331C153.595 27.8215 154.696 26.8663 155.73 25.8418C157.347 24.2386 158.901 22.571 160.531 20.9806C162.346 19.209 164.223 17.5011 166.059 15.7507C167.484 14.3925 168.881 13.0051 170.302 11.6429C171.331 10.6566 172.391 9.70262 173.416 8.71229C175.221 6.96842 176.933 5.11773 178.846 3.50324C179.512 2.94119 180.643 2.87051 181.585 2.70415C186.076 1.91061 190.574 1.15469 195.075 0.415186C195.31 0.376552 195.749 0.545461 195.826 0.729091C196.775 3.0054 197.675 5.3024 198.574 7.55881C199.322 7.44695 199.978 7.36413 200.626 7.24385C200.862 7.20018 201.152 7.12976 201.296 6.9653C203.267 4.71187 205.217 2.43983 207.172 0.172371ZM60.3943 44.4055C55.2408 44.9706 50.0873 45.5357 44.7055 46.1258C52.3421 38.3684 59.8139 30.7785 67.2702 23.2045C65.5526 20.9426 63.9177 18.7646 62.2565 16.607C58.7214 12.0153 55.1624 7.44204 51.643 2.8384C51.2292 2.29699 50.8432 2.19317 50.2002 2.3157C43.5755 3.57817 36.9444 4.80701 30.3154 6.04749C26.5957 6.74357 22.8767 7.4439 19.1403 8.14553C17.6954 17.1558 16.258 26.1202 14.8045 35.1842C16.598 34.8291 18.2676 34.4985 19.9092 34.1735C19.1282 37.5899 18.3835 40.9673 17.5817 44.331C15.6875 52.2774 13.9005 60.2528 11.8118 68.1482C10.2448 74.0718 8.27728 79.8897 6.48483 85.7537C5.05313 90.4375 3.61368 95.119 2.18907 99.805C2.10021 100.097 1.99223 100.467 2.09357 100.721C3.0467 103.108 4.04348 105.477 5.03856 107.878C5.27786 107.763 5.43396 107.695 5.58406 107.616C9.74147 105.42 13.8971 103.22 18.0555 101.026C23.3017 98.2579 28.5473 95.4883 33.7984 92.729C40.9563 88.9677 48.092 85.1623 55.3016 81.5025C56.8132 80.7352 57.3886 79.7739 57.641 78.1744C59.1651 68.5146 60.7928 58.871 62.3849 49.2219C62.6624 47.5398 62.9352 45.8569 63.2227 44.0976C62.2521 44.1981 61.4002 44.2862 60.3943 44.4055ZM118.677 80.7571C119.515 85.2101 120.398 89.6556 121.158 94.1219C121.326 95.1079 121.745 95.5705 122.619 95.8725C126.821 97.3238 131.014 98.8035 135.208 100.279C137.663 101.142 140.117 102.009 142.565 102.892C143.124 103.093 143.507 102.99 143.89 102.513C144.588 101.641 145.332 100.803 146.101 99.9915C146.43 99.6447 146.431 99.3806 146.279 98.9408C145.607 96.9937 144.91 95.0483 144.384 93.0596C142.794 87.0494 141.597 80.936 139.583 75.0368C138.778 72.678 137.967 70.3162 137.294 67.9179C135.622 61.9585 134.066 55.9667 132.391 50.008C130.817 44.4072 129.137 38.8363 127.531 33.2445C125.908 27.5983 124.318 21.9431 122.717 16.291C121.967 13.6442 121.217 10.9974 120.48 8.34703C120.116 7.03673 119.459 6.05532 117.977 5.8624C117.468 5.79613 116.972 5.63236 116.47 5.50913C112.745 4.59338 108.892 4.15469 105.344 2.56659C105.309 2.55058 105.243 2.60066 105.179 2.62475C104.277 4.87665 103.367 7.13382 102.47 9.3963C99.0697 17.9741 95.6863 26.5588 92.2699 35.1303C90.6893 39.0962 88.9354 42.9965 87.459 46.9999C85.06 53.5052 82.8461 60.0791 79.8579 66.3526C79.6622 66.7633 79.4716 67.1982 79.3978 67.6417C78.3432 73.9809 77.2806 80.3191 76.2937 86.669C76.0922 87.9656 75.3664 88.6925 74.3164 89.2382C73.4513 89.6878 72.5408 90.0546 71.6975 90.5398C70.9988 90.9418 70.0444 91.3203 69.7643 91.9561C68.5404 94.7336 67.5295 97.6043 66.4219 100.434C66.1108 101.229 66.2012 101.924 66.6988 102.615C67.8549 104.221 68.9854 105.845 70.1433 107.486C70.5206 107.339 70.8949 107.201 71.2628 107.048C76.1852 105 81.1026 102.941 86.0298 100.904C89.3173 99.5458 92.6092 98.1967 95.9209 96.8989C96.6203 96.6248 96.9375 96.247 97.0966 95.5234C98.4568 89.3355 99.8062 83.1441 101.282 76.9832C101.606 75.6309 101.362 74.6817 100.388 73.8138C99.9688 73.4399 99.878 73.0376 100.003 72.4458C100.971 67.8717 101.881 63.2855 102.816 58.7047C103.169 56.9757 103.542 55.2509 103.92 53.4613C107.093 54.6759 110.162 55.8846 113.259 57.0132C114.118 57.3261 114.517 57.6813 114.663 58.6881C115.081 61.5506 115.748 64.3759 116.269 67.2246C117.085 71.6831 117.862 76.1489 118.677 80.7571ZM175.905 31.9324C179.188 29.6906 182.472 27.4488 185.853 25.1401C185.144 29.7306 184.446 34.2477 183.736 38.841C184.029 38.8257 184.251 38.8243 184.471 38.8011C188.9 38.3346 193.327 37.8554 197.759 37.4109C198.277 37.3589 198.326 37.0905 198.397 36.6931C199.879 28.4796 201.371 20.2682 202.861 12.0562C203.053 10.9992 203.242 9.94162 203.445 8.81487C200.639 9.17142 197.972 9.51029 195.243 9.85705C194.954 7.34321 194.673 4.90642 194.386 2.40811C193.884 2.44453 193.454 2.44082 193.037 2.51135C188.877 3.21482 184.714 3.9077 180.564 4.67039C180.018 4.77086 179.468 5.16812 179.044 5.56177C177.847 6.67314 176.723 7.86193 175.557 9.00618C172.606 11.9007 169.656 14.7966 166.689 17.675C163.764 20.5136 160.818 23.3313 157.881 26.1584C154.096 29.8016 150.31 33.4436 146.527 37.089C145.555 38.0258 144.576 38.9566 143.642 39.93C143.451 40.1289 143.309 40.5426 143.376 40.7963C144.751 46.0029 146.014 51.2496 148.816 55.9516C149.172 56.5478 149.507 56.7656 150.196 56.7603C162.787 56.6626 175.378 56.5924 187.969 56.5166C188.24 56.515 188.51 56.5164 188.781 56.5164C188.817 56.6002 188.853 56.684 188.889 56.7678C183.627 60.4613 178.365 64.1548 173.012 67.9122C172.609 67.3567 172.275 66.936 171.987 66.486C171.803 66.1985 171.69 65.8664 171.54 65.5565C170.904 64.2408 170.821 64.1868 169.36 64.3483C168.076 64.4904 166.789 64.6279 165.51 64.814C162.414 65.2648 159.319 65.734 156.228 66.2191C155.747 66.2944 155.252 66.3135 155.051 66.9987C154.405 69.1981 153.661 71.3684 152.979 73.5575C152.892 73.8379 152.889 74.1755 152.95 74.4649C153.092 75.1363 153.289 75.7965 153.477 76.4575C155.082 82.1066 156.734 87.7431 158.274 93.4102C158.758 95.1932 159.381 96.691 161.196 97.5401C161.897 97.8685 162.351 97.9535 162.949 97.4891C165.032 95.8705 167.107 94.2405 169.229 92.6747C171.816 90.766 174.452 88.9226 177.059 87.0411C178.059 86.3197 179.19 85.7079 180.002 84.8115C183.566 80.8763 186.978 76.803 190.555 72.8806C193.879 69.2368 197.155 65.5418 201.107 62.5124C202.891 61.1447 204.436 59.4627 206.063 57.8955C206.285 57.6818 206.441 57.3163 206.475 57.0044C206.835 53.723 207.174 50.4393 207.496 47.1541C207.643 45.6662 207.606 45.6049 206.087 45.5571C204.365 45.5029 202.637 45.5944 200.916 45.5143C196.496 45.3085 192.08 45.0297 187.662 44.8045C182.873 44.5605 178.084 44.3196 173.293 44.1249C170.423 44.0083 167.548 44.0091 164.677 43.9067C162.969 43.8458 161.264 43.6872 159.558 43.5725C159.541 43.4918 159.525 43.4111 159.508 43.3304C164.94 39.5554 170.372 35.7804 175.905 31.9324ZM231.24 89.6386C234.517 87.6898 237.807 85.7626 241.068 83.7872C246.463 80.5181 251.842 77.2198 257.223 73.9267C257.589 73.7028 257.974 73.4678 258.248 73.1504C258.486 72.8767 258.713 72.4785 258.714 72.1347C258.726 67.7978 258.696 63.4608 258.672 59.1239C258.671 58.91 258.626 58.6964 258.606 58.5288C253.101 60.8855 247.641 63.1998 242.201 65.5579C236.776 67.9095 231.37 70.305 225.894 72.7078C224.833 65.9793 223.801 59.4411 222.759 52.8436C223.057 52.8436 223.28 52.8336 223.501 52.8451C226.142 52.9822 228.782 53.1322 231.423 53.2489C231.733 53.2626 232.13 53.1892 232.35 52.9984C233.02 52.4159 233.617 51.7506 234.254 51.1282C234.868 50.5268 235.07 49.8981 234.843 48.9932C234.375 47.1332 234.073 45.2317 233.703 43.3474C233.223 40.9071 232.743 38.4669 232.256 35.9917C228.858 35.8264 225.53 35.6457 222.201 35.52C221.595 35.4971 221.379 35.3116 221.246 34.727C220.667 32.1836 220.025 29.6548 219.415 27.1185C219.157 26.0457 218.921 24.9676 218.653 23.7982C226.825 25.5332 234.858 27.2387 242.949 28.9565C242.815 29.978 242.686 30.9608 242.559 31.9318C245.15 32.7567 247.678 33.574 250.22 34.348C250.428 34.4112 250.83 34.2555 250.966 34.0717C253.367 30.8163 255.742 27.5422 258.118 24.269C259.754 22.0163 261.37 19.7493 263.023 17.5097C263.446 16.9362 263.462 16.4561 263.041 15.8887C262.119 14.6438 261.171 13.4119 260.339 12.1073C259.59 10.933 258.534 10.4228 257.224 10.2142C253.628 9.64167 250.04 9.02411 246.445 8.45243C238.421 7.17668 230.389 5.95687 222.373 4.6374C217.758 3.8778 213.169 2.96053 208.563 2.1455C208.291 2.09737 207.878 2.24199 207.686 2.44424C206.601 3.58935 205.561 4.77792 204.509 5.9553C204.28 6.21181 204.067 6.483 203.805 6.79822C204.503 6.76379 205.061 6.73631 205.503 6.71454C205.633 7.40215 205.661 7.98149 205.854 8.49921C207.514 12.9506 209.213 17.3873 210.882 21.8355C212.631 26.4971 214.358 31.167 216.098 35.832C216.472 36.8354 216.683 37.8152 216.463 38.9275C215.642 43.0909 214.877 47.2664 214.162 51.4495C213.987 52.4698 213.741 53.6784 214.11 54.5563C215.669 58.2656 217.438 61.8868 219.151 65.5304C219.534 66.3439 219.862 67.1398 219.758 68.0721C219.421 71.0958 219.147 74.1273 218.756 77.1439C218.672 77.7992 218.332 78.5218 217.886 79.0089C217.043 79.9297 216.026 80.6901 215.101 81.5387C212.942 83.5209 210.834 85.5625 208.627 87.4898C207.032 88.8816 206.206 90.4322 206.825 92.5766C206.998 93.1766 207.047 93.8221 207.079 94.4505C207.121 95.2633 207.09 96.0799 207.09 96.9616C207.342 97.0387 207.636 97.1417 207.937 97.2182C209.855 97.7063 211.804 98.1004 213.685 98.702C215.054 99.1397 216.175 98.9913 217.386 98.2259C221.943 95.3456 226.547 92.5384 231.24 89.6386ZM247.825 53.5705C249.12 55.5204 251.064 57.0818 251.341 59.6218C253.263 58.7753 255.094 57.969 257.051 57.1072C255.785 56.5876 255.359 55.5136 254.74 54.6018C254.588 54.3767 254.395 54.0697 254.171 54.0188C251.863 53.4944 249.546 53.015 247.038 52.482C247.361 52.9256 247.557 53.1954 247.825 53.5705ZM152.389 69.6235C152.718 68.5575 152.997 67.472 153.394 66.4318C153.704 65.6194 153.604 64.4104 155.073 64.5566C152.835 62.5857 150.701 60.7057 148.443 58.7163C149.603 62.8271 150.724 66.7982 151.844 70.7692C151.898 70.7731 151.952 70.777 152.006 70.7809C152.12 70.4374 152.233 70.0938 152.389 69.6235Z" fill="black"/>
</g>
<g filter="url(#filter1_d_25_950)">
<path d="M83.7429 135.849C83.6413 134.417 83.6071 132.985 83.6016 131.553C83.5917 128.947 83.5988 126.341 83.5988 123.684C84.9372 123.684 86.2133 123.684 87.5423 123.684C88.4341 126.477 89.3267 129.272 90.2193 132.067C90.2758 132.066 90.3323 132.065 90.3888 132.065C91.1299 129.722 91.8695 127.38 92.6127 125.038C93.0579 123.635 93.0603 123.635 94.4892 123.636C95.2643 123.637 96.0394 123.643 96.8144 123.649C96.8383 123.649 96.8619 123.678 97.0005 123.771C97.0005 127.639 97.0005 131.584 96.8933 135.605C95.8773 135.68 94.9686 135.68 93.9521 135.68C94.0521 132.988 94.1483 130.399 94.2521 127.607C94.111 127.935 94.0378 128.079 93.9856 128.23C93.2217 130.449 92.4183 132.656 91.7185 134.895C91.4176 135.858 90.7342 135.623 90.0769 135.689C89.4174 135.755 89.091 135.488 88.8904 134.882C88.1984 132.789 87.475 130.706 86.7598 128.621C86.6624 128.337 86.5433 128.061 86.3529 127.572C86.4365 130.182 86.5257 132.548 86.5719 134.915C86.5779 135.225 86.3627 135.538 86.25 135.849C85.4411 135.849 84.6322 135.849 83.7429 135.849Z" fill="black"/>
</g>
<g filter="url(#filter2_d_25_950)">
<path d="M146.015 136.172C145.935 132.131 145.935 128.091 145.935 123.96C146.855 123.96 147.712 123.914 148.559 123.988C148.816 124.011 149.125 124.321 149.273 124.578C150.52 126.735 151.734 128.911 152.959 131.081C153.027 131.201 153.105 131.314 153.287 131.606C153.287 128.971 153.287 126.528 153.287 124.022C154.317 124.022 155.271 124.022 156.307 124.022C156.307 124.831 156.307 125.627 156.307 126.423C156.307 129.38 156.315 132.337 156.294 135.294C156.292 135.541 156.095 135.787 155.965 136.103C155.131 136.172 154.322 136.172 153.382 136.139C151.854 133.746 150.458 131.387 149.062 129.027C149.012 129.037 148.961 129.048 148.911 129.058C148.911 129.3 148.911 129.542 148.911 129.784C148.911 131.644 148.926 133.504 148.893 135.363C148.888 135.635 148.652 135.903 148.522 136.172C147.714 136.172 146.905 136.172 146.015 136.172Z" fill="black"/>
</g>
<g filter="url(#filter3_d_25_950)">
<path d="M120.312 136.334C120.174 136.281 120.123 136.196 120.057 136.18C117.637 135.632 116.485 134.462 116.143 131.988C115.923 130.391 115.968 128.796 116.569 127.241C117.349 125.221 119.157 123.959 121.442 123.949C123.718 123.94 125.602 125.193 126.347 127.19C127.152 129.35 127.17 131.506 126.324 133.653C125.65 135.363 124.351 136.177 122.504 136.271C121.781 136.334 121.087 136.334 120.312 136.334ZM119.656 127.431C118.843 129.311 118.865 131.215 119.555 133.114C119.859 133.953 120.547 134.361 121.424 134.387C122.306 134.412 123.022 134.031 123.348 133.203C124.115 131.258 124.185 129.272 123.232 127.381C122.47 125.87 120.627 125.877 119.656 127.431Z" fill="black"/>
</g>
<g filter="url(#filter4_d_25_950)">
<path d="M262.108 136.172C261.686 136.072 261.35 135.948 261.003 135.874C259.232 135.496 258.297 134.355 258.252 132.44C259.212 132.44 260.173 132.44 261.139 132.44C261.672 134.049 262.343 134.547 263.848 134.236C264.268 134.15 264.757 133.74 264.943 133.349C265.194 132.823 264.926 132.264 264.364 131.985C263.828 131.718 263.252 131.533 262.707 131.282C261.798 130.865 260.822 130.537 260.014 129.972C257.914 128.505 258.126 125.623 260.402 124.472C262.154 123.587 264.003 123.512 265.817 124.292C267.259 124.913 268.001 126.057 268.032 127.7C267.039 127.7 266.099 127.7 265.154 127.7C264.522 126.189 263.88 125.741 262.669 126.164C262.262 126.306 261.858 126.749 261.67 127.155C261.409 127.716 261.828 128.148 262.318 128.389C262.881 128.666 263.502 128.827 264.062 129.108C265.077 129.618 266.185 130.037 267.039 130.752C268.372 131.866 268.476 134.04 267.205 135.209C266.61 135.756 265.538 135.785 264.649 136.111C263.806 136.172 262.997 136.172 262.108 136.172Z" fill="black"/>
</g>
<g filter="url(#filter5_d_25_950)">
<path d="M179.308 136.172C178.798 136.064 178.372 135.941 177.939 135.85C176.288 135.505 175.289 134.211 175.34 132.426C176.303 132.426 177.267 132.426 178.224 132.426C178.614 134 179.432 134.588 180.946 134.236C181.361 134.14 181.825 133.71 182.014 133.313C182.275 132.762 181.943 132.23 181.399 131.972C180.65 131.617 179.851 131.369 179.099 131.02C178.349 130.671 177.561 130.346 176.913 129.849C175.061 128.428 175.245 125.728 177.28 124.588C179.146 123.543 181.124 123.476 183.068 124.389C184.405 125.016 185.076 126.132 185.087 127.685C184.116 127.685 183.156 127.685 182.191 127.685C181.664 126.218 180.93 125.719 179.7 126.17C179.295 126.318 178.899 126.779 178.725 127.192C178.485 127.76 178.934 128.168 179.419 128.407C179.956 128.672 180.537 128.846 181.084 129.095C181.966 129.496 182.914 129.816 183.695 130.367C185.264 131.473 185.566 133.481 184.479 135.003C184.265 135.303 183.903 135.571 183.554 135.683C182.96 135.875 182.324 135.932 181.674 136.109C180.891 136.172 180.139 136.172 179.308 136.172Z" fill="black"/>
</g>
<g filter="url(#filter6_d_25_950)">
<path d="M36.4779 136.172C36.3803 135.457 36.291 134.734 36.361 134.027C36.5026 132.596 36.0893 131.351 35.4143 130.108C34.3913 128.223 33.4853 126.276 32.5322 124.353C32.4852 124.259 32.4634 124.151 32.4 123.959C33.3783 123.959 34.287 123.922 35.1885 123.986C35.4109 124.002 35.6995 124.309 35.8049 124.549C36.4926 126.116 37.1382 127.702 37.8594 129.429C38.5682 127.724 39.2344 126.177 39.8493 124.61C40.0478 124.105 40.3117 123.91 40.8605 123.946C41.6515 123.996 42.4482 123.958 43.3463 123.958C42.7533 125.204 42.2087 126.356 41.6564 127.505C41.4454 127.944 41.2525 128.397 40.9903 128.804C39.7131 130.789 39.0481 132.915 39.3519 135.302C39.3808 135.528 39.1469 135.789 39.01 136.103C38.1761 136.172 37.3672 136.172 36.4779 136.172Z" fill="black"/>
</g>
<g filter="url(#filter7_d_25_950)">
<path d="M10.7525 136.081C8.83853 136.083 6.99852 136.07 5.07926 136.048C5 132.078 5 128.118 5 124.017C7.39337 124.144 9.77606 123.715 12.102 124.41C13.2349 124.749 14.0748 125.47 14.3003 126.709C14.5865 128.281 14.2325 129.122 12.8847 130.169C14.8754 131.437 15.2974 133.425 13.8212 135.148C13.4509 135.58 12.7051 135.723 12.1049 135.914C11.7035 136.042 11.2543 136.021 10.7525 136.081ZM10.7499 126.57C9.86491 126.453 8.97991 126.337 8.05961 126.216C8.05961 127.356 8.05961 128.289 8.05961 129.301C8.61469 129.301 9.12676 129.327 9.63488 129.294C10.2629 129.253 10.9404 129.234 11.2382 128.527C11.5319 127.83 11.3893 127.186 10.7499 126.57ZM11.4175 131.824C10.4215 130.749 9.1769 131.44 8.08162 131.222C8.08162 132.278 8.08162 133.206 8.08162 134.171C8.68791 134.171 9.22931 134.177 9.77057 134.17C11.3687 134.151 11.8824 133.481 11.4175 131.824Z" fill="black"/>
</g>
<g filter="url(#filter8_d_25_950)">
<path d="M212.585 135.983C209.764 136.013 207.005 136 204.167 135.973C204.088 132.001 204.088 128.043 204.088 124.021C206.946 124.021 209.769 124.021 212.64 124.021C212.64 124.732 212.64 125.438 212.64 126.218C210.86 126.218 209.063 126.218 207.192 126.218C207.192 127.152 207.192 128.015 207.192 128.953C208.71 128.953 210.219 128.953 211.777 128.953C211.777 129.699 211.777 130.375 211.777 131.145C210.262 131.145 208.729 131.145 207.163 131.145C207.163 132.167 207.163 133.094 207.163 134.093C209.003 134.093 210.8 134.093 212.646 134.093C212.646 134.755 212.646 135.347 212.585 135.983Z" fill="black"/>
</g>
<g filter="url(#filter9_d_25_950)">
<path d="M239.931 135.888C237.12 135.971 234.311 135.977 231.423 135.97C231.344 132 231.344 128.041 231.344 124.019C234.214 124.019 237.037 124.019 239.905 124.019C239.905 124.739 239.905 125.446 239.905 126.224C238.112 126.224 236.316 126.224 234.449 126.224C234.449 127.134 234.449 127.98 234.449 128.929C235.927 128.929 237.46 128.929 239.036 128.929C239.036 129.705 239.036 130.381 239.036 131.156C237.511 131.156 235.98 131.156 234.417 131.156C234.417 132.165 234.417 133.075 234.417 134.059C236.215 134.059 238.013 134.059 239.933 134.059C239.933 134.69 239.933 135.25 239.931 135.888Z" fill="black"/>
</g>
<path d="M48.1888 64.8428C41.5047 68.5098 34.8793 72.146 28.1263 75.8522C28.5698 72.4736 28.9868 69.2928 29.405 66.1122C29.7228 63.6951 30.0645 61.2808 30.3454 58.8594C30.4167 58.2452 30.622 58.0062 31.2504 57.8849C37.3606 56.7059 43.4628 55.4852 49.7047 54.2491C49.5616 55.5756 49.4308 56.8381 49.2882 58.0993C49.0722 60.0087 48.8605 61.9188 48.6153 63.8246C48.5717 64.1639 48.3741 64.4834 48.1888 64.8428Z" fill="black"/>
<path d="M35.411 33.8387C35.438 32.9824 35.8925 32.6895 36.6175 32.5019C39.3353 31.7988 42.0351 31.0262 44.744 30.2882C45.0356 30.2088 45.3425 30.1854 45.7394 30.3066C41.8746 33.682 38.0098 37.0575 33.9581 40.5961C34.4758 38.1901 34.9364 36.0497 35.411 33.8387Z" fill="black"/>
<path d="M111.928 40.6908C112.092 42.2132 112.248 43.6579 112.416 45.2081C110.617 44.6361 108.911 44.0935 107.114 43.5223C108.174 38.1475 109.23 32.7954 110.285 27.4433C110.329 27.4397 110.373 27.4361 110.417 27.4324C110.919 31.826 111.42 36.2195 111.928 40.6908Z" fill="black"/>
<defs>
<filter id="filter0_d_25_950" x="-3.82751" y="0.172371" width="284" height="119.306" filterUnits="userSpaceOnUse" color-interpolation-filters="sRGB">
<feFlood flood-opacity="0" result="BackgroundImageFix"/>
<feColorMatrix in="SourceAlpha" type="matrix" values="0 0 0 0 0 0 0 0 0 0 0 0 0 0 0 0 0 0 127 0" result="hardAlpha"/>
<feOffset dy="4"/>
<feGaussianBlur stdDeviation="2"/>
<feComposite in2="hardAlpha" operator="out"/>
<feColorMatrix type="matrix" values="0 0 0 0 0 0 0 0 0 0 0 0 0 0 0 0 0 0 0.25 0"/>
<feBlend mode="normal" in2="BackgroundImageFix" result="effect1_dropShadow_25_950"/>
<feBlend mode="normal" in="SourceGraphic" in2="effect1_dropShadow_25_950" result="shape"/>
</filter>
<filter id="filter1_d_25_950" x="79.5963" y="123.636" width="21.4042" height="20.213" filterUnits="userSpaceOnUse" color-interpolation-filters="sRGB">
<feFlood flood-opacity="0" result="BackgroundImageFix"/>
<feColorMatrix in="SourceAlpha" type="matrix" values="0 0 0 0 0 0 0 0 0 0 0 0 0 0 0 0 0 0 127 0" result="hardAlpha"/>
<feOffset dy="4"/>
<feGaussianBlur stdDeviation="2"/>
<feComposite in2="hardAlpha" operator="out"/>
<feColorMatrix type="matrix" values="0 0 0 0 0 0 0 0 0 0 0 0 0 0 0 0 0 0 0.25 0"/>
<feBlend mode="normal" in2="BackgroundImageFix" result="effect1_dropShadow_25_950"/>
<feBlend mode="normal" in="SourceGraphic" in2="effect1_dropShadow_25_950" result="shape"/>
</filter>
<filter id="filter2_d_25_950" x="141.935" y="123.946" width="18.3738" height="20.2262" filterUnits="userSpaceOnUse" color-interpolation-filters="sRGB">
<feFlood flood-opacity="0" result="BackgroundImageFix"/>
<feColorMatrix in="SourceAlpha" type="matrix" values="0 0 0 0 0 0 0 0 0 0 0 0 0 0 0 0 0 0 127 0" result="hardAlpha"/>
<feOffset dy="4"/>
<feGaussianBlur stdDeviation="2"/>
<feComposite in2="hardAlpha" operator="out"/>
<feColorMatrix type="matrix" values="0 0 0 0 0 0 0 0 0 0 0 0 0 0 0 0 0 0 0.25 0"/>
<feBlend mode="normal" in2="BackgroundImageFix" result="effect1_dropShadow_25_950"/>
<feBlend mode="normal" in="SourceGraphic" in2="effect1_dropShadow_25_950" result="shape"/>
</filter>
<filter id="filter3_d_25_950" x="112.022" y="123.949" width="18.9327" height="20.3847" filterUnits="userSpaceOnUse" color-interpolation-filters="sRGB">
<feFlood flood-opacity="0" result="BackgroundImageFix"/>
<feColorMatrix in="SourceAlpha" type="matrix" values="0 0 0 0 0 0 0 0 0 0 0 0 0 0 0 0 0 0 127 0" result="hardAlpha"/>
<feOffset dy="4"/>
<feGaussianBlur stdDeviation="2"/>
<feComposite in2="hardAlpha" operator="out"/>
<feColorMatrix type="matrix" values="0 0 0 0 0 0 0 0 0 0 0 0 0 0 0 0 0 0 0.25 0"/>
<feBlend mode="normal" in2="BackgroundImageFix" result="effect1_dropShadow_25_950"/>
<feBlend mode="normal" in="SourceGraphic" in2="effect1_dropShadow_25_950" result="shape"/>
</filter>
<filter id="filter4_d_25_950" x="254.252" y="123.754" width="17.8488" height="20.4185" filterUnits="userSpaceOnUse" color-interpolation-filters="sRGB">
<feFlood flood-opacity="0" result="BackgroundImageFix"/>
<feColorMatrix in="SourceAlpha" type="matrix" values="0 0 0 0 0 0 0 0 0 0 0 0 0 0 0 0 0 0 127 0" result="hardAlpha"/>
<feOffset dy="4"/>
<feGaussianBlur stdDeviation="2"/>
<feComposite in2="hardAlpha" operator="out"/>
<feColorMatrix type="matrix" values="0 0 0 0 0 0 0 0 0 0 0 0 0 0 0 0 0 0 0.25 0"/>
<feBlend mode="normal" in2="BackgroundImageFix" result="effect1_dropShadow_25_950"/>
<feBlend mode="normal" in="SourceGraphic" in2="effect1_dropShadow_25_950" result="shape"/>
</filter>
<filter id="filter5_d_25_950" x="171.338" y="123.751" width="17.7865" height="20.4216" filterUnits="userSpaceOnUse" color-interpolation-filters="sRGB">
<feFlood flood-opacity="0" result="BackgroundImageFix"/>
<feColorMatrix in="SourceAlpha" type="matrix" values="0 0 0 0 0 0 0 0 0 0 0 0 0 0 0 0 0 0 127 0" result="hardAlpha"/>
<feOffset dy="4"/>
<feGaussianBlur stdDeviation="2"/>
<feComposite in2="hardAlpha" operator="out"/>
<feColorMatrix type="matrix" values="0 0 0 0 0 0 0 0 0 0 0 0 0 0 0 0 0 0 0.25 0"/>
<feBlend mode="normal" in2="BackgroundImageFix" result="effect1_dropShadow_25_950"/>
<feBlend mode="normal" in="SourceGraphic" in2="effect1_dropShadow_25_950" result="shape"/>
</filter>
<filter id="filter6_d_25_950" x="28.4" y="123.942" width="18.9463" height="20.2309" filterUnits="userSpaceOnUse" color-interpolation-filters="sRGB">
<feFlood flood-opacity="0" result="BackgroundImageFix"/>
<feColorMatrix in="SourceAlpha" type="matrix" values="0 0 0 0 0 0 0 0 0 0 0 0 0 0 0 0 0 0 127 0" result="hardAlpha"/>
<feOffset dy="4"/>
<feGaussianBlur stdDeviation="2"/>
<feComposite in2="hardAlpha" operator="out"/>
<feColorMatrix type="matrix" values="0 0 0 0 0 0 0 0 0 0 0 0 0 0 0 0 0 0 0.25 0"/>
<feBlend mode="normal" in2="BackgroundImageFix" result="effect1_dropShadow_25_950"/>
<feBlend mode="normal" in="SourceGraphic" in2="effect1_dropShadow_25_950" result="shape"/>
</filter>
<filter id="filter7_d_25_950" x="1" y="124" width="17.7027" height="20.0815" filterUnits="userSpaceOnUse" color-interpolation-filters="sRGB">
<feFlood flood-opacity="0" result="BackgroundImageFix"/>
<feColorMatrix in="SourceAlpha" type="matrix" values="0 0 0 0 0 0 0 0 0 0 0 0 0 0 0 0 0 0 127 0" result="hardAlpha"/>
<feOffset dy="4"/>
<feGaussianBlur stdDeviation="2"/>
<feComposite in2="hardAlpha" operator="out"/>
<feColorMatrix type="matrix" values="0 0 0 0 0 0 0 0 0 0 0 0 0 0 0 0 0 0 0.25 0"/>
<feBlend mode="normal" in2="BackgroundImageFix" result="effect1_dropShadow_25_950"/>
<feBlend mode="normal" in="SourceGraphic" in2="effect1_dropShadow_25_950" result="shape"/>
</filter>
<filter id="filter8_d_25_950" x="200.088" y="124.021" width="16.5577" height="19.9792" filterUnits="userSpaceOnUse" color-interpolation-filters="sRGB">
<feFlood flood-opacity="0" result="BackgroundImageFix"/>
<feColorMatrix in="SourceAlpha" type="matrix" values="0 0 0 0 0 0 0 0 0 0 0 0 0 0 0 0 0 0 127 0" result="hardAlpha"/>
<feOffset dy="0"/>
<feGaussianBlur stdDeviation="3"/>
<feComposite in2="hardAlpha" operator="out"/>
<feColorMatrix type="matrix" values="0 0 0 0 0 0 0 0 0 0 0 0 0 0 0 0 0 0 0.25 0"/>
<feBlend mode="normal" in2="BackgroundImageFix" result="effect1_dropShadow_25_950"/>
<feBlend mode="normal" in="SourceGraphic" in2="effect1_dropShadow_25_950" result="shape"/>
</filter>
<filter id="filter9_d_25_950" x="227.344" y="124.019" width="16.5885" height="19.9527" filterUnits="userSpaceOnUse" color-interpolation-filters="sRGB">
<feFlood flood-opacity="0" result="BackgroundImageFix"/>
<feColorMatrix in="SourceAlpha" type="matrix" values="0 0 0 0 0 0 0 0 0 0 0 0 0 0 0 0 0 0 127 0" result="hardAlpha"/>
<feOffset dy="4"/>
<feGaussianBlur stdDeviation="2"/>
<feComposite in2="hardAlpha" operator="out"/>
<feColorMatrix type="matrix" values="0 0 0 0 0 0 0 0 0 0 0 0 0 0 0 0 0 0 0.25 0"/>
<feBlend mode="normal" in2="BackgroundImageFix" result="effect1_dropShadow_25_950"/>
<feBlend mode="normal" in="SourceGraphic" in2="effect1_dropShadow_25_950" result="shape"/>
</filter>
</defs>
</svg>
