<svg width="1950" height="742" fill="none" xmlns="http://www.w3.org/2000/svg"><path d="m344.999 451-.001 221.465c0 6.525-.006 6.532-6.454 6.533-20.497.004-40.994-.085-61.49.078-3.85.03-5.16-.962-5.141-5.015.157-32.827-.283-65.662.266-98.481.229-13.681 2.298-27.343 3.742-40.991 1.566-14.795 3.37-29.566 5.091-44.345.242-2.078.606-4.142.253-6.448-.724 1.43-1.623 2.798-2.145 4.299-8.723 25.074-17.172 50.245-26.15 75.227-8.024 22.324-16.618 44.443-24.961 66.652-2.626 6.991-5.106 14.042-8.005 20.917-.582 1.381-2.748 2.942-4.211 2.969a969.967 969.967 0 0 1-37.488-.01c-1.434-.028-3.597-1.74-4.127-3.156-10.769-28.745-21.621-57.464-31.885-86.391-9.042-25.482-17.383-51.213-26.045-76.83-.409-1.211-.923-2.386-2.077-3.394 1.024 8.737 2.035 17.475 3.077 26.209 1.234 10.336 2.589 20.659 3.729 31.005 4.804 43.609 2.528 87.386 3.011 131.098.073 6.598.005 6.606-6.37 6.607-19.997.004-39.995-.108-59.99.09-4.205.041-5.737-.84-5.73-5.452.137-97.152.13-194.303.016-291.454-.005-4.242 1.328-5.291 5.396-5.265 25.328.167 50.659.141 75.987.017 3.4-.017 4.839 1.114 6.01 4.359 13.862 38.392 28.168 76.626 41.809 115.096 5.917 16.687 10.563 33.825 15.803 50.753.531 1.712 1.18 3.388 2.898 5.29 1.636-5.005 3.58-9.934 4.858-15.029 8.291-33.065 20.521-64.818 31.978-96.833a4826.569 4826.569 0 0 0 18.334-52.138c3.929-11.389 3.809-11.431 16.044-11.431 22.996 0 45.993.089 68.988-.085 3.979-.03 5.09 1.173 5.061 5.096-.166 22.828-.081 45.658-.081 68.988zM78.769 660.036c6.03 1.946 11.648 1.211 16.02-3.529 5.054-5.48 3.97-16.468-1.68-20.727-6.203-4.676-16.852-3.142-20.415 2.939-4.968 8.48-2.82 17.02 6.075 21.317zm13.006-119.522c-1.684-.687-3.32-1.545-5.06-2.031-4.93-1.375-11.244 1.288-14.282 5.877-3.37 5.091-3.142 10.389.677 15.762 3.149 4.43 9.06 6.675 13.952 5.299 11.75-3.305 14.384-15.438 4.713-24.907zm4.798-88.095c-.275-.605-.524-1.224-.83-1.813-3.043-5.838-10.05-8.361-16.692-6.02-6.02 2.123-9.147 7.991-7.91 14.842 1.083 5.991 6.554 10.495 12.781 10.52 8.703.036 13.357-6.012 12.651-17.529zm151.611 41.67c-5.22-3.081-11.169-2.635-13.506 1.013-4.688 7.318-4.161 11.296 2.334 17.611 4.653 4.525 13.016 3.362 16.183-2.249 3.465-6.139 2.466-9.792-5.011-16.375zM137.92 455.548c4.707-5.007 5.312-9.598 1.944-14.749-2.582-3.948-7.978-5.738-12.253-4.066-6.257 2.447-9.417 9.477-6.721 14.949 3.141 6.373 9.636 8.103 17.03 3.866zm5.291 49.539c.633 1.517 1.076 3.153 1.936 4.528 2.509 4.01 7.65 6.141 11.507 4.96 5.028-1.54 8.162-5.257 8.355-9.911.253-6.115-4.016-11.23-9.743-11.671-6.912-.532-11.228 3.479-12.055 12.094zm179.671-48.491c-.318-1.118-.602-2.249-.96-3.355-1.616-4.983-5.473-6.949-10.295-7.201-4.995-.261-8.243 2.756-9.954 6.966-1.743 4.287-.958 8.441 2.65 11.854 6.774 6.407 15.507 2.918 18.559-8.264zM73.427 411.757c2.417 6.481 6.868 9.289 12.954 8.173 4.5-.826 8.566-5.689 8.617-10.311.068-6.094-5.194-11.621-10.844-11.391-6.599.269-11.182 5.606-10.727 13.529zM305.07 543.435c-5.195 5.398-5.689 11.058-1.377 15.766 4.047 4.418 9.468 4.998 14.184 1.516 5.239-3.866 6.352-9.986 2.772-15.244-3.139-4.61-9.297-5.656-15.579-2.038zm-117.698 73.917c.219.971.305 1.997.68 2.905 1.867 4.523 5.291 7.374 10.137 7.592 4.741.213 8.442-2.358 10.094-6.75 1.57-4.175 1.475-8.311-2.355-11.824-3.133-2.874-6.439-4-10.464-2.888-5.145 1.422-7.508 5.13-8.092 10.965zM87.324 494.034c-.652-.124-1.3-.291-1.957-.367-5.029-.582-10.338 2.859-11.956 7.732-1.402 4.223.977 9.848 5.242 12.392 4.11 2.452 9.618 1.599 13.11-2.03 5.602-5.821 4.16-12.654-4.44-17.727zm129.089 60.058c-3.34 5.953-2.726 10.681 1.906 14.669 3.699 3.186 9.493 3.213 13.347.061 5.074-4.148 6.001-10.919 2.117-15.464-4.681-5.476-11.092-5.405-17.37.734zm96.711 103.857c1.093-.381 2.239-.654 3.27-1.162 5.244-2.584 7.657-8.74 5.456-13.771-2.535-5.795-8.77-8.377-14.454-5.987-4.705 1.979-7.275 6.966-6.335 12.294.833 4.721 5.529 8.335 12.063 8.626zm-56.068-202.377c5.615 3.699 12.071 2.917 15.476-1.874 3.372-4.747 2.367-11.032-2.409-15.072-4.394-3.716-10.164-3.305-14.261 1.017-4.337 4.574-4.095 10.423 1.194 15.929zM90.37 608.144c.816-.825 1.712-1.587 2.435-2.488 3.731-4.646 2.966-9.84-2.08-14.459-3.536-3.237-9.982-3.201-13.516.074-4.632 4.295-5.58 9.357-2.568 13.703 3.684 5.315 8.906 6.593 15.73 3.17zm230.099-14.989c-.441-.495-.835-1.046-1.332-1.476-3.758-3.257-10.05-3.789-13.864-1.199-3.87 2.628-5.506 8.011-3.928 12.926 1.423 4.43 5.382 6.812 11.01 6.625 8.205-.274 12.082-7.664 8.114-16.876zM172.03 549.223c-1.76.303-3.656.285-5.255.966-5.55 2.366-7.812 6.773-6.674 12.407 1.038 5.138 5.224 8.411 10.765 8.417 5.346.007 9.132-3.156 10.496-8.77 1.216-5-1.909-9.639-9.332-13.02zm128.961-43.057c.455 4.715 3.13 7.758 7.607 8.656 4.573.916 9.001.289 11.923-4.086 2.645-3.963 2.732-8.026.253-12.091-2.507-4.111-7.458-5.825-12.708-4.474-4.51 1.161-6.956 5.01-7.075 11.995zm6.62-86.887c8.778 2.151 16.283-3.33 14.967-10.928-.955-5.512-5.642-9.901-10.807-10.12-4.083-.174-9.092 3.337-10.392 7.282-1.726 5.233.392 10.404 6.232 13.766zM798.687 480.351c14.977 32.851 29.777 65.372 44.879 98.557-.697-6.231-1.328-11.942-1.975-17.653-1.192-10.511-2.494-21.011-3.566-31.534-1.39-13.655-2.607-27.327-3.879-40.994-.123-1.323-.139-2.661-.14-3.991-.007-33.997.081-67.993-.107-101.988-.025-4.598 1.241-5.901 5.847-5.851 21.662.235 43.328.205 64.991.017 4.135-.036 5.351 1.141 5.346 5.316-.108 97.155-.107 194.311-.004 291.467.004 4.074-1.032 5.428-5.268 5.394-23.996-.19-47.994-.147-71.991-.029-3.409.017-5.364-.919-6.955-4.163-16.771-34.176-34.199-68.039-50.476-102.446-14.248-30.12-27.255-60.826-40.828-91.266-.515-1.155-1.21-2.23-2.546-4.661.823 8.551 1.405 15.573 2.195 22.572 1.188 10.508 2.409 21.014 3.812 31.494 6.342 47.356 3.18 94.971 4.077 142.477.092 4.906-1.426 6.092-6.162 6.039-21.829-.245-43.661-.189-65.491-.034-3.889.027-5.544-.684-5.539-5.121.123-97.322.116-194.644.015-291.967-.004-3.964 1.151-5.093 5.084-5.066 24.33.162 48.662.173 72.991-.017 3.649-.029 5.261 1.409 6.737 4.411 16.195 32.933 32.5 65.812 48.953 99.037zm-33.679 14.229c-2.578 4.797-1.315 8.62 2.648 12.116 5.13 4.524 13.83 4.251 17.308-.801 3.997-5.808 1.347-13.909-5.926-18.115-4.262-2.464-11.06.474-14.03 6.8zm-53.081-36.405c-.48-2.064-.676-4.251-1.497-6.169-2.049-4.788-6.173-6.37-11.002-5.923-4.83.447-7.918 3.622-9.155 8.035-1.323 4.721.231 8.925 4.325 11.846 6.059 4.322 15.236 1.377 17.329-7.789zm-19.367 38.979c-.484.874-1.029 1.719-1.441 2.625-2.29 5.031-1.019 10.346 3.157 13.353 4.394 3.165 10.199 2.732 14.144-1.055 4.317-4.145 4.664-9.876.865-14.289-4.589-5.332-9.913-5.732-16.725-.634zm1.503-79.559c5.869 4.637 14.17 2.619 16.931-4.116 2.063-5.031-.01-10.776-4.959-13.744-3.893-2.335-10.322-1.313-13.218 2.102-3.995 4.71-3.748 10.141 1.246 15.758zm180.016 28.451c-1.323.041-2.72-.178-3.957.17-4.27 1.198-7.173 3.753-8.255 8.317-1.16 4.887.808 8.388 4.443 11.197 3.299 2.55 7.079 2.991 10.736 1.021 3.876-2.088 6.049-5.309 6.058-10.054.01-5.865-3.653-8.468-9.025-10.651zm.8 190.127c-.993-.052-1.993-.204-2.979-.138-4.929.33-9.289 4.37-10.165 9.35-.825 4.694 1.562 9.321 5.894 11.425 4.929 2.394 9.166 1.459 12.923-2.851 5.032-5.773 2.967-13.131-5.673-17.786zm-13.283-226.022c1.659 7.6 5.194 10.402 12.437 9.861 5.048-.378 8.612-3.95 8.983-9.003.498-6.8-2.423-10.899-8.848-12.414-5.929-1.398-11.053 2.948-12.572 11.556zm-109.252 24.79c-.746-.348-1.465-.778-2.242-1.032-5.848-1.918-11.806.908-13.716 6.473-2.008 5.846.592 11.64 6.23 13.887 4.415 1.76 10.388.074 12.963-3.657 2.884-4.18 1.726-10.795-3.235-15.671zm111.045 111.063c-3.328 6.682-1.914 12.03 4.155 15.713 4.596 2.79 10.458 1.176 13.902-3.827 3.126-4.542 1.956-10.797-2.744-14.67-4.584-3.778-10.192-2.969-15.313 2.784zm-55.43 11.059c2.476-7.263.036-13.387-6.216-15.603-5.078-1.799-11.513 1.251-13.512 6.406-2.025 5.219-.062 10.594 4.988 13.665 4.696 2.856 9.433 1.603 14.74-4.468zm-115.802 49.152c4.63 4.173 10.141 5.122 14.363 2.474 4.034-2.532 6.783-7.634 4.84-11.347-1.681-3.213-4.621-6.547-7.829-7.976-3.765-1.677-8.329-.604-11.129 3.167-3.025 4.075-3.417 8.52-.245 13.682zm139.238 8.63c.638-1.167 1.396-2.286 1.892-3.511 2.073-5.119.303-10.687-4.244-13.605-4.398-2.823-9.778-1.939-13.499 2.217-3.47 3.876-3.654 10.124-.42 14.226 3.611 4.58 8.966 4.995 16.271.673zm-140.667-67.176c-.242 1.783-.721 3.571-.682 5.347.111 5.056 3.486 7.604 7.707 9.299 4.47 1.796 8.322.098 11.209-3.078 2.891-3.18 3.878-6.999 2.011-11.481-2.961-7.108-14.394-10.183-20.245-.087zm11.448 88.393c-1.762.326-3.642.365-5.262 1.035-4.088 1.692-6.744 4.513-6.968 9.319-.219 4.721 1.928 8.04 5.747 10.209 3.946 2.242 8.448 2.143 11.545-1.037 2.313-2.375 4.351-6.114 4.445-9.307.157-5.286-3.643-8.582-9.507-10.219zm161.781-138.436c-.496.862-1.233 1.669-1.447 2.596-1.049 4.534-1.252 8.962 2.707 12.408 3.701 3.223 8.034 3.221 12.177 1.504 4.804-1.992 6.655-6.386 5.423-11.091-.792-3.023-2.939-6.616-5.53-8.034-4.19-2.293-9.048-1.892-13.33 2.617zm-1.578 105.955c.483.869.854 1.827 1.467 2.592 3.154 3.935 8.937 5.209 13.559 3.058 4.662-2.17 6.867-7.554 5.399-13.183-1.168-4.473-5.229-7.158-10.707-7.077-7.434.111-10.482 4.34-9.718 14.61zM384.902 602.1c-7.074-17.162-11.725-34.555-12.84-52.735-.691-11.267-1.375-22.6-.939-33.86 1.244-32.08 8.795-62.471 28.121-88.726 17.81-24.194 41.684-39.891 71.354-45.55 12.616-2.406 25.606-4.012 38.419-3.97 21.04.069 41.545 4.321 60.608 13.668 13.969 6.849 25.813 16.351 36.296 28.113 19.12 21.454 28.122 47.127 32.811 74.57 2.989 17.5 3.118 35.278 1.413 53.088-1.429 14.927-4.112 29.509-8.858 43.681-7.18 21.445-18.367 40.467-35.115 55.924-10.871 10.033-23.471 17.379-37.163 22.756-13.962 5.483-28.437 8.224-43.535 9.167-27.341 1.708-53.307-2.612-77.294-15.784-24.704-13.567-42.074-34.11-53.278-60.342zM546.01 464.545c-6.714-9.415-15.61-15.698-26.823-18.62-17.731-4.622-33.624-1.168-47.016 11.487-14.962 14.137-19.333 32.877-21.013 52.317-.894 10.339-.507 20.832-.083 31.23.777 19.083 5.548 36.945 17.182 52.584 12.617 16.96 38.103 23.354 57.296 14.201 18.102-8.632 26.043-24.667 31.479-42.68 4.899-16.232 4.094-32.875 3.921-49.459-.19-18.117-4.721-35.088-14.943-51.06zm-99.809-42.486c-.665-.003-1.333.033-1.995-.014-5.482-.389-8.783 2.981-10.962 7.196-2.508 4.852-1.686 10.185 1.915 13.968 3.086 3.242 7.172 5.734 12.52 4.077 6.325-1.96 10.301-6.536 10.266-12.846-.033-6.004-3.935-10.42-11.744-12.381zm-24.444 124.196c.236-2.729.2-5.516.77-8.174.99-4.616-2.605-4.549-5.214-5.615-.429-.175-.756-.632-1.091-.994-2.378-2.567-5.298-2.826-8.098-1.219-2.022 1.16-3.637 3.049-5.379 4.672-4.231 3.942-4.843 8.37-1.885 13.27 1.858 3.078 10.776 7.27 13.47 5.622 2.744-1.679 4.754-4.56 7.427-7.562zm186.188-59.199c.354-1.429.927-2.842 1.023-4.288.33-4.955-2.326-9.283-6.761-11.078-4.328-1.751-8.383-.58-11.51 2.393-3.472 3.3-4.428 7.545-2.465 12.267 3.398 8.173 12.517 8.859 19.713.706zm-27.634 117.823c2.483 5.164 7.276 6.322 11.805 4.809 3.151-1.054 6.177-4.211 7.957-7.203 2.295-3.859.34-7.699-2.792-10.69-3.337-3.186-9.639-3.935-13.45-1.654-4.483 2.683-5.858 7.54-3.52 14.738zm-96.871 25.508c-1.583.43-3.271.639-4.729 1.333-4.049 1.924-6.545 5.218-6.573 9.724-.029 4.515 2.382 8.009 6.499 9.74 3.979 1.672 8.153 1.584 11.655-1.423 3.632-3.118 4.516-7.353 3.412-11.745-1.188-4.724-4.91-6.808-10.264-7.629zm110.985-104.002c-1.242.813-2.65 1.454-3.696 2.469-3.897 3.778-4.636 9.016-2.02 13.156 2.947 4.666 8.459 6.635 13.371 4.778 5.222-1.975 7.712-6.277 6.879-11.886-.954-6.43-5.314-9.207-14.534-8.517zm-178.3-52.408c-5.62-.828-9.757 1.278-12.063 6.466-2.401 5.403.338 11.699 5.865 13.962 6.001 2.457 12.378-.378 14.535-6.46 2.058-5.806-1.142-11.748-8.337-13.968zm96.012-54.181c.526-.641 1.062-1.273 1.576-1.923 3.217-4.068 2.986-8.28.413-12.515-2.646-4.356-6.906-5.008-11.342-4.243-4.494.775-7.261 3.833-8.36 8.242-1.094 4.39.677 7.868 4.027 10.503 4.172 3.283 8.615 2.867 13.686-.064zm41.909 221.698c-.432-7.304-3.912-10.652-10.952-10.536-6.196.103-9.958 3.769-10.121 9.864-.173 6.434 3.162 10.682 8.782 11.183 7.369.658 11.397-2.515 12.291-10.511zm7.226-197.985c1.559.503 3.09 1.313 4.682 1.457 7.629.688 12.05-3.172 12.087-10.342.037-7.278-4.206-11.046-11.833-10.674-4.128.202-7.15 2.236-8.463 5.911-1.711 4.789-1.454 9.529 3.527 13.648zM439.283 606.327c.248-1.957.744-3.919.699-5.869-.136-5.951-4.125-9.481-10.448-9.487-6.313-.006-10.188 3.542-10.586 9.429-.338 5.003 1.271 8.879 5.992 10.971 4.972 2.202 10.012.562 14.343-5.044zM1405.95 442.65c-1.87 1.09-3.71 2.262-5.55 2.268-33.99.11-67.99.08-101.98.082-6.41.001-6.42.008-6.42 6.566 0 11.497.17 22.998-.09 34.49-.09 4.052 1.28 5.039 5.14 5.021 29.16-.139 58.32.02 87.48-.178 4.44-.03 5.62 1.236 5.57 5.619-.23 18.826-.2 37.658-.02 56.485.04 3.95-1.12 5.099-5.07 5.078-29.16-.151-58.32.009-87.48-.178-4.37-.028-5.73 1.086-5.64 5.561.29 13.991.27 27.995.01 41.987-.08 4.335 1.04 5.676 5.54 5.653 35.83-.186 71.65-.018 107.48-.208 4.7-.025 6.27 1.082 6.19 6.012-.28 18.825-.23 37.657-.02 56.484.05 4.238-.89 5.723-5.47 5.712-63.16-.155-126.31-.145-189.46-.015-4.27.008-5.24-1.385-5.24-5.42.1-97.144.1-194.288 0-291.433-.01-4.164 1.19-5.327 5.33-5.319 61.49.122 122.98.121 184.46.002 4.1-.008 5.43 1.068 5.38 5.285-.21 19.993-.1 39.989-.14 60.446zm-97.42 68.404c-7.36.896-12.09 5.424-12.47 11.927-.43 7.251 3.29 12.707 9.43 13.867 6.68 1.261 13.35-2.348 15.76-8.53 3.06-7.826-2.05-15.23-12.72-17.264zm-10.54 135.544c.49 8.145 7.16 13.291 14.04 10.836 5.16-1.839 8.65-7.105 7.87-11.853-.83-5.063-5.66-9.406-10.64-9.563-5.63-.178-9.86 3.486-11.27 10.58zm73.71-9.118c-.78-.275-1.55-.554-2.33-.823-4.68-1.61-8.42-.12-11.45 3.529-3.37 4.066-3.53 8.512-.8 12.85 2.54 4.02 6.88 6.157 11.09 4.61 3.31-1.215 6.8-4.371 8.28-7.56 2.09-4.541.03-9.042-4.79-12.606zm-64.73-217.501c.83.016 1.66.047 2.49.045 4.75-.014 7.68-2.685 9.57-6.716 2.04-4.333.85-8.214-2.29-11.432-3.1-3.176-6.87-4.342-11.33-2.879-4.75 1.558-6.86 5.092-7.36 9.681-.54 4.959 2.14 8.447 8.92 11.301zm67.61 110.952c4.37-6.598 2.75-13.889-3.74-16.815-4.94-2.225-10.88-.317-13.88 4.461-2.66 4.225-1.8 10.486 1.86 13.602 4.7 3.995 10.13 3.746 15.76-1.248zM1254.64 636.42c-1.48-.126-2.97-.459-4.43-.338-3.8.314-8.6 4.622-9.19 8.041-.95 5.54.94 10.065 5.66 12.626 4.26 2.31 8.25 1.681 11.84-1.712 6.25-5.904 5.08-12.856-3.88-18.617zm-8.38-74.883c5.72 2.49 8.71 1.815 13.01-2.208 3.82-3.56 3.73-8.075 2.01-11.879-1.85-4.081-5.8-7.72-10.75-6.187-3.44 1.065-7.52 3.729-8.95 6.785-2.18 4.657-.81 9.768 4.68 13.489zm122.62-141.677c.91-.387 1.87-.705 2.74-1.172 4.86-2.594 6.95-9.16 4.57-14.189-2.28-4.806-8.42-7.228-13.44-5.3-4.79 1.841-8.41 7.442-7.55 11.689 1.21 5.999 5.65 9.141 13.68 8.972zm-115.91-21.336c-2.06.373-4.28.385-6.16 1.188-4.95 2.114-7.01 7.13-5.69 12.966.98 4.313 4.99 7.269 9.98 7.349 5.65.091 9.84-2.834 10.81-7.535 1.39-6.817-1.23-11.189-8.94-13.968zm5.4 97.44c-.71-.429-1.37-1.037-2.14-1.259-4.69-1.352-9.27-1.577-12.85 2.517-3.36 3.836-3.29 8.341-1.31 12.611 2.21 4.747 6.79 6.261 11.36 4.944 2.98-.857 6.43-3.265 7.76-5.93 2.02-4.065 1.57-8.791-2.82-12.883zm-11.7 113.318c6.86 1.667 11.05.586 13.86-3.576 2.26-3.33 2.1-9.522-.26-12.769-2.97-4.098-7.48-5.095-11.56-3.598-2.98 1.095-6.28 4.157-7.32 7.091-1.66 4.708-.42 9.597 5.28 12.852zm-4.96-147.952c.66.95 1.21 1.996 1.99 2.835 3.24 3.507 7.15 4.84 11.66 2.822 4.49-2.005 6.98-5.426 6.68-10.576-.28-4.778-2.38-8.148-7-9.837-6.52-2.382-16.37 2.308-13.33 14.756zM1508 679c-19.99 0-39.49-.097-58.98.08-3.92.036-5.1-1.069-5.1-5.054.1-97.305.1-194.611.02-291.917-.01-3.749.79-5.207 4.94-5.199 61.82.132 123.63.123 185.45.015 3.82-.006 4.77 1.257 4.74 4.894-.15 19.327-.19 38.657.02 57.982.05 4.224-1.29 5.299-5.38 5.282-34.33-.148-68.65.002-102.97-.186-4.61-.026-5.97 1.256-5.84 5.856.31 11.655.27 23.328.01 34.986-.09 4.142 1.14 5.374 5.32 5.35 28.99-.167 57.98.005 86.97-.185 4.51-.029 5.98 1.093 5.91 5.791-.27 18.491-.24 36.989-.01 55.481.05 4.467-1.03 5.972-5.77 5.935-28.82-.223-57.65-.027-86.47-.2-4.4-.027-6.09.904-5.98 5.722.34 13.988.32 27.993.01 41.983-.1 4.597 1.48 5.49 5.72 5.472 35.82-.154 71.64.007 107.46-.198 4.9-.029 6.1 1.444 6.04 6.176-.26 18.825-.26 37.657 0 56.481.06 4.489-1.31 5.562-5.65 5.546-43.32-.154-86.64-.093-130.46-.093zm37.42-167.206c-5.45-1.912-9.79.195-13.26 4.16-4.14 4.728-3.82 10.08-.82 15.218 2.46 4.218 6.49 5.949 11.34 5.773 5.98-.216 10.88-4.243 12.08-9.912 1.24-5.902-2.06-11.613-9.34-15.239zm-13.99 137.907c.58 1.192 1.05 2.459 1.76 3.564 2.42 3.729 7.47 5.551 11.8 4.205 4.69-1.459 7.69-4.463 8-9.588.39-6.503-4.27-11.652-10.65-11.863-6.75-.223-11.39 5.155-10.91 13.682zm-35.91-190.823c.54-4.621-.72-8.476-4.85-11.01-3.63-2.229-7.47-2.889-11.23-.478-4.08 2.619-6.11 6.374-5.44 11.379.61 4.536 4.84 8.557 9.77 9.169 4.67.579 9.04-2.592 11.75-9.06zm-6.38 178.189c-6.35-2.144-12.11.132-14.49 5.723-2.21 5.21.32 11.667 5.63 14.306 4.58 2.282 11.38.114 13.84-4.418 3.2-5.882 1.61-11.52-4.98-15.611zm42.61-231.466c-1.88 5.323-.27 10.125 4.34 12.45 3.09 1.556 7.84 1.67 11.14.479 4.19-1.508 6.57-5.674 5.68-10.58-.86-4.77-3.44-8.152-8.51-9.303-4.72-1.072-8.41.687-12.65 6.954zm-47.17 157.375c1.29-.244 2.63-.326 3.85-.76 4.77-1.705 6.95-5.562 7.37-10.238.39-4.43-3.15-8.8-7.78-10.395-4.87-1.677-8.74-.03-11.86 3.803-5.38 6.598-1.8 14.822 8.42 17.59zm-8.43-51.761c4.08 4.336 10.41 5.266 14.78 2.173 4.34-3.08 5.93-8.661 3.72-13.121-3.01-6.081-9.07-8.324-14.99-5.548-5.8 2.722-7.26 8.672-3.51 16.496zm127.92 145.731c1.02-.845 2.02-1.705 3.05-2.531 4.12-3.295 3.84-7.999 2.23-11.815-1.65-3.907-5.37-7.614-10.17-6.354-3.5.92-7.73 3.299-9.26 6.255-1.4 2.701-.63 7.602.99 10.547 2.48 4.52 7.11 6.29 13.16 3.898zm-121.24-67.967c-6.5 1.448-9.01 4.597-8.85 11.113.12 5.163 3.41 9.199 8.04 9.889 7.01 1.044 13.12-3.203 13.88-9.658.71-6.002-4.91-11.22-13.07-11.344zm4.2-169.015c7.16-2.468 10.46-8.267 7.97-13.98-2.92-6.684-9.34-9.293-15.39-6.251-4.28 2.155-6.6 7.363-5.44 12.216 1.29 5.435 5.07 7.96 12.86 8.015zm103.02-16.009c-.36 1.926-1.01 3.85-1.03 5.78-.07 6.441 3.72 10.198 10.11 10.293 6.83.101 10.65-3.533 10.94-10.042.22-5.114-1.84-8.639-6.5-10.627-4.86-2.069-8.55-.933-13.52 4.596zm7.03 130.875c1.33.037 3.04.625 3.91.014 3.12-2.183 7.17-4.221 8.58-7.346 1.85-4.102.53-8.837-3.58-12.009-3.51-2.706-7.36-3.251-11.18-1.165-3.67 2.005-5.99 5.087-5.88 9.662.14 5.24 2.34 8.866 8.15 10.844zM1057.22 377.008c24.69.166 48.1 4.581 69.48 16.133 10.41 5.619 19.59 13.498 29.3 20.391 3.61 2.558 1.19 5.065-.45 7.153-7.18 9.099-14.55 18.053-21.81 27.089-4.65 5.783-9.23 11.619-13.28 16.72-11.68-5.733-22.15-11.933-33.37-16.102-13.68-5.083-28.03-6.588-42.36-1.47-6.55 2.338-11.59 6.291-12.6 13.411-1.13 7.916 2.24 14.216 9.58 17.46 14.54 6.425 29.32 12.303 43.93 18.584 14.31 6.152 29.09 11.494 42.64 19.041 20.55 11.45 33.32 29.105 36.88 53.006 2.96 19.903 1.05 38.945-8.33 56.887-11.39 21.777-29.52 35.928-52.12 44.572-12.74 4.87-25.98 7.281-39.68 8.278-30.7 2.235-59.8-3.703-87.135-17.084-11.78-5.765-22.159-14.422-33.017-21.99-.906-.632-1.41-3.643-.753-4.447 13.312-16.281 26.817-32.406 40.308-48.541.622-.743 1.48-1.288 2.063-1.784 8.563 5.127 16.814 10.334 25.314 15.096 14.25 7.981 29.43 13.103 45.96 12.455 5.87-.231 11.79-1.59 17.48-3.182 6.72-1.881 10.36-7.213 11.63-13.752 1.42-7.318-1.53-13.544-8-16.815-10.93-5.52-22.28-10.224-33.51-15.128-15.36-6.705-31.24-12.378-46.054-20.113-22.264-11.627-38.084-29.382-43.602-54.575-6.517-29.754.235-56.182 21.755-78.211 17.318-17.729 38.811-27.275 63.051-31.077 5.38-.844 10.82-1.343 16.7-2.005zm38.36 270.889c4.15-3.247 4.68-8.232 1.32-12.436-4-4.987-10.29-5.811-14.89-1.946-5.64 4.734-5.56 11.949.07 15.089 2.59 1.122 5.14 2.958 7.79 3.097 1.58.083 3.3-2.488 5.71-3.804zm-94.02-226.735c-1.12 1.283-2.802 2.392-3.266 3.881-1.614 5.181 2.826 11.856 8.216 12.838 5.59 1.019 11.37-3.231 12.33-9.068.87-5.233-3.73-11.4-9.11-11.702-3.13-.175-7.05-.875-7.69 3.919 0 0 .29.264-.48.132zm127.89 189.675c1.13-1.057 2.83-1.911 3.29-3.208 1.69-4.735-.72-10.086-5.3-12.632-4.17-2.32-9.45-1.096-12.89 2.986-3.01 3.568-3.44 9.209.12 12.67 2.25 2.184 5.87 3.449 9.06 3.97 1.76.286 5.39-.046 5.23-3.662 0 0-.29-.255.49-.124zm-30.24-179.354c1.37.577 2.72 1.261 4.13 1.713 6.09 1.94 12.4.155 15.72-4.367 3.96-5.41 3.96-12.214.01-17.633-3.3-4.52-9.85-6.364-15.71-4.418-6.51 2.165-9.87 6.392-9.13 13.564.38 3.667 2.86 7.118 4.98 11.141zm-58 225.471c9.94-2.105 15.07-11.977 10.26-19.751-3.54-5.718-10.08-7.992-16.34-5.682-6.33 2.333-9.29 8.162-8.02 15.758.95 5.665 5.93 9.298 14.1 9.675zm-37.64-185.619c-2.45-6.664-5.323-8.444-13.382-8.295-6.364.117-10.401 3.419-11.117 9.091-.941 7.465 2.31 13.231 8.401 14.901 9.961 2.729 16.878-3.591 16.098-15.697zm72.97 71.883c5.23-3.76 6.89-9.149 4.2-13.622-3.11-5.165-9.29-7.232-14.04-4.693-5.06 2.703-7.2 8.577-4.94 13.529 2.55 5.569 8.1 7.594 14.78 4.786zm46.29 19.803.6-1.898c1.4-4.591-.43-8.096-3.84-10.952-3.24-2.713-7.03-3.091-10.7-1.299-3.98 1.95-6.27 5.23-5.91 9.987.35 4.665 2.84 7.663 7.05 9.275 5.35 2.048 9.3-.167 12.8-5.113zm-65.55-162.951c-1.45.27-2.96.364-4.33.841-4.42 1.532-6.66 4.985-6.82 9.407-.15 4.509 2.31 7.944 6.37 9.825 3.9 1.809 7.94 1.446 11.06-1.624 6.65-6.54 3.46-16.422-6.28-18.449zm-70.75 219.909c-3.643 3.529-4.54 7.747-2.218 12.17 2.032 3.872 5.356 6.315 10.084 5.822 4.517-.47 7.724-2.743 9.114-7.184 1.47-4.666-.04-8.403-3.7-11.455-4.292-3.579-8.506-2.676-13.28.647zm35.4-99.05c1.1.349 2.17.885 3.3 1.015 5.89.682 10.75-2.5 11.7-7.553 1.27-6.772-1.77-11.545-8.29-13.001-3.95-.881-8.74 1.491-10.79 5.349-2.28 4.277-.95 9.662 4.08 14.19zM1709.69 660.332c-12.25-6.72-23.8-13.773-33.56-23.727 14.89-17.801 29.52-35.298 44.27-52.946 13.08 9.879 26.4 17.91 41.21 23.121 14.47 5.092 29.24 7.178 44.4 3.081 11.19-3.021 17.33-12.753 13.89-22.984-2.41-7.177-8.95-10.677-15.27-13.383-22.26-9.533-45.26-17.486-66.99-28.062-27.35-13.307-45.73-34.319-49.8-66.061-3.06-23.852 3.09-44.824 17.83-63.215 10.1-12.59 23.02-21.752 37.98-28.333 17.05-7.503 34.83-10.96 53.19-10.668 20.89.333 41.03 5.079 60.07 13.86 12.6 5.818 23.39 14.405 33.72 23.536.72.63.73 3.219.04 4.091-10.75 13.662-21.67 27.194-32.57 40.746-1.52 1.895-3.1 3.741-4.19 5.047-10.19-5.083-19.67-10.225-29.48-14.604-14.55-6.493-29.73-7.707-45.16-3.402-10.1 2.821-15.1 10.573-13.11 20.791 1.07 5.533 5.15 9.275 10.22 11.417 14.05 5.942 28.29 11.447 42.32 17.466 15.21 6.529 31.25 11.107 45.36 20.247 17.21 11.146 29.31 25.836 33.6 46.173 7.37 34.969-.98 65.278-28.12 89.23-15 13.24-33.06 20.883-52.73 24.086-10.91 1.777-22.08 3.302-33.07 2.928-25.74-.878-50.53-6.592-74.05-18.435zm6.07-196.156c-7.04 6.162-5.79 17.257.36 21.846 5.84 4.352 14.51 3.851 19.17-1.062 4.72-4.973 4.95-13.678.5-19.247-4.33-5.433-12.34-6.222-20.03-1.537zm138.2-42.077c1.67-13.521-10.65-16.262-18.18-13.118-5.2 2.176-7.77 8.246-6.61 13.735 1.07 5.076 5.49 9.028 10.35 9.243 8.63.382 12.05-1.764 14.44-9.86zm-5.76 148.798c1.11-.321 2.34-.437 3.32-.999 4.17-2.403 7.53-5.38 7.46-10.815-.08-5.376-1.77-9.664-6.98-12.037-4.9-2.233-9-.613-12.9 2.425-4.27 3.326-5.23 8.033-3.62 12.553 1.83 5.186 5.68 8.981 12.72 8.873zm-95.17-146.21c-6.72-9.664-8.14-9.809-16.65-6.213-4.79 2.027-7.07 5.866-5.92 9.502 1.3 4.105 4.67 8.833 8.41 10.617 7.34 3.495 15.85-4.771 14.16-13.906zm43.34 115.353c2.42 1.668 4.66 4.212 7.3 4.756 2.6.532 6.68-.026 8.22-1.772 3.4-3.854 5.04-8.316 2.56-14.22-2-4.752-5.26-6.036-9.07-6.217-4.42-.209-8.48 1.773-10.6 6.11-1.83 3.742-2.83 7.566 1.59 11.343zM1817 650.608c3.96 3.526 7.98 2.648 11.72-.203 3.56-2.719 6.01-10.619 3.36-13.451-2.76-2.953-7.37-6.314-10.78-5.936-3.58.396-7.81 4.409-9.72 7.943-2.41 4.47 1.14 8.314 5.42 11.647zm-99.16-27.789c-.27 2.263-.95 4.569-.73 6.782.44 4.241 3.35 6.721 7.23 7.943 4.19 1.325 7.86.232 10.74-3.145 2.52-2.953 3.53-6.137 2.12-10.071-2.65-7.408-12.74-10.905-19.36-1.509zm50.63 11.979c-5.95 4.382-7.16 10.694-3.03 15.807 3.32 4.108 10.37 4.712 14.75 1.263 3.55-2.79 4.89-8.617 2.9-12.582-2.45-4.874-7.87-6.754-14.62-4.488zm84.73-40.622c-.86.494-1.74.947-2.57 1.487-3.93 2.57-5.25 6.437-4.44 10.768.83 4.447 3.94 7.194 8.35 8.2 4.36.998 8.38-.579 10.2-4.292 1.44-2.916 2.09-7.215 1.02-10.142-1.79-4.883-6.34-6.941-12.56-6.021zm-53.14-179.895c1.63-5.839-.17-10.293-5.22-12.876-4.91-2.517-9.66-1.195-13.44 3.743-2.37 3.093-1.92 9.047.99 12.407 4.56 5.247 13.47 4.965 17.67-3.274zm-43.91 88.143c-5.73 3.646-7.5 8.732-4.85 13.896 2.5 4.843 9.06 7.228 13.69 4.974 5.11-2.488 7.47-8.377 5.38-13.428-2.24-5.408-7.65-7.723-14.22-5.442zM1383.11 154.516c.12-10.025.31-19.705.35-29.386.05-16.09.01-32.18.01-48.802 2.65-.141 4.4-.314 6.15-.315 32.66-.016 65.34-.72 97.97.227 23.23.675 46.46 3.662 65.86 18.549 14.35 11.009 23.58 25.298 26.63 43.467 2.28 13.555 2.51 26.984-.05 40.492-2.6 13.664-7.8 26.146-17.6 36.142-6.22 6.351-13.32 11.844-20.62 18.245 17.53 31.429 35.57 63.784 54.01 96.864h-5.57c-21.66 0-43.32-.12-64.98.103-4.23.044-6.44-1.156-8.37-5.049-12.65-25.401-25.63-50.635-38.42-75.965-1.49-2.947-3.25-4.449-6.82-4.182-4.98.371-10.01.318-14.99.021-3.85-.23-4.76 1.265-4.74 4.896.14 24.66-.09 49.323.2 73.981.06 5.183-1.44 6.392-6.43 6.313-18.49-.296-36.99-.118-55.48-.118h-6.16c-.32-11.152-.82-21.829-.91-32.509-.1-13.239.18-26.481.2-39.722.02-14.565-.13-29.131-.11-43.696.04-19.09.18-38.179.25-57.269 0-.647-.25-1.295-.38-2.287zm89.76-56.01c-3.27-4.555-6.64-4.757-10.38-.416-.42.328-.84.655-2.02 1.047-.75 2.634-2.43 5.428-2.01 7.864.65 3.801 3.93 6.127 7.82 6.47 2.73.24 6.24.724 6.54-3.649 0 0-.15-.105.65.002 4.05-1.373 2.43-4.818 2.34-7.393-.03-1.111-1.99-2.16-2.97-3.266 0 0-.04.097.03-.658zm-51.01 11.349s-.1-.026.65.037c3.88-3.095 4.31-6.838 1.29-11.144-2.59-3.702-7.66-4.604-11.99-2.136-3.81 2.167-5.89 7.33-4.06 10.544.47.816 1.76 1.164 3.05 1.847.22.203.31.451.27 1.502 3.72 4.662 8.69 4.316 10.79-.65zm-11.51 109.236c-3.34 1.566-3.82 4.383-2.92 7.475 1.14 3.895 3.7 7.426 7.8 7.124 3.14-.232 7.06-2.189 8.93-4.666 3.2-4.243 1.8-8.028-2.27-10.679-3.45-3.75-8.72-3.391-11.54.746zm125.17-45.923c-.79.535-1.84.898-2.32 1.634-2.55 3.964-1.32 8.921 2.78 11.784 3.9 2.721 9.93 1.821 12.56-1.875 2.66-3.75 1.92-10.048-1.49-12.672-4.46-3.429-9.2-2.883-10.97 1.027 0 0 .2.186-.56.102zm-113.48-33.282c-.38-.438-.76-.875-1.17-2.089-1.91-3.525-4.78-2.528-7.7-1.727-4.28 1.177-5.92 4.816-5.76 8.317.12 2.67 2.08 6.024 4.28 7.668 4.14 3.108 7.15 2.191 9.39-1.967.45-.398.9-.796 2.13-1.218 3.71-3.78 3.46-6.595-1.17-8.984zm60.14-9.877c-8.65-.003-17.3.11-25.94-.067-3.27-.067-4.32 1.044-4.3 4.298.12 17.796.12 35.594.01 53.39-.02 3.105.73 4.581 4.16 4.416 9.93-.479 19.9-.372 29.8-1.203 7.31-.615 14.19-3.172 19.9-8.153 8.02-6.994 9.48-16.189 9.26-26.193-.28-12.266-5.26-19.672-16.96-23.271-4.86-1.496-9.99-2.145-15.93-3.217zm-11.21 96.598c4.62-3.459 6.33-8.571 4.66-14.07-1.6-5.25-5.58-7.667-10.65-8.436-4.97-.753-9.75 2.045-12.22 6.81-2.36 4.55-1.34 10.82 2.4 14.657 3.82 3.919 8.47 4.38 15.81 1.039zm-62.37-51.61c-.69.725-1.48 1.377-2.04 2.188-3.15 4.555-3.59 9.273-.4 13.974 2.83 4.188 6.9 6.51 11.94 5.674 5.07-.844 8.59-3.826 10.17-9.103 1.58-5.262-.47-9.186-4.02-12.464-4.66-4.307-9.85-4.277-15.65-.269zm112.51 71.232c-2.51.713-5.16 1.13-7.5 2.207-3.71 1.704-6.82 7.668-6.22 11.128.94 5.497 6.06 10.533 11.3 11.131 4.64.531 9.69-2.524 11.81-6.744 2.83-5.634 1.41-14.032-9.39-17.722zm-2.34-31.346c-.27-.788-.51-1.584-.8-2.364-1.93-5.3-6.5-8.513-11.76-8.292-5.08.215-9.97 4.461-11.44 10.259-1.22 4.845 1.5 8.455 4.86 11.115 5.17 4.106 9.71 4.201 14.25-.215 2.48-2.413 3.39-6.434 4.89-10.503zm-9.51-98.339c7.6.815 13.51-3.592 14.59-10.871.78-5.323-3.45-11.632-8.42-12.553-8.32-1.54-14.24 1.903-16.05 9.343-1.24 5.056 2.18 10.175 9.88 14.081zm-83.4 194.625c.38-.918.81-1.816 1.12-2.755 2.36-7.123-.27-12.034-7.71-14.447-5.55-1.799-11.6 1.577-13.53 7.547-1.7 5.239.26 10.47 4.96 13.263 4.42 2.623 10.53 1.399 15.16-3.608zm1.74-46.721c-.44-1.583-.69-3.251-1.36-4.731-1.8-4.001-7.12-6.984-10.88-6.293-5.77 1.059-10.12 6.06-10.28 11.828-.13 4.264 3.55 8.955 8 10.221 7.11 2.022 12.38-1.781 14.52-11.025zm112.92-128.258c1.44.394 2.85.934 4.31 1.157 5.34.816 10.03-2.309 11.74-7.718 1.54-4.874-.84-10.376-5.42-12.512-5.31-2.48-11.76-1.192-14.42 2.882-3.28 5.021-1.99 11.584 3.79 16.191zm-7.48 164.515c.2 1.464.2 2.986.62 4.38 1.31 4.315 4.55 6.332 8.83 6.854 4.32.526 7.79-.849 10.28-4.578 2.57-3.845 2.78-7.675.35-11.629-2.3-3.726-5.71-5.475-10-5.167-5.75.413-8.89 3.854-10.08 10.14zM150.992 330.999c-31.49 0-62.481-.086-93.471.097-4.374.026-5.625-1.116-5.617-5.566.133-81.31.127-162.62.011-243.93-.006-4.242.899-5.736 5.476-5.706 31.49.204 63.004-.63 94.463.37 20.602.654 41.475 2.124 60.196 12.742 17.765 10.077 27.122 25.193 27.973 45.651.716 17.221-3.356 33.086-14.304 46.487-4.595 5.626-10.886 9.867-15.542 13.975 6.877 4.291 15.029 8.655 22.362 14.119 11.827 8.813 17.933 21.285 19.194 35.797 1.185 13.649.737 27.391-5.367 40.018-8.557 17.7-22.68 29.642-40.792 36.894-12.085 4.839-24.745 7.242-37.716 8.061-5.455.344-10.912.661-16.866.991zM88.883 218.117s-.037.108.004-.643c-3.742-4.659-8.71-4.266-11.043 1.382-.63.718-1.261 1.436-2.513 2.47-1.916 4.635.292 9.201 5.509 11.006 2.934 1.016 5.862 1.409 7.307-3.059.537-.45 1.074-.899 2.37-1.37 3.842-4.054 3.165-7.843-1.634-9.786zm36.448 78.912c-5.117 1.024-4.461 5.087-4.25 8.607.173 2.898 1.06 5.716 5.116 6.001 4.721 2.596 8.871 1.515 11.698-3.047 2.429-3.919 1.488-9.182-2.571-11.862-2.949-1.947-6.336-3.877-9.993.301zM89.556 148.94c.989-.481 2.338-.703 2.904-1.488 2.472-3.427 1.167-10.191-2.145-12.061-4.863-2.746-14.514-1.438-15.909 2.463-3.176 8.885-.009 14.293 8.42 15.962 3.542.701 6.356-.559 6.08-4.901 0 0-.13-.091.65.025zm-11.63 39.169c.395.496.79.993 1.196 2.249 4.031 3.485 6.362 3.284 8.987-1.208.498-.42.995-.839 2.25-1.273 3.69-4.221 2.466-10.361-2.712-12.422-3.09-1.229-6.722-3.142-8.756 2.398-.495.419-.991.838-2.248 1.269-3.523 3.957-3.266 6.605 1.284 8.987zm82.583 88.968c23.363-2.913 29.546-22.648 21.423-39.74-1.408-2.961-4.75-5.8-7.857-7.025-16.629-6.56-34.199-5.247-51.572-5.146-.835.005-2.372 1.831-2.382 2.82-.151 15.984-.16 31.97.018 47.954.011 1.025 1.844 2.936 2.783 2.907 12.249-.374 24.488-1.025 37.587-1.77zm7.828-141.911c-3.905-1.739-7.688-4.56-11.736-5.011-11.16-1.243-22.427-1.594-33.663-1.958-.936-.03-2.785 2.485-2.808 3.841-.215 12.974-.064 25.954-.177 38.93-.026 2.982.906 4.145 3.995 4.084 7.983-.16 15.991.309 23.954-.126 24.33-1.328 32.021-23.408 20.435-39.76zm17.875 33.901c.363 1.107.663 2.24 1.1 3.317 2.126 5.231 7.356 8.188 13.318 7.571 5.537-.573 9.797-4.671 11.083-10.662 1.004-4.679-1.957-10.292-6.743-12.779-8.814-4.582-17.59.888-18.758 12.553zM94.935 298.916c-.38-.738-.681-1.532-1.155-2.204-2.797-3.97-8.375-6.123-12.553-4.893-6.61 1.945-9.644 5.324-10.168 11.324-.44 5.029 2.472 9.582 7.142 11.976 5.127 2.628 9.762 1.626 13.753-1.869 4.108-3.598 5.048-8.382 2.981-14.334zm82.902-106.375c-1.18-.611-2.316-1.33-3.546-1.813-5.505-2.162-11.086-.512-14.597 4.241-3.691 4.998-3.452 10.392.69 15.578 2.905 3.637 9.302 5.064 14.048 3.135 8.405-3.417 10.103-12.189 3.405-21.141zm33.747 23.483c-7.131.837-12.405 6.093-12.209 12.168.199 6.172 6.456 12.667 12.166 12.628 6.493-.044 12.139-5.499 12.431-12.011.336-7.495-3.608-11.856-12.388-12.785zm-37.674 98.908c6.609 2.218 12.278.589 15.274-4.39 3.568-5.928 1.998-13.04-3.635-16.464-5.905-3.588-13.495-2.126-16.647 3.207-3.968 6.714-2.359 13.176 5.008 17.647zm10.129-204.576c3.505-6.33 2.721-12.882-1.988-16.627-4.403-3.501-11.734-3.313-15.633.4-5.163 4.92-5.554 12.017-.924 16.821 6.028 6.255 11.483 6.243 18.545-.594zm-56.495 80.399c-7.583-1.713-12.947 1.572-14.973 9.17-1.545 5.791 2.683 12.112 9.499 14.204 4.937 1.515 11.696-2.249 13.523-7.53 2.302-6.656-.572-12.81-8.049-15.844zM79.69 91.978c-7.044 2.952-9.668 8.614-7.26 15.663 1.639 4.793 8.891 9.016 13.02 7.58 8.248-2.869 11.57-8.857 9.208-16.598-1.586-5.198-7.977-8.285-14.968-6.645zm52.415.059c-3.165.653-6.774.56-9.397 2.123-4.604 2.744-5.852 8.836-3.757 13.654 2.104 4.84 7.484 7.891 12.466 7.07 5.203-.857 9.27-5.117 9.547-10.004.439-7.721-1.401-10.662-8.859-12.843zM77.293 273.528c2.718.472 5.456 1.426 8.151 1.319 6.057-.242 10.345-6.041 9.443-12.172-.966-6.567-7.63-11.69-13.398-10.297-10.249 2.475-12.551 12.367-4.196 21.15zm149.936-2.927c-2.765-5.341-6.08-7.063-12.532-6.554-4.86.383-7.095 3.45-8.517 7.748-1.526 4.611.089 8.123 3.35 11.07 3.414 3.085 9.472 3.633 13.381 1.043 4.478-2.966 5.846-7.367 4.318-13.307zm-28.268-146.835c-.305 1.282-.811 2.554-.88 3.848-.248 4.691 2.551 8.876 6.833 10.47 5.423 2.019 9.671.815 13.18-3.816 2.923-3.858 3.286-7.961.421-11.93-4.887-6.772-14.823-7.542-19.554 1.428zM449.362 96.645c13.611 10.387 21.128 24.245 24.34 40.3 3.077 15.38 3.076 30.961-.768 46.295-4.662 18.596-14.764 33.527-30.805 44.268-2.194 1.469-4.348 2.997-6.973 4.811l54.215 97.268c-2.264.175-3.796.395-5.329.396-21.998.023-43.996-.048-65.992.085-3.237.02-5.019-.857-6.552-3.886-13.047-25.774-26.344-51.423-39.421-77.182-1.485-2.924-3.168-4.247-6.514-4.069-4.985.265-10.014.337-14.989-.013-4.318-.304-5.724.97-5.682 5.504.226 24.495-.015 48.994.213 73.489.044 4.705-1.076 6.276-6.011 6.203-18.993-.284-37.994-.199-56.991-.044-3.767.03-5.197-.824-5.191-4.96a81986.6 81986.6 0 0 0-.001-243.972c-.006-4.305 1.437-5.234 5.443-5.217 33.162.14 66.343-.56 99.482.315 20.524.542 41.051 3.175 59.221 14.341 2.81 1.727 5.343 3.904 8.305 6.068zm-38.504 13.212s-.097-.026.654.037c3.738-2.983 4.209-6.241 1.541-10.67-2.305-3.828-7.453-5.093-11.736-2.885-4.08 2.103-6.142 6.53-4.512 10.218.429.971 1.714 1.563 2.998 2.448.215.203.307.451.265 1.502 3.738 4.65 8.685 4.307 10.79-.65zm-2.66 143.342s.136.08-.623-.034c-.579.271-1.426.383-1.693.837-1.912 3.247-2.29 7.026.225 9.642 2.056 2.139 5.6 4.187 8.306 3.977 2.647-.206 5.847-2.834 7.377-5.288 1.644-2.637 3.089-6.734-2.596-8.314-.229-.185-.326-.424-.281-1.528-1.465-3.98-4.892-2.431-7.506-2.302-1.092.054-2.089 2.039-3.209 3.01zm-91.624-23.239c4.047-.487 4.599-3.456 4.213-6.567-.661-5.329-6.611-9.881-11.736-9.318-5.091.559-9.306 6.105-9.007 11.849.3 5.74 4.353 8.998 10.775 9.089 3.779.053 5.762-1.12 5.102-5.065 0 0-.124-.082.653.012zm.007-40.005c3.052.281 4.049-1.541 4.353-4.169.691-5.967-3.449-11.157-9.397-11.727-6.912-.662-11.307 3.331-11.496 10.447-.176 6.624 3.607 10.343 10.335 10.496 3.765.085 6.323-.668 5.542-5.086 0 0-.147-.092.663.039zm89.321-15.72c3.531-6.613 3.75-13.829 2.962-20.931-1.07-9.641-6.017-16.504-15.689-19.802-14.914-5.087-30.268-3.126-45.482-3.291-.883-.009-2.562 2.653-2.576 4.084-.178 17.827-.051 35.656-.175 53.483-.023 3.289 1.08 4.412 4.326 4.265 10.116-.46 20.302-.151 30.345-1.223 10.889-1.161 20.658-5.138 26.289-16.585zm18.413-1.09c-2.871 6.439-.704 13.962 4.868 16.898 5.783 3.047 13.071 1.004 16.544-4.638 3.272-5.313 1.383-12.965-4.094-16.589-5.825-3.853-12.272-2.449-17.318 4.329zm-73.006 53.404c2.401.473 4.792 1.285 7.204 1.352 5.651.157 9.234-2.665 11.035-8.19 1.421-4.362-.827-10.541-4.812-13.225-3.479-2.343-10.892-2.049-14.184.563-6.925 5.494-6.876 12.125.757 19.5zm-46.071 48.987c1.287.321 2.558.8 3.864.933 4.665.475 8.377-1.185 11.006-5.157 2.923-4.414 2.991-9.311-.27-12.974-2.505-2.813-6.594-5.166-10.282-5.724-4.189-.634-9.693 4.81-10.504 8.526-1.414 6.481.072 10.291 6.186 14.396zm57.805-182.467c-8.724-.06-12.096 2.412-13.494 9.896-1.071 5.731 2.003 10.428 8.076 12.343 5.601 1.766 11.03-.416 13.37-5.374 3.741-7.93 1.564-13.04-7.952-16.865zm-58.076 41.008c-1.014.853-2.086 1.647-3.033 2.569-3.906 3.803-3.49 8.385-2.018 12.973 1.4 4.363 4.915 6.104 9.211 6.309 5.022.24 9.031-1.461 11.513-6.209 2.396-4.583 1.684-8.936-1.366-12.576-3.51-4.188-8.342-5.13-14.307-3.066zm131.549 3.178c.962.228 1.919.618 2.889.657 4.876.194 9.127-2.874 10.952-7.797 1.566-4.228.152-9.909-3.703-12.54-3.893-2.656-8.13-3.554-12.541-.604-7.098 4.747-9.206 13.903 2.403 20.284zm11.307 158.773c-.94-1.151-1.749-2.446-2.842-3.424-3.286-2.941-9.047-3.378-12.597-1.099-4.876 3.132-6.957 7.596-5.617 12.054 1.994 6.638 7.817 10.45 13.451 8.806 7.328-2.139 10.083-7.629 7.605-16.337zM300.446 99.192c-2.75 6.601-.722 12.602 5.228 15.473 4.775 2.304 11.444.165 14.208-4.558 3.113-5.317 1.345-12.156-3.996-15.46-5.107-3.16-11.04-1.641-15.44 4.545zm19.394 200.543c-3.221-5.414-8.665-7.161-14.501-4.652-4.159 1.787-6.946 7.627-5.748 12.045 1.683 6.206 7.769 10.119 13.107 8.427 7.134-2.261 10.015-8.111 7.142-15.82zm86.371-74.915c.84-1.011 1.768-1.962 2.503-3.044 3.283-4.828 2.63-10.702-1.482-13.869-4.087-3.146-10.499-2.119-14.909 2.39-3.19 3.261-3.296 8.923.5 12.671 3.493 3.449 7.926 4.705 13.388 1.852zM603.015 276.999c-12.363 0-12.46-.024-15.303 11.523-3.439 13.966-6.691 27.977-10.075 42.181H507.6l77.803-254.415c1.686-.105 3.15-.274 4.614-.275 24.321-.017 48.643.059 72.964-.093 3.401-.02 4.991.92 5.97 4.265 5.31 18.124 10.862 36.178 16.311 54.261 10.329 34.282 20.603 68.58 30.98 102.846 7.111 23.483 14.377 46.92 21.532 70.389 2.254 7.392 4.371 14.825 6.734 22.861-2.298.204-3.72.439-5.143.44-20.49.024-40.98-.058-61.469.087-3.62.026-5.287-.976-6.081-4.723-3.119-14.729-6.658-29.368-9.885-44.075-.807-3.679-1.977-5.507-6.447-5.416-17.318.354-34.647.144-52.468.144zM563.8 256.31s-.055.138-.141-.584c-2.853-3.066-4.823-1.311-7.308 1.497-3.663 4.951-3.451 8.63.743 13.299 4.245 3.926 10.426 2.5 12.554-3.1 1.186-3.123 2.794-6.713-2.574-8.441-.174-.19-.232-.41-.193-1.441-1.076-.406-2.153-.813-3.081-1.23zm74.672-12.199c-4.636 3.719-4.285 8.609 1.184 10.86.297.101.451.308.469 1.396 2.255.703 4.641 2.255 6.737 1.932 4.181-.645 6.973-4.064 6.805-8.031-.121-2.862-1.965-6.482-4.226-8.243-4.321-3.365-8.517-2.037-10.314 2.102 0 0 .096.025-.655-.016zm28.017-95.238c4.483-3.563 4.097-8.783-1.174-10.799-.274-.087-.42-.274-.45-1.349-.929-.832-1.771-2.24-2.803-2.396-4.142-.627-7.348.995-9.602 4.656-2.529 4.108-1.525 7.943 1.418 10.949 2.804 2.865 6.659 3.771 10.486 1.628.765-.429.968-1.861 1.473-2.724 0 0-.106-.044.652.035zm-100.392 80.744c2.572 4.41 6.299 3.452 9.843 1.816 3.848-1.777 5.625-5.129 4.959-9.318-.701-4.405-3.818-7.111-7.953-7.763-2.665-.421-6.187-.431-7.651 3.755-3.713 3.536-3.316 8.777.802 11.51zm98.459-41.061c4.702 4.77 7.421 4.63 12.965-.65 3.26-3.536 2.846-8.496-.958-11.491-3.916-3.082-7.886-2.788-10.638 1.322-.577.441-1.154.882-2.463 1.379-2.943 3.202-3.392 6.22 1.094 9.44zm-34.5-41.215-4.447-19.064c-.873.415-1.109.457-1.13.548-7.023 30.443-13.991 60.899-21.091 91.325-.856 3.669.973 3.876 3.671 3.867 12.485-.04 24.97-.004 37.455-.048 1.062-.003 2.122-.392 3.301-.625-5.932-25.306-11.777-50.239-17.759-76.003zm61.972 148.225c-.593.993-1.266 1.947-1.763 2.985-2.402 5.011-1.3 11.249 2.534 14.611 4.692 4.116 10.667 4.487 15.886.988 4.469-2.996 6.235-8.496 4.488-13.973-2.724-8.536-12.032-10.863-21.145-4.611zm-130.421 14.4c3.624-6.736 1.95-12.927-4.573-16.907-5.33-3.253-12.298-1.706-15.736 3.493-4.009 6.064-2.809 13.225 2.876 17.154 5.841 4.037 12.455 2.83 17.433-3.74zm129.062-34.057c1.777-.361 3.668-.447 5.31-1.131 5.507-2.296 8.56-9.48 6.858-14.252-2.369-6.64-10.529-10.992-16.281-7.624-4.151 2.431-7.705 7.08-7.447 11.465.327 5.576 4.058 9.526 11.56 11.542zm-98.132-97.684c-2.938-7.214-10.304-7.157-15.625-5.496-4.764 1.488-7.733 8.188-6.416 13.15 1.821 6.858 8.19 10.647 14.8 8.806 6.87-1.914 9.834-8.11 7.241-16.46zm94.169 35.236c-7.387-3.204-14.147-.897-16.573 5.654-2.503 6.761.275 14.16 6.5 15.414 7.817 1.574 13.594.776 15.874-8.941 1.135-4.838-1.677-8.557-5.801-12.127zm-104.958-66.095c2.59 5.094 7.268 8.115 11.65 7.523 4.829-.652 9.759-5.622 10.506-10.591.619-4.12-2.121-9.152-6.569-11.294-4.194-2.019-8.539-1.524-12.245 1.103-4.33 3.07-4.616 7.704-3.342 13.259zm9.366-44.751c.4 1.596.674 3.237 1.224 4.778 1.731 4.852 5.729 7.1 10.394 7.058 4.406-.04 8.328-2.122 10.156-6.701 1.816-4.546 1.426-8.755-2.086-12.39-6.839-7.077-16-4.026-19.688 7.255zm60.11-10.531c-1.921.429-3.929.634-5.747 1.33-4.661 1.786-6.896 5.833-6.426 11.141.422 4.75 4.196 8.697 9.228 9.648 4.227.799 9.589-1.908 11.486-5.799 3.464-7.108.956-12.34-8.541-16.32zm-37.306 149.452c-.96-.641-1.837-1.533-2.893-1.879-4.837-1.585-9.268-.561-12.895 2.912-3.061 2.93-3.358 8.409-1.069 12.417 2.482 4.347 6.42 5.564 11.065 4.905 8.344-1.185 11.033-8.865 5.792-18.355zM1877 200c0 8.331-.19 16.168.08 23.989.14 3.94-1.09 5.122-5.06 5.094-23.99-.169-47.99.043-71.98-.192-4.75-.047-6.31 1.163-6.15 6.057.36 10.984.34 21.996 0 32.982-.14 4.737 1.12 6.22 6.03 6.183 29.82-.224 59.65-.034 89.47-.2 4.23-.024 5.81.867 5.72 5.468-.29 15.489-.2 30.988-.04 46.481.04 3.712-.74 5.24-4.92 5.229-53.15-.141-106.3-.128-159.45-.017-3.79.008-4.77-1.192-4.77-4.863.09-81.806.09-163.612 0-245.417 0-3.666.97-4.876 4.77-4.868 51.81.112 103.63.124 155.44-.017 4.19-.012 4.97 1.51 4.93 5.226-.16 15.66-.22 31.324.03 46.982.06 4.155-1.46 4.967-5.21 4.95-28.82-.124-57.65.034-86.47-.174-4.53-.032-5.65 1.364-5.51 5.676.3 9.487.28 18.996 0 28.484-.12 4.051 1.27 5.049 5.13 5.025 24.16-.153 48.32.036 72.48-.179 4.43-.04 5.79 1.201 5.58 5.614-.36 7.313-.1 14.656-.1 22.487zm-25.07-102.269c-.33.425-.66.85-1.69 1.388-3.57 2.48-2.52 6.062-.66 8.267 2.04 2.415 5.67 5.207 8.3 4.936 2.9-.298 6.23-3.403 8-6.168 2.36-3.718-.18-9.217-4.2-11.263-3.87-1.975-7.46-1.113-9.75 2.84zm-84.65 90.141c3.58-3.771 3.37-6.466-1.13-8.98-.42-.496-.84-.992-1.27-2.247-4.22-3.684-10.34-2.474-12.42 2.682-1.24 3.095-3.09 6.681 2.35 8.765.43.502.87 1.004 1.31 2.266 4.03 3.486 6.37 3.283 8.94-1.217.48-.417.97-.835 2.22-1.269zm98.66 106.62c-2.4-1.02-4.75-2.668-7.23-2.926-4.86-.502-9.14 1.069-11.79 5.661-2.86 4.96-2.71 10.631.93 14.904 3.21 3.756 7.27 5.333 12.44 4.296 8.52-1.708 13.56-13.395 5.65-21.935zm-106.24 22.223c2.2-.629 4.52-.994 6.58-1.938 5.93-2.716 8.06-8.87 5.62-15.559-1.91-5.261-8.48-8.706-14-7.348-6.26 1.537-9.82 5.846-9.88 11.946-.06 6.696 3.5 10.804 11.68 12.899zm54.05-1.167c6.92-4.066 9.24-9.481 6.89-16.058-1.81-5.034-7.79-8.635-13-7.821-6.81 1.064-12.34 7.544-11.42 13.391 1.27 8.087 8.25 12.551 17.53 10.488zm-56.06-200.722c5.27 2.096 8.88-.827 12.1-4.275 2.72-2.919 3.1-9.566 1.11-13.103-2.51-4.45-7.93-7.07-12.51-6.046-5.7 1.273-9.02 4.642-9.35 9.494-.53 7.596 1.48 11.034 8.65 13.93zm41.77 78.277c-3.89 6.805-2.62 12.691 3.14 17.012 5.78 4.343 12.04 1.613 15.73-2.87 4.09-4.971 3.4-11.457-1.3-15.659-4.59-4.1-12.26-3.667-17.57 1.517zm-2.38-91.29c.29 1.787.32 3.663.91 5.345 2.07 5.933 8.91 9.378 14.12 7.286 7.59-3.047 10.8-9.566 7.76-16.172-2.66-5.772-7.7-6.74-13.4-6.253-5.59.477-7.74 4.394-9.39 9.794zm-44.53 130.179c5.8 4.576 12.38 4.213 16.82-.927 3.84-4.454 3.42-10.675-1.03-15.17-5.02-5.067-10.33-5.245-15.83-.533-4.45 3.801-4.66 10.821.04 16.63zm-1.75 26.543c-.29.774-.61 1.537-.86 2.324-1.45 4.614.49 10.288 4.29 12.574 4.14 2.493 10.65 1.858 13.93-1.36 3.57-3.498 4.5-8.892 2.26-13.133-4.37-8.274-12.89-8.755-19.62-.405zm11.31-104.629c1.38-.542 2.89-.882 4.12-1.659 6.28-3.954 6.67-13.491.77-17.171-4.67-2.91-9.79-2.717-13.93.593-3.51 2.796-3.53 6.664-2.7 10.479.79 3.653 6.63 7.554 11.74 7.758zm103.97 51.369c.29-1.761 1.33-3.871.71-5.211-1.45-3.122-3.11-7.249-5.79-8.39-2.71-1.16-8.07-.439-9.94 1.597-4.2 4.554-4.59 10.179-.42 14.206 4.04 3.905 10.53 3.133 15.44-2.202zM1333 274.001c5.5.002 10.5.084 15.49-.026 2.57-.056 3.55.926 3.54 3.51-.07 16.661-.07 33.322-.01 49.983.01 2.534-.87 3.761-3.48 3.535-.83-.072-1.67-.004-2.5-.004-52.31 0-104.63-.06-156.94.102-4.69.014-6.22-1.062-6.21-5.995.15-81.139.15-162.279.01-243.418-.01-4.697 1.4-5.793 5.9-5.78 51.15.147 102.3.151 153.45-.006 4.59-.014 5.94 1.222 5.86 5.839-.28 15.323-.24 30.656-.02 45.981.06 4.116-1.1 5.392-5.3 5.366-28.66-.17-57.32.002-85.97-.183-4.48-.029-6.12 1.019-5.93 5.77.38 9.315.37 18.667 0 27.982-.19 4.67 1.59 5.46 5.76 5.429 23.66-.176 47.32.041 70.97-.19 4.83-.047 6.67.866 6.52 6.221-.4 15.151-.32 30.323-.03 45.479.09 4.566-1.43 5.529-5.7 5.495-23.99-.19-47.98.027-71.97-.198-4.51-.042-5.65 1.325-5.54 5.659.29 11.489.26 22.993.01 34.484-.09 4.014 1.22 5.067 5.12 5.044 25.49-.154 50.98-.079 76.97-.079zm-120.11-96.148c-.49.419-.99.838-2.25 1.269-3.52 3.958-3.26 6.604 1.29 8.988.39.496.79.992 1.19 2.248 4.03 3.485 6.36 3.284 9-1.214.51-.414 1.03-.828 2.3-1.258 3.75-4.501 2.27-10.639-3.24-12.649-3.03-1.106-6.47-2.562-8.29 2.616zm10.7-28.904c1.43-1.231 3.77-2.241 4.13-3.73 1.55-6.425-2.43-11.475-9.03-12.143-6.55-.663-11.08 3.553-11.76 9.781-.69 6.388 6.26 11.743 11.17 11.145 3.33-.405 5.45-1.394 4.81-5.087 0 0-.13-.091.68.034zm5.34 149.965c-2.86-2.31-5.42-5.228-8.65-6.783-4.44-2.145-11.71 1.4-13.75 5.938-2.88 6.391-1.13 13.304 4.12 16.217 5.39 2.994 10.94 2.857 15.28-.997 4.11-3.645 5.07-8.406 3-14.375zm40.42 17.021c8.27-3.267 11.21-9.941 7.54-17.112-3-5.862-9.28-8.555-14.76-6.329-6.62 2.687-9.74 8.474-7.97 15.111 1.51 5.667 9.39 10.214 15.19 8.33zm45.99.023c6.53-1.338 10.12-4.527 10.61-9.416.7-7.015-1.53-11.548-6.66-13.57-5.06-2.001-9.53-.622-13.37 2.748-4.11 3.602-3.66 8.594-2.28 12.99 1.52 4.886 5.85 6.935 11.7 7.248zm-87.4-206.94c.34-2.093.94-4.181.98-6.28.11-5.982-2.31-9.24-7.57-10.663-6.05-1.636-10.81-.016-13.78 4.692-2.64 4.2-2.28 10.826 1.07 14.269 5.37 5.515 12.07 6.813 19.3-2.018zm76.86-12.509c-.49 1.057-1.15 2.07-1.45 3.178-2.19 8.067 4.8 17.163 12.2 15.933 4.96-.824 9.77-5.271 10.38-9.604.93-6.597-.93-11.081-5.51-13.243-5.55-2.62-11.07-1.521-15.62 3.736zm18.22 111.92c4.34-5.522 4.25-13.029-.21-17.047-4.1-3.695-12.69-3.773-16.43-.15-4.21 4.068-4.73 12.661-.76 16.766 4.69 4.844 10.79 6.827 17.4.431zm-45.1-104.226c.43-5.225-1.91-9.71-6.34-11.36-3.49-1.3-8.49-1.09-11.88.47-5.57 2.559-7.01 10.249-4.1 15.54 2.81 5.1 9.01 7.071 14.71 5.252 4.66-1.489 6.17-5.108 7.61-9.902zm-20.97 103.195c5.28 5.185 9.15 6.174 13.99 3.578 5.11-2.742 8.52-8.408 6.58-13.09-1.39-3.344-4.23-7.388-7.32-8.415-4.46-1.483-10.07-1.524-13.47 3.516-3.04 4.502-3.44 9.173.22 14.411zm-37.79 27.557c6.59-.219 10.88-7.401 9.66-13.665-1.11-5.671-8.03-10.291-13.51-9.13-4.92 1.044-9.73 7.611-9.24 12.604.64 6.484 4.97 10.085 13.09 10.191zm3.64 38.562c1.54-1.847 3.69-3.464 4.49-5.589 1.7-4.526.81-8.74-3.04-12.177-3.39-3.02-6.98-3.412-11.07-1.81-4.7 1.841-6.4 5.249-6.19 10.179.35 8.091 6.65 12.242 15.81 9.397zM969.03 157.664c-.51-16.513 3.197-31.391 12.55-44.612 10.064-14.227 23.5-23.962 39.8-30.078 14.68-5.511 29.88-7.955 45.36-6.82 23.71 1.736 45.83 8.61 65.05 23.28 11.31 8.634 11.39 8.604 2.72 19.536-8.22 10.358-16.52 20.647-24.5 30.605-8.72-4.378-16.79-8.971-25.28-12.561-11.58-4.894-23.82-5.445-36.08-3.031-7.61 1.498-13.51 7.216-13.41 13.438.1 6.635 3.74 11.592 10 14.181 14.71 6.092 29.39 12.258 44.23 18.031 11.46 4.458 23.05 8.584 32.96 16.098 15.2 11.517 23.64 26.616 25.76 45.817 1.77 15.966-.98 30.733-8.36 44.652-8.92 16.82-23.11 27.921-40.49 35.132-16.19 6.721-33.2 9.186-50.59 8.578-16.65-.582-32.79-4.076-48.37-10.15-14.83-5.779-28.261-13.678-40.425-25.373 3.664-4.597 7.216-9.26 10.985-13.738 7.895-9.378 15.998-18.584 23.805-28.034 2.024-2.45 3.121-2.83 5.855-.709 13.28 10.311 28.07 17.658 44.73 20.644 7.64 1.369 15.44 1.688 23.01-.553 8.61-2.544 13.56-7.768 13.59-14.541.02-7.935-5.27-12.404-11.75-15.181-17.84-7.642-35.9-14.739-53.76-22.336-24.071-10.243-40.404-27.329-46.087-53.48-.595-2.741-.863-5.552-1.303-8.795zm28.51 123.491c-4.109 2.806-4.537 5.105-1.31 8.021 0 0-.125.185-.177 1.025-.094 4.467 3.835 5.336 6.427 5.163 2.85-.19 6.4-1.999 8.04-4.265 1.33-1.83.34-5.39.17-8.171-.01-.309-1.37-.54-2.5-.884-.24-.167-.34-.396-.29-1.496-2.16-.84-4.28-2.1-6.5-2.322-.95-.095-2.109 1.981-3.209 2.964 0 0 .104.042-.651-.035zm99.67-49.332s.07-.135-.1.659c.02 3.661 2.75 4.338 5.44 4.425 1.98.064 5.02 1.43 5.61-2.874.51-.378 1.01-.756 2.29-1.148 3.75-3.789 3.47-6.62-1.31-8.948-.42-.455-.84-.909-1.31-2.197-2.67-.362-5.41-1.193-7.99-.851-1.01.134-1.68 2.893-2.65 4.23 0 0 .19.19-.6.128-2.07 2.434-3.39 4.781.62 6.576zm-10.38 72.985s-.11-.05.66.1c1.49-2.077 3.54-3.989 4.21-6.303.32-1.099-2-2.965-3.51-4.582-.23-.184-.33-.421-.28-1.518-2.94-3.509-6.38-3.588-8.73-.309 0 0 .11.045-.67-.102-1.5 2.007-3.81 3.83-4.32 6.065-.83 3.614.77 5.337 4.3 5.881.35.113.54.35.8 1.238.3.221.6.443 1.33.684 0 0 .4.146.95.668 2.06.235 4.61 1.778 5.26-1.822zm-24.46-195.942c4.48-4.274 2.88-10.793-3.3-12.936-1.77-.617-4.13-2.373-5.26 1.306 0 0-.16-.134-1.05-.186-3.25-.094-3.94 1.86-3.53 4.772 0 0-.16.164-.88.276-1.82 3.726-.3 7.766 3.75 9.915 3.83 2.028 6.95 1.165 8.83-2.808.15-.255.37-.363 1.44-.339zm-12.76 191.689c-.23-.862-.47-1.724-.83-2.715 0 0 .1-.153.17-1.012-.48-5.357-4.55-4.886-8.12-4.781-3.45.102-6.25 1.295-5.61 5.798 0 0-.13.137-.85.248-1.83 1.896-2.34 3.624.79 5.23 0 0-.07.358.09.89.24.261.49.522 1.07 1.449 2.87.716 6.04 2.509 8.5 1.801 1.91-.551 2.92-4.216 4.79-6.908zm-43.11-190.507c-3.9 4.818-4.41 9.741-.94 15.123 2.71 4.208 9.18 6.23 14.64 4.164 5.06-1.915 8.5-7.8 7.52-12.653-2.01-9.888-13.12-14.34-21.22-6.634zm104.47 4.041c0-.995 0-1.99.01-2.985.05-5.406-3.07-8.5-7.71-10.389-4.29-1.75-9.84-.269-13.01 3.648-2.97 3.667-4.5 7.636-1.93 12.353 2.54 4.648 6.26 7.377 11.53 7.187 5.76-.207 9.44-3.463 11.11-9.814zm12.79 154.09c-.81-2.461-.92-5.692-2.58-7.208-2.77-2.517-6.47-5.313-9.9-5.473-4.65-.218-8.57 2.805-10.29 7.904-1.48 4.392-.89 8.046 2.33 11.392 7.06 7.344 16.61 4.581 20.44-6.615zm-62.66-68.718c-.98 1.521-2.23 2.933-2.89 4.582-2.15 5.331.02 11.499 4.82 14.232 3.43 1.959 11.25.646 13.87-2.33 3.77-4.288 4.01-10.102.6-14.695-3.3-4.448-8.99-5.276-16.4-1.789zm-40.35-6.087c3.09 6.073 5.03 7.088 12.36 6.595 4.57-.308 7.43-2.881 8.63-7.06 1.62-5.647 0-10.597-3.84-12.896-3.96-2.372-8.19-3.132-12.27-.671-4.99 3.007-6.66 7.611-4.88 14.032zm-22.325-25.148c6.575 1.52 11.115-1.306 12.965-8.072 1.25-4.568-1.99-10.143-6.82-11.746-5.284-1.75-10.974.679-12.941 5.521-2.497 6.149-.23 11.429 6.796 14.297zM882.843 325.915c-15.182 3.448-29.992 4.976-45.239 3.333-20.777-2.24-40.388-7.854-58.423-18.313-7.683-4.455-14.649-10.146-22.793-15.876l37.036-44.183c12.448 6.349 23.626 12.865 35.449 17.853 12.026 5.074 24.859 6.792 37.775 2.874 7.419-2.25 12.147-7.853 12.35-13.953.209-6.285-3.881-12.098-11.049-15.126-19.561-8.262-39.48-15.75-58.684-24.765-24.246-11.381-39.435-29.962-42.389-57.617-1.933-18.093 2.369-34.261 12.994-48.657 9.774-13.244 22.738-22.614 38.202-28.367 21.225-7.897 42.814-8.98 64.974-4.216 19.239 4.137 36.278 12.3 51.278 24.95 5.405 4.557 5.402 4.94.99 10.406-8.63 10.693-17.079 21.531-25.63 32.287-.92 1.157-2.02 2.17-2.991 3.2-7.029-3.82-13.674-7.874-20.683-11.145-13.006-6.071-26.817-7.533-40.764-4.51-11.431 2.478-16.473 14.036-9.724 22.298 2.962 3.626 7.907 6.071 12.416 7.917 17.498 7.165 35.308 13.572 52.766 20.828 22.89 9.513 39.287 25.118 43.982 50.518 5.454 29.514-5.623 58.884-31.237 76.473-9.309 6.393-19.363 10.837-30.606 13.791zm21.977-103.722s-.035.105-.031-.702c-2.861-1.805-5.725-3.623-7.95 1.478-.506.378-1.013.755-2.286 1.146-3.733 3.731-3.492 6.5 1.234 8.986.444.497.889.994 1.375 2.306 2.688.306 5.446 1.078 8.03.69 1.023-.154 1.659-2.885 2.609-4.227 0 0-.185-.177.609-.118 2.042-2.434 3.442-4.788-.624-6.598 0 0-.122.194.069-.602-1.046-.773-2.092-1.545-3.035-2.359zm-72.245 73.861c-.817.639-2.129 1.131-2.372 1.943-1.517 5.077 1.284 10.303 6.171 11.926 4.985 1.655 10.08-1.046 12.206-6.471 1.641-4.189-.91-10.082-5.231-12.083-5.178-2.396-7.732-1.323-9.313 4.293-.101.291-.306.446-1.461.392zm80.302-35.499c-2.909.162-5.819.325-9.221.744-.196.308-.392.617-.567 1.545-.355.717-.71 1.434-1.795 2.28-2.268 3.186-1.895 5.543 2.508 6.835.245.167.346.398.321 1.47 3.868 3.923 7.535 3.608 9.782-1.203.118-.255.316-.37 1.376-.36 3.032-2.028 4.265-4.225.493-7.044 0 0 .129-.186.169-1.087-.906-.846-1.813-1.691-3.066-3.18zM810.095 129.823c3.147-.725 6.868-.628 9.321-2.344 5.221-3.654 7.651-8.403 2.896-15.856-3.02-4.732-9.582-6.483-14.712-3.935-4.762 2.366-6.746 6.227-6.528 11.26.233 5.386 3.217 8.869 9.023 10.875zm-2.583 22.509c-.54-.63-1.034-1.308-1.627-1.884-4.068-3.942-8.661-4.451-13.602-1.538-3.899 2.299-5.991 7.211-4.924 11.558 1.378 5.614 4.889 8.412 10.671 8.501 8.767.134 12.733-6.307 9.482-16.637zm28.111 28.531c-.992-.594-1.927-1.329-2.985-1.759-5.066-2.057-8.647-1.086-13.072 4.034-2.518 2.913-3.332 6.309-1.449 10.146 2.307 4.701 5.686 7.12 11.072 6.704 9.783-.757 12.882-11.537 6.434-19.125zm19.791 30.749c.479.867.86 1.808 1.454 2.586 2.836 3.716 6.466 5.734 11.226 4.523 4.547-1.157 7.656-4.152 8.617-8.707 1.015-4.807-1.754-8.313-5.352-10.94-3.302-2.41-6.866-2.59-10.679-.447-4.989 2.805-5.988 7.105-5.266 12.985zm27.966 97.377c5.653-3.081 8.221-7.078 7.463-11.621-1.063-6.37-6.614-10.308-13.066-9.268-5.068.816-9.332 6.733-8.614 11.716.79 5.482 7.654 11.212 14.217 9.173zM853.432 93.123c-1.853.667-3.85 1.084-5.531 2.051-4.212 2.423-6.156 7.29-4.837 11.405 1.714 5.351 5.505 8.559 9.852 8.337 5.397-.275 9.73-3.778 10.815-8.746 1.248-5.708-2.239-10.426-10.299-13.047zM808.18 292.517c.298-.593.647-1.166.886-1.781 2.125-5.462.466-9.728-5.016-12.96-3.085-1.818-10.185.16-12.556 3.499-2.537 3.572-1.679 9.054 1.979 12.639 4.456 4.368 8.71 4.157 14.707-1.397zm89.909-190.438c-.832-.009-1.672-.102-2.494-.013-4.86.524-10.262 6.966-9.341 11.096 1.383 6.198 6.591 9.282 12.598 8.105 5.006-.981 7.365-4.839 7.694-8.638.416-4.796-2.844-8.604-8.457-10.55zM1623.66 329.321c-.44-2.148-.65-3.968-.65-5.788-.01-80.952-.01-161.903-.01-242.855 0-6.673.01-6.676 6.81-6.677 18.65-.001 37.31.118 55.96-.09 4.18-.047 5.32 1.223 5.31 5.35-.11 81.784-.1 163.568-.01 245.353.01 3.955-.81 5.534-5.17 5.483-19.32-.227-38.64-.092-57.97-.113-1.32-.002-2.63-.219-4.27-.663zm41.77-156.293c-7.23-6.117-16.74-2.036-19.3 4.09-2.4 5.723-.54 11.54 4.77 15.174 5.59 3.827 10.58 2.236 15.57-2.445 4.02-3.759 3.55-11.22-1.04-16.819zm1.12 96.86c4.09-6.123 2.89-13.557-2.73-16.928-5.91-3.543-12.52-2.345-16.33 2.958-3.4 4.743-2.61 11.869 1.75 15.747 4.92 4.38 11.53 3.896 17.31-1.777zm-20.8-165.353c3.11 7.389 8.59 10.074 15.77 7.721 5.68-1.862 8.93-8.429 7.18-14.511-1.61-5.599-8.48-9.007-15.31-7.603-5.29 1.087-8.68 6.936-7.64 14.393zm.66 122.033c.81 1.236 1.45 2.644 2.47 3.678 4.67 4.74 12.54 4.631 16.89-.125 4.79-5.234 3.97-11.842-2.1-16.862-4.62-3.824-12.29-2.926-15.61 2.619-1.62 2.709-1.32 6.568-1.65 10.69zm8.76-74.054c7.86.916 14.98-6.171 13.08-13.023-1.76-6.391-5.28-8.837-12.15-8.447-5.17.294-9.29 3.924-10.01 8.818-.82 5.517 2.37 10.241 9.08 12.652zm7.22 141.466c-5.94-4.142-12.53.151-15.05 4.768-2.63 4.818-.12 10.948 5.57 14.144 4.19 2.356 10.27.538 13.03-3.894 3.48-5.597 2.41-10.874-3.55-15.018z" fill="#F8F8F8"/></svg>