<svg width="1950" height="742" viewBox="0 0 1950 742" fill="none" xmlns="http://www.w3.org/2000/svg">
<path d="M344.999 451C344.999 525.155 344.999 598.81 344.998 672.465C344.998 678.99 344.992 678.997 338.544 678.998C318.047 679.002 297.55 678.913 277.054 679.076C273.204 679.106 271.894 678.114 271.913 674.061C272.07 641.234 271.63 608.399 272.179 575.58C272.408 561.899 274.477 548.237 275.921 534.589C277.487 519.794 279.291 505.023 281.012 490.244C281.254 488.166 281.618 486.102 281.265 483.796C280.541 485.226 279.642 486.594 279.12 488.095C270.397 513.169 261.948 538.34 252.97 563.322C244.946 585.646 236.352 607.765 228.009 629.974C225.383 636.965 222.903 644.016 220.004 650.891C219.422 652.272 217.256 653.833 215.793 653.86C203.3 654.094 190.798 654.099 178.305 653.85C176.871 653.822 174.708 652.11 174.178 650.694C163.409 621.949 152.557 593.23 142.293 564.303C133.251 538.821 124.91 513.09 116.248 487.473C115.839 486.262 115.325 485.087 114.171 484.079C115.195 492.816 116.206 501.554 117.248 510.288C118.482 520.624 119.837 530.947 120.977 541.293C125.781 584.902 123.505 628.679 123.988 672.391C124.061 678.989 123.993 678.997 117.618 678.998C97.6211 679.002 77.6232 678.89 57.6283 679.088C53.4229 679.129 51.8906 678.248 51.8971 673.636C52.0347 576.484 52.0271 479.333 51.9143 382.182C51.9094 377.94 53.2417 376.891 57.3102 376.917C82.6384 377.084 107.969 377.058 133.297 376.934C136.697 376.917 138.136 378.048 139.307 381.293C153.169 419.685 167.475 457.919 181.116 496.389C187.033 513.076 191.679 530.214 196.919 547.142C197.45 548.854 198.099 550.53 199.817 552.432C201.453 547.427 203.397 542.498 204.675 537.403C212.966 504.338 225.196 472.585 236.653 440.57C242.86 423.225 248.979 405.847 254.987 388.432C258.916 377.043 258.796 377.001 271.031 377.001C294.027 377.001 317.024 377.09 340.019 376.916C343.998 376.886 345.109 378.089 345.08 382.012C344.914 404.84 344.999 427.67 344.999 451ZM78.7689 660.036C84.7994 661.982 90.4168 661.247 94.7891 656.507C99.843 651.027 98.7587 640.039 93.1089 635.78C86.9064 631.104 76.2574 632.638 72.6941 638.719C67.7263 647.199 69.8737 655.739 78.7689 660.036ZM91.7753 540.514C90.0914 539.827 88.4549 538.969 86.7146 538.483C81.7852 537.108 75.4712 539.771 72.4335 544.36C69.0637 549.451 69.2912 554.749 73.1103 560.122C76.2587 564.552 82.1703 566.797 87.0619 565.421C98.8126 562.116 101.446 549.983 91.7753 540.514ZM96.573 452.419C96.2975 451.814 96.0492 451.195 95.7424 450.606C92.6995 444.768 85.6928 442.245 79.0514 444.586C73.0305 446.709 69.9036 452.577 71.1415 459.428C72.2238 465.419 77.6954 469.923 83.9224 469.948C92.6246 469.984 97.2791 463.936 96.573 452.419ZM248.184 494.089C242.964 491.008 237.015 491.454 234.678 495.102C229.99 502.42 230.517 506.398 237.012 512.713C241.665 517.238 250.028 516.075 253.195 510.464C256.66 504.325 255.661 500.672 248.184 494.089ZM137.92 455.548C142.627 450.541 143.232 445.95 139.864 440.799C137.282 436.851 131.886 435.061 127.611 436.733C121.354 439.18 118.194 446.21 120.89 451.682C124.031 458.055 130.526 459.785 137.92 455.548ZM143.211 505.087C143.844 506.604 144.287 508.24 145.147 509.615C147.656 513.625 152.797 515.756 156.654 514.575C161.682 513.035 164.816 509.318 165.009 504.664C165.262 498.549 160.993 493.434 155.266 492.993C148.354 492.461 144.038 496.472 143.211 505.087ZM322.882 456.596C322.564 455.478 322.28 454.347 321.922 453.241C320.306 448.258 316.449 446.292 311.627 446.04C306.632 445.779 303.384 448.796 301.673 453.006C299.93 457.293 300.715 461.447 304.323 464.86C311.097 471.267 319.83 467.778 322.882 456.596ZM73.427 411.757C75.8437 418.238 80.2952 421.046 86.3808 419.93C90.8818 419.104 94.9469 414.241 94.9983 409.619C95.0662 403.525 89.8044 397.998 84.154 398.228C77.5555 398.497 72.9722 403.834 73.427 411.757ZM305.07 543.435C299.875 548.833 299.381 554.493 303.693 559.201C307.74 563.619 313.161 564.199 317.877 560.717C323.116 556.851 324.229 550.731 320.649 545.473C317.51 540.863 311.352 539.817 305.07 543.435ZM187.372 617.352C187.591 618.323 187.677 619.349 188.052 620.257C189.919 624.78 193.343 627.631 198.189 627.849C202.93 628.062 206.631 625.491 208.283 621.099C209.853 616.924 209.758 612.788 205.928 609.275C202.795 606.401 199.489 605.275 195.464 606.387C190.319 607.809 187.956 611.517 187.372 617.352ZM87.3238 494.034C86.6716 493.91 86.0243 493.743 85.3665 493.667C80.3381 493.085 75.0291 496.526 73.411 501.399C72.0086 505.622 74.388 511.247 78.6535 513.791C82.7628 516.243 88.2714 515.39 91.7634 511.761C97.3651 505.94 95.9234 499.107 87.3238 494.034ZM216.413 554.092C213.073 560.045 213.687 564.773 218.319 568.761C222.018 571.947 227.812 571.974 231.666 568.822C236.74 564.674 237.667 557.903 233.783 553.358C229.102 547.882 222.691 547.953 216.413 554.092ZM313.124 657.949C314.217 657.568 315.363 657.295 316.394 656.787C321.638 654.203 324.051 648.047 321.85 643.016C319.315 637.221 313.08 634.639 307.396 637.029C302.691 639.008 300.121 643.995 301.061 649.323C301.894 654.044 306.59 657.658 313.124 657.949ZM257.056 455.572C262.671 459.271 269.127 458.489 272.532 453.698C275.904 448.951 274.899 442.666 270.123 438.626C265.729 434.91 259.959 435.321 255.862 439.643C251.525 444.217 251.767 450.066 257.056 455.572ZM90.3701 608.144C91.1863 607.319 92.082 606.557 92.8051 605.656C96.5364 601.01 95.7713 595.816 90.7249 591.197C87.1891 587.96 80.7426 587.996 77.2092 591.271C72.5772 595.566 71.6282 600.628 74.6406 604.974C78.3246 610.289 83.5471 611.567 90.3701 608.144ZM320.469 593.155C320.028 592.66 319.634 592.109 319.137 591.679C315.379 588.422 309.087 587.89 305.273 590.48C301.403 593.108 299.767 598.491 301.345 603.406C302.768 607.836 306.727 610.218 312.355 610.031C320.56 609.757 324.437 602.367 320.469 593.155ZM172.03 549.223C170.27 549.526 168.374 549.508 166.775 550.189C161.225 552.555 158.963 556.962 160.101 562.596C161.139 567.734 165.325 571.007 170.866 571.013C176.212 571.02 179.998 567.857 181.362 562.243C182.578 557.243 179.453 552.604 172.03 549.223ZM300.991 506.166C301.446 510.881 304.121 513.924 308.598 514.822C313.171 515.738 317.599 515.111 320.521 510.736C323.166 506.773 323.253 502.71 320.774 498.645C318.267 494.534 313.316 492.82 308.066 494.171C303.556 495.332 301.11 499.181 300.991 506.166ZM307.611 419.279C316.389 421.43 323.894 415.949 322.578 408.351C321.623 402.839 316.936 398.45 311.771 398.231C307.688 398.057 302.679 401.568 301.379 405.513C299.653 410.746 301.771 415.917 307.611 419.279Z" fill="#F8F8F8"/>
<path d="M798.687 480.351C813.664 513.202 828.464 545.723 843.566 578.908C842.869 572.677 842.238 566.966 841.591 561.255C840.399 550.744 839.097 540.244 838.025 529.721C836.635 516.066 835.418 502.394 834.146 488.727C834.023 487.404 834.007 486.066 834.006 484.736C833.999 450.739 834.087 416.743 833.899 382.748C833.874 378.15 835.14 376.847 839.746 376.897C861.408 377.132 883.074 377.102 904.737 376.914C908.872 376.878 910.088 378.055 910.083 382.23C909.975 479.385 909.976 576.541 910.079 673.697C910.083 677.771 909.047 679.125 904.811 679.091C880.815 678.901 856.817 678.944 832.82 679.062C829.411 679.079 827.456 678.143 825.865 674.899C809.094 640.723 791.666 606.86 775.389 572.453C761.141 542.333 748.134 511.627 734.561 481.187C734.046 480.032 733.351 478.957 732.015 476.526C732.838 485.077 733.42 492.099 734.21 499.098C735.398 509.606 736.619 520.112 738.022 530.592C744.364 577.948 741.202 625.563 742.099 673.069C742.191 677.975 740.673 679.161 735.937 679.108C714.108 678.863 692.276 678.919 670.446 679.074C666.557 679.101 664.902 678.39 664.907 673.953C665.03 576.631 665.023 479.309 664.922 381.986C664.918 378.022 666.073 376.893 670.006 376.92C694.336 377.082 718.668 377.093 742.997 376.903C746.646 376.874 748.258 378.312 749.734 381.314C765.929 414.247 782.234 447.126 798.687 480.351ZM765.008 494.58C762.43 499.377 763.693 503.2 767.656 506.696C772.786 511.22 781.486 510.947 784.964 505.895C788.961 500.087 786.311 491.986 779.038 487.78C774.776 485.316 767.978 488.254 765.008 494.58ZM711.927 458.175C711.447 456.111 711.251 453.924 710.43 452.006C708.381 447.218 704.257 445.636 699.428 446.083C694.598 446.53 691.51 449.705 690.273 454.118C688.95 458.839 690.504 463.043 694.598 465.964C700.657 470.286 709.834 467.341 711.927 458.175ZM692.56 497.154C692.076 498.028 691.531 498.873 691.119 499.779C688.829 504.81 690.1 510.125 694.276 513.132C698.67 516.297 704.475 515.864 708.42 512.077C712.737 507.932 713.084 502.201 709.285 497.788C704.696 492.456 699.372 492.056 692.56 497.154ZM694.063 417.595C699.932 422.232 708.233 420.214 710.994 413.479C713.057 408.448 710.984 402.703 706.035 399.735C702.142 397.4 695.713 398.422 692.817 401.837C688.822 406.547 689.069 411.978 694.063 417.595ZM874.079 446.046C872.756 446.087 871.359 445.868 870.122 446.216C865.852 447.414 862.949 449.969 861.867 454.533C860.707 459.42 862.675 462.921 866.31 465.73C869.609 468.28 873.389 468.721 877.046 466.751C880.922 464.663 883.095 461.442 883.104 456.697C883.114 450.832 879.451 448.229 874.079 446.046ZM874.879 636.173C873.886 636.121 872.886 635.969 871.9 636.035C866.971 636.365 862.611 640.405 861.735 645.385C860.91 650.079 863.297 654.706 867.629 656.81C872.558 659.204 876.795 658.269 880.552 653.959C885.584 648.186 883.519 640.828 874.879 636.173ZM861.596 410.151C863.255 417.751 866.79 420.553 874.033 420.012C879.081 419.634 882.645 416.062 883.016 411.009C883.514 404.209 880.593 400.11 874.168 398.595C868.239 397.197 863.115 401.543 861.596 410.151ZM752.344 434.941C751.598 434.593 750.879 434.163 750.102 433.909C744.254 431.991 738.296 434.817 736.386 440.382C734.378 446.228 736.978 452.022 742.616 454.269C747.031 456.029 753.004 454.343 755.579 450.612C758.463 446.432 757.305 439.817 752.344 434.941ZM863.389 546.004C860.061 552.686 861.475 558.034 867.544 561.717C872.14 564.507 878.002 562.893 881.446 557.89C884.572 553.348 883.402 547.093 878.702 543.22C874.118 539.442 868.51 540.251 863.389 546.004ZM807.959 557.063C810.435 549.8 807.995 543.676 801.743 541.46C796.665 539.661 790.23 542.711 788.231 547.866C786.206 553.085 788.169 558.46 793.219 561.531C797.915 564.387 802.652 563.134 807.959 557.063ZM692.157 606.215C696.787 610.388 702.298 611.337 706.52 608.689C710.554 606.157 713.303 601.055 711.36 597.342C709.679 594.129 706.739 590.795 703.531 589.366C699.766 587.689 695.202 588.762 692.402 592.533C689.377 596.608 688.985 601.053 692.157 606.215ZM831.395 614.845C832.033 613.678 832.791 612.559 833.287 611.334C835.36 606.215 833.59 600.647 829.043 597.729C824.645 594.906 819.265 595.79 815.544 599.946C812.074 603.822 811.89 610.07 815.124 614.172C818.735 618.752 824.09 619.167 831.395 614.845ZM690.728 547.669C690.486 549.452 690.007 551.24 690.046 553.016C690.157 558.072 693.532 560.62 697.753 562.315C702.223 564.111 706.075 562.413 708.962 559.237C711.853 556.057 712.84 552.238 710.973 547.756C708.012 540.648 696.579 537.573 690.728 547.669ZM702.176 636.062C700.414 636.388 698.534 636.427 696.914 637.097C692.826 638.789 690.17 641.61 689.946 646.416C689.727 651.137 691.874 654.456 695.693 656.625C699.639 658.867 704.141 658.768 707.238 655.588C709.551 653.213 711.589 649.474 711.683 646.281C711.84 640.995 708.04 637.699 702.176 636.062ZM863.957 497.626C863.461 498.488 862.724 499.295 862.51 500.222C861.461 504.756 861.258 509.184 865.217 512.63C868.918 515.853 873.251 515.851 877.394 514.134C882.198 512.142 884.049 507.748 882.817 503.043C882.025 500.02 879.878 496.427 877.287 495.009C873.097 492.716 868.239 493.117 863.957 497.626ZM862.379 603.581C862.862 604.45 863.233 605.408 863.846 606.173C867 610.108 872.783 611.382 877.405 609.231C882.067 607.061 884.272 601.677 882.804 596.048C881.636 591.575 877.575 588.89 872.097 588.971C864.663 589.082 861.615 593.311 862.379 603.581Z" fill="#F8F8F8"/>
<path d="M384.902 602.1C377.828 584.938 373.177 567.545 372.062 549.365C371.371 538.098 370.687 526.765 371.123 515.505C372.367 483.425 379.918 453.034 399.244 426.779C417.054 402.585 440.928 386.888 470.598 381.229C483.214 378.823 496.204 377.217 509.017 377.259C530.057 377.328 550.562 381.58 569.625 390.927C583.594 397.776 595.438 407.278 605.921 419.04C625.041 440.494 634.043 466.167 638.732 493.61C641.721 511.11 641.85 528.888 640.145 546.698C638.716 561.625 636.033 576.207 631.287 590.379C624.107 611.824 612.92 630.846 596.172 646.303C585.301 656.336 572.701 663.682 559.009 669.059C545.047 674.542 530.572 677.283 515.474 678.226C488.133 679.934 462.167 675.614 438.18 662.442C413.476 648.875 396.106 628.332 384.902 602.1ZM546.01 464.545C539.296 455.13 530.4 448.847 519.187 445.925C501.456 441.303 485.563 444.757 472.171 457.412C457.209 471.549 452.838 490.289 451.158 509.729C450.264 520.068 450.651 530.561 451.075 540.959C451.852 560.042 456.623 577.904 468.257 593.543C480.874 610.503 506.36 616.897 525.553 607.744C543.655 599.112 551.596 583.077 557.032 565.064C561.931 548.832 561.126 532.189 560.953 515.605C560.763 497.488 556.232 480.517 546.01 464.545ZM446.201 422.059C445.536 422.056 444.868 422.092 444.206 422.045C438.724 421.656 435.423 425.026 433.244 429.241C430.736 434.093 431.558 439.426 435.159 443.209C438.245 446.451 442.331 448.943 447.679 447.286C454.004 445.326 457.98 440.75 457.945 434.44C457.912 428.436 454.01 424.02 446.201 422.059ZM421.757 546.255C421.993 543.526 421.957 540.739 422.527 538.081C423.517 533.465 419.922 533.532 417.313 532.466C416.884 532.291 416.557 531.834 416.222 531.472C413.844 528.905 410.924 528.646 408.124 530.253C406.102 531.413 404.487 533.302 402.745 534.925C398.514 538.867 397.902 543.295 400.86 548.195C402.718 551.273 411.636 555.465 414.33 553.817C417.074 552.138 419.084 549.257 421.757 546.255ZM607.945 487.056C608.299 485.627 608.872 484.214 608.968 482.768C609.298 477.813 606.642 473.485 602.207 471.69C597.879 469.939 593.824 471.11 590.697 474.083C587.225 477.383 586.269 481.628 588.232 486.35C591.63 494.523 600.749 495.209 607.945 487.056ZM580.311 604.879C582.794 610.043 587.587 611.201 592.116 609.688C595.267 608.634 598.293 605.477 600.073 602.485C602.368 598.626 600.413 594.786 597.281 591.795C593.944 588.609 587.642 587.86 583.831 590.141C579.348 592.824 577.973 597.681 580.311 604.879ZM483.44 630.387C481.857 630.817 480.169 631.026 478.711 631.72C474.662 633.644 472.166 636.938 472.138 641.444C472.109 645.959 474.52 649.453 478.637 651.184C482.616 652.856 486.79 652.768 490.292 649.761C493.924 646.643 494.808 642.408 493.704 638.016C492.516 633.292 488.794 631.208 483.44 630.387ZM594.425 526.385C593.183 527.198 591.775 527.839 590.729 528.854C586.832 532.632 586.093 537.87 588.709 542.01C591.656 546.676 597.168 548.645 602.08 546.788C607.302 544.813 609.792 540.511 608.959 534.902C608.005 528.472 603.645 525.695 594.425 526.385ZM416.125 473.977C410.505 473.149 406.368 475.255 404.062 480.443C401.661 485.846 404.4 492.142 409.927 494.405C415.928 496.862 422.305 494.027 424.462 487.945C426.52 482.139 423.32 476.197 416.125 473.977ZM512.137 419.796C512.663 419.155 513.199 418.523 513.713 417.873C516.93 413.805 516.699 409.593 514.126 405.358C511.48 401.002 507.22 400.35 502.784 401.115C498.29 401.89 495.523 404.948 494.424 409.357C493.33 413.747 495.101 417.225 498.451 419.86C502.623 423.143 507.066 422.727 512.137 419.796ZM554.046 641.494C553.614 634.19 550.134 630.842 543.094 630.958C536.898 631.061 533.136 634.727 532.973 640.822C532.8 647.256 536.135 651.504 541.755 652.005C549.124 652.663 553.152 649.49 554.046 641.494ZM561.272 443.509C562.831 444.012 564.362 444.822 565.954 444.966C573.583 445.654 578.004 441.794 578.041 434.624C578.078 427.346 573.835 423.578 566.208 423.95C562.08 424.152 559.058 426.186 557.745 429.861C556.034 434.65 556.291 439.39 561.272 443.509ZM439.283 606.327C439.531 604.37 440.027 602.408 439.982 600.458C439.846 594.507 435.857 590.977 429.534 590.971C423.221 590.965 419.346 594.513 418.948 600.4C418.61 605.403 420.219 609.279 424.94 611.371C429.912 613.573 434.952 611.933 439.283 606.327Z" fill="#F8F8F8"/>
<path d="M1405.95 442.65C1404.08 443.74 1402.24 444.912 1400.4 444.918C1366.41 445.028 1332.41 444.998 1298.42 445C1292.01 445.001 1292 445.008 1292 451.566C1292 463.063 1292.17 474.564 1291.91 486.056C1291.82 490.108 1293.19 491.095 1297.05 491.077C1326.21 490.938 1355.37 491.097 1384.53 490.899C1388.97 490.869 1390.15 492.135 1390.1 496.518C1389.87 515.344 1389.9 534.176 1390.08 553.003C1390.12 556.953 1388.96 558.102 1385.01 558.081C1355.85 557.93 1326.69 558.09 1297.53 557.903C1293.16 557.875 1291.8 558.989 1291.89 563.464C1292.18 577.455 1292.16 591.459 1291.9 605.451C1291.82 609.786 1292.94 611.127 1297.44 611.104C1333.27 610.918 1369.09 611.086 1404.92 610.896C1409.62 610.871 1411.19 611.978 1411.11 616.908C1410.83 635.733 1410.88 654.565 1411.09 673.392C1411.14 677.63 1410.2 679.115 1405.62 679.104C1342.46 678.949 1279.31 678.959 1216.16 679.089C1211.89 679.097 1210.92 677.704 1210.92 673.669C1211.02 576.525 1211.02 479.381 1210.92 382.236C1210.91 378.072 1212.11 376.909 1216.25 376.917C1277.74 377.039 1339.23 377.038 1400.71 376.919C1404.81 376.911 1406.14 377.987 1406.09 382.204C1405.88 402.197 1405.99 422.193 1405.95 442.65ZM1308.53 511.054C1301.17 511.95 1296.44 516.478 1296.06 522.981C1295.63 530.232 1299.35 535.688 1305.49 536.848C1312.17 538.109 1318.84 534.5 1321.25 528.318C1324.31 520.492 1319.2 513.088 1308.53 511.054ZM1297.99 646.598C1298.48 654.743 1305.15 659.889 1312.03 657.434C1317.19 655.595 1320.68 650.329 1319.9 645.581C1319.07 640.518 1314.24 636.175 1309.26 636.018C1303.63 635.84 1299.4 639.504 1297.99 646.598ZM1371.7 637.48C1370.92 637.205 1370.15 636.926 1369.37 636.657C1364.69 635.047 1360.95 636.537 1357.92 640.186C1354.55 644.252 1354.39 648.698 1357.12 653.036C1359.66 657.056 1364 659.193 1368.21 657.646C1371.52 656.431 1375.01 653.275 1376.49 650.086C1378.58 645.545 1376.52 641.044 1371.7 637.48ZM1306.97 419.979C1307.8 419.995 1308.63 420.026 1309.46 420.024C1314.21 420.01 1317.14 417.339 1319.03 413.308C1321.07 408.975 1319.88 405.094 1316.74 401.876C1313.64 398.7 1309.87 397.534 1305.41 398.997C1300.66 400.555 1298.55 404.089 1298.05 408.678C1297.51 413.637 1300.19 417.125 1306.97 419.979ZM1374.58 530.931C1378.95 524.333 1377.33 517.042 1370.84 514.116C1365.9 511.891 1359.96 513.799 1356.96 518.577C1354.3 522.802 1355.16 529.063 1358.82 532.179C1363.52 536.174 1368.95 535.925 1374.58 530.931ZM1254.64 636.42C1253.16 636.294 1251.67 635.961 1250.21 636.082C1246.41 636.396 1241.61 640.704 1241.02 644.123C1240.07 649.663 1241.96 654.188 1246.68 656.749C1250.94 659.059 1254.93 658.43 1258.52 655.037C1264.77 649.133 1263.6 642.181 1254.64 636.42ZM1246.26 561.537C1251.98 564.027 1254.97 563.352 1259.27 559.329C1263.09 555.769 1263 551.254 1261.28 547.45C1259.43 543.369 1255.48 539.73 1250.53 541.263C1247.09 542.328 1243.01 544.992 1241.58 548.048C1239.4 552.705 1240.77 557.816 1246.26 561.537ZM1368.88 419.86C1369.79 419.473 1370.75 419.155 1371.62 418.688C1376.48 416.094 1378.57 409.528 1376.19 404.499C1373.91 399.693 1367.77 397.271 1362.75 399.199C1357.96 401.04 1354.34 406.641 1355.2 410.888C1356.41 416.887 1360.85 420.029 1368.88 419.86ZM1252.97 398.524C1250.91 398.897 1248.69 398.909 1246.81 399.712C1241.86 401.826 1239.8 406.842 1241.12 412.678C1242.1 416.991 1246.11 419.947 1251.1 420.027C1256.75 420.118 1260.94 417.193 1261.91 412.492C1263.3 405.675 1260.68 401.303 1252.97 398.524ZM1258.37 495.964C1257.66 495.535 1257 494.927 1256.23 494.705C1251.54 493.353 1246.96 493.128 1243.38 497.222C1240.02 501.058 1240.09 505.563 1242.07 509.833C1244.28 514.58 1248.86 516.094 1253.43 514.777C1256.41 513.92 1259.86 511.512 1261.19 508.847C1263.21 504.782 1262.76 500.056 1258.37 495.964ZM1246.67 609.282C1253.53 610.949 1257.72 609.868 1260.53 605.706C1262.79 602.376 1262.63 596.184 1260.27 592.937C1257.3 588.839 1252.79 587.842 1248.71 589.339C1245.73 590.434 1242.43 593.496 1241.39 596.43C1239.73 601.138 1240.97 606.027 1246.67 609.282ZM1241.71 461.33C1242.37 462.28 1242.92 463.326 1243.7 464.165C1246.94 467.672 1250.85 469.005 1255.36 466.987C1259.85 464.982 1262.34 461.561 1262.04 456.411C1261.76 451.633 1259.66 448.263 1255.04 446.574C1248.52 444.192 1238.67 448.882 1241.71 461.33Z" fill="#F8F8F8"/>
<path d="M1508 679C1488.01 679 1468.51 678.903 1449.02 679.08C1445.1 679.116 1443.92 678.011 1443.92 674.026C1444.02 576.721 1444.02 479.415 1443.94 382.109C1443.93 378.36 1444.73 376.902 1448.88 376.91C1510.7 377.042 1572.51 377.033 1634.33 376.925C1638.15 376.919 1639.1 378.182 1639.07 381.819C1638.92 401.146 1638.88 420.476 1639.09 439.801C1639.14 444.025 1637.8 445.1 1633.71 445.083C1599.38 444.935 1565.06 445.085 1530.74 444.897C1526.13 444.871 1524.77 446.153 1524.9 450.753C1525.21 462.408 1525.17 474.081 1524.91 485.739C1524.82 489.881 1526.05 491.113 1530.23 491.089C1559.22 490.922 1588.21 491.094 1617.2 490.904C1621.71 490.875 1623.18 491.997 1623.11 496.695C1622.84 515.186 1622.87 533.684 1623.1 552.176C1623.15 556.643 1622.07 558.148 1617.33 558.111C1588.51 557.888 1559.68 558.084 1530.86 557.911C1526.46 557.884 1524.77 558.815 1524.88 563.633C1525.22 577.621 1525.2 591.626 1524.89 605.616C1524.79 610.213 1526.37 611.106 1530.61 611.088C1566.43 610.934 1602.25 611.095 1638.07 610.89C1642.97 610.861 1644.17 612.334 1644.11 617.066C1643.85 635.891 1643.85 654.723 1644.11 673.547C1644.17 678.036 1642.8 679.109 1638.46 679.093C1595.14 678.939 1551.82 679 1508 679ZM1545.42 511.794C1539.97 509.882 1535.63 511.989 1532.16 515.954C1528.02 520.682 1528.34 526.034 1531.34 531.172C1533.8 535.39 1537.83 537.121 1542.68 536.945C1548.66 536.729 1553.56 532.702 1554.76 527.033C1556 521.131 1552.7 515.42 1545.42 511.794ZM1531.43 649.701C1532.01 650.893 1532.48 652.16 1533.19 653.265C1535.61 656.994 1540.66 658.816 1544.99 657.47C1549.68 656.011 1552.68 653.007 1552.99 647.882C1553.38 641.379 1548.72 636.23 1542.34 636.019C1535.59 635.796 1530.95 641.174 1531.43 649.701ZM1495.52 458.878C1496.06 454.257 1494.8 450.402 1490.67 447.868C1487.04 445.639 1483.2 444.979 1479.44 447.39C1475.36 450.009 1473.33 453.764 1474 458.769C1474.61 463.305 1478.84 467.326 1483.77 467.938C1488.44 468.517 1492.81 465.346 1495.52 458.878ZM1489.14 637.067C1482.79 634.923 1477.03 637.199 1474.65 642.79C1472.44 648 1474.97 654.457 1480.28 657.096C1484.86 659.378 1491.66 657.21 1494.12 652.678C1497.32 646.796 1495.73 641.158 1489.14 637.067ZM1531.75 405.601C1529.87 410.924 1531.48 415.726 1536.09 418.051C1539.18 419.607 1543.93 419.721 1547.23 418.53C1551.42 417.022 1553.8 412.856 1552.91 407.95C1552.05 403.18 1549.47 399.798 1544.4 398.647C1539.68 397.575 1535.99 399.334 1531.75 405.601ZM1484.58 562.976C1485.87 562.732 1487.21 562.65 1488.43 562.216C1493.2 560.511 1495.38 556.654 1495.8 551.978C1496.19 547.548 1492.65 543.178 1488.02 541.583C1483.15 539.906 1479.28 541.553 1476.16 545.386C1470.78 551.984 1474.36 560.208 1484.58 562.976ZM1476.15 511.215C1480.23 515.551 1486.56 516.481 1490.93 513.388C1495.27 510.308 1496.86 504.727 1494.65 500.267C1491.64 494.186 1485.58 491.943 1479.66 494.719C1473.86 497.441 1472.4 503.391 1476.15 511.215ZM1604.07 656.946C1605.09 656.101 1606.09 655.241 1607.12 654.415C1611.24 651.12 1610.96 646.416 1609.35 642.6C1607.7 638.693 1603.98 634.986 1599.18 636.246C1595.68 637.166 1591.45 639.545 1589.92 642.501C1588.52 645.202 1589.29 650.103 1590.91 653.048C1593.39 657.568 1598.02 659.338 1604.07 656.946ZM1482.83 588.979C1476.33 590.427 1473.82 593.576 1473.98 600.092C1474.1 605.255 1477.39 609.291 1482.02 609.981C1489.03 611.025 1495.14 606.778 1495.9 600.323C1496.61 594.321 1490.99 589.103 1482.83 588.979ZM1487.03 419.964C1494.19 417.496 1497.49 411.697 1495 405.984C1492.08 399.3 1485.66 396.691 1479.61 399.733C1475.33 401.888 1473.01 407.096 1474.17 411.949C1475.46 417.384 1479.24 419.909 1487.03 419.964ZM1590.05 403.955C1589.69 405.881 1589.04 407.805 1589.02 409.735C1588.95 416.176 1592.74 419.933 1599.13 420.028C1605.96 420.129 1609.78 416.495 1610.07 409.986C1610.29 404.872 1608.23 401.347 1603.57 399.359C1598.71 397.29 1595.02 398.426 1590.05 403.955ZM1597.08 534.83C1598.41 534.867 1600.12 535.455 1600.99 534.844C1604.11 532.661 1608.16 530.623 1609.57 527.498C1611.42 523.396 1610.1 518.661 1605.99 515.489C1602.48 512.783 1598.63 512.238 1594.81 514.324C1591.14 516.329 1588.82 519.411 1588.93 523.986C1589.07 529.226 1591.27 532.852 1597.08 534.83Z" fill="#F8F8F8"/>
<path d="M1057.22 377.008C1081.91 377.174 1105.32 381.589 1126.7 393.141C1137.11 398.76 1146.29 406.639 1156 413.532C1159.61 416.09 1157.19 418.597 1155.55 420.685C1148.37 429.784 1141 438.738 1133.74 447.774C1129.09 453.557 1124.51 459.393 1120.46 464.494C1108.78 458.761 1098.31 452.561 1087.09 448.392C1073.41 443.309 1059.06 441.804 1044.73 446.922C1038.18 449.26 1033.14 453.213 1032.13 460.333C1031 468.249 1034.37 474.549 1041.71 477.793C1056.25 484.218 1071.03 490.096 1085.64 496.377C1099.95 502.529 1114.73 507.871 1128.28 515.418C1148.83 526.868 1161.6 544.523 1165.16 568.424C1168.12 588.327 1166.21 607.369 1156.83 625.311C1145.44 647.088 1127.31 661.239 1104.71 669.883C1091.97 674.753 1078.73 677.164 1065.03 678.161C1034.33 680.396 1005.23 674.458 977.895 661.077C966.115 655.312 955.736 646.655 944.878 639.087C943.972 638.455 943.468 635.444 944.125 634.64C957.437 618.359 970.942 602.234 984.433 586.099C985.055 585.356 985.913 584.811 986.496 584.315C995.059 589.442 1003.31 594.649 1011.81 599.411C1026.06 607.392 1041.24 612.514 1057.77 611.866C1063.64 611.635 1069.56 610.276 1075.25 608.684C1081.97 606.803 1085.61 601.471 1086.88 594.932C1088.3 587.614 1085.35 581.388 1078.88 578.117C1067.95 572.597 1056.6 567.893 1045.37 562.989C1030.01 556.284 1014.13 550.611 999.316 542.876C977.052 531.249 961.232 513.494 955.714 488.301C949.197 458.547 955.949 432.119 977.469 410.09C994.787 392.361 1016.28 382.815 1040.52 379.013C1045.9 378.169 1051.34 377.67 1057.22 377.008ZM1095.58 647.897C1099.73 644.65 1100.26 639.665 1096.9 635.461C1092.9 630.474 1086.61 629.65 1082.01 633.515C1076.37 638.249 1076.45 645.464 1082.08 648.604C1084.67 649.726 1087.22 651.562 1089.87 651.701C1091.45 651.784 1093.17 649.213 1095.58 647.897ZM1001.56 421.162C1000.44 422.445 998.758 423.554 998.294 425.043C996.68 430.224 1001.12 436.899 1006.51 437.881C1012.1 438.9 1017.88 434.65 1018.84 428.813C1019.71 423.58 1015.11 417.413 1009.73 417.111C1006.6 416.936 1002.68 416.236 1002.04 421.03C1002.04 421.03 1002.33 421.294 1001.56 421.162ZM1129.45 610.837C1130.58 609.78 1132.28 608.926 1132.74 607.629C1134.43 602.894 1132.02 597.543 1127.44 594.997C1123.27 592.677 1117.99 593.901 1114.55 597.983C1111.54 601.551 1111.11 607.192 1114.67 610.653C1116.92 612.837 1120.54 614.102 1123.73 614.623C1125.49 614.909 1129.12 614.577 1128.96 610.961C1128.96 610.961 1128.67 610.706 1129.45 610.837ZM1099.21 431.483C1100.58 432.06 1101.93 432.744 1103.34 433.196C1109.43 435.136 1115.74 433.351 1119.06 428.829C1123.02 423.419 1123.02 416.615 1119.07 411.196C1115.77 406.676 1109.22 404.832 1103.36 406.778C1096.85 408.943 1093.49 413.17 1094.23 420.342C1094.61 424.009 1097.09 427.46 1099.21 431.483ZM1041.21 656.954C1051.15 654.849 1056.28 644.977 1051.47 637.203C1047.93 631.485 1041.39 629.211 1035.13 631.521C1028.8 633.854 1025.84 639.683 1027.11 647.279C1028.06 652.944 1033.04 656.577 1041.21 656.954ZM1003.57 471.335C1001.12 464.671 998.247 462.891 990.188 463.04C983.824 463.157 979.787 466.459 979.071 472.131C978.13 479.596 981.381 485.362 987.472 487.032C997.433 489.761 1004.35 483.441 1003.57 471.335ZM1076.54 543.218C1081.77 539.458 1083.43 534.069 1080.74 529.596C1077.63 524.431 1071.45 522.364 1066.7 524.903C1061.64 527.606 1059.5 533.48 1061.76 538.432C1064.31 544.001 1069.86 546.026 1076.54 543.218ZM1122.83 563.021C1123.03 562.389 1123.23 561.756 1123.43 561.123C1124.83 556.532 1123 553.027 1119.59 550.171C1116.35 547.458 1112.56 547.08 1108.89 548.872C1104.91 550.822 1102.62 554.102 1102.98 558.859C1103.33 563.524 1105.82 566.522 1110.03 568.134C1115.38 570.182 1119.33 567.967 1122.83 563.021ZM1057.28 400.07C1055.83 400.34 1054.32 400.434 1052.95 400.911C1048.53 402.443 1046.29 405.896 1046.13 410.318C1045.98 414.827 1048.44 418.262 1052.5 420.143C1056.4 421.952 1060.44 421.589 1063.56 418.519C1070.21 411.979 1067.02 402.097 1057.28 400.07ZM986.53 619.979C982.887 623.508 981.99 627.726 984.312 632.149C986.344 636.021 989.668 638.464 994.396 637.971C998.913 637.501 1002.12 635.228 1003.51 630.787C1004.98 626.121 1003.47 622.384 999.81 619.332C995.518 615.753 991.304 616.656 986.53 619.979ZM1021.93 520.929C1023.03 521.278 1024.1 521.814 1025.23 521.944C1031.12 522.626 1035.98 519.444 1036.93 514.391C1038.2 507.619 1035.16 502.846 1028.64 501.39C1024.69 500.509 1019.9 502.881 1017.85 506.739C1015.57 511.016 1016.9 516.401 1021.93 520.929Z" fill="#F8F8F8"/>
<path d="M1709.69 660.332C1697.44 653.612 1685.89 646.559 1676.13 636.605C1691.02 618.804 1705.65 601.307 1720.4 583.659C1733.48 593.538 1746.8 601.569 1761.61 606.78C1776.08 611.872 1790.85 613.958 1806.01 609.861C1817.2 606.84 1823.34 597.108 1819.9 586.877C1817.49 579.7 1810.95 576.2 1804.63 573.494C1782.37 563.961 1759.37 556.008 1737.64 545.432C1710.29 532.125 1691.91 511.113 1687.84 479.371C1684.78 455.519 1690.93 434.547 1705.67 416.156C1715.77 403.566 1728.69 394.404 1743.65 387.823C1760.7 380.32 1778.48 376.863 1796.84 377.155C1817.73 377.488 1837.87 382.234 1856.91 391.015C1869.51 396.833 1880.3 405.42 1890.63 414.551C1891.35 415.181 1891.36 417.77 1890.67 418.642C1879.92 432.304 1869 445.836 1858.1 459.388C1856.58 461.283 1855 463.129 1853.91 464.435C1843.72 459.352 1834.24 454.21 1824.43 449.831C1809.88 443.338 1794.7 442.124 1779.27 446.429C1769.17 449.25 1764.17 457.002 1766.16 467.22C1767.23 472.753 1771.31 476.495 1776.38 478.637C1790.43 484.579 1804.67 490.084 1818.7 496.103C1833.91 502.632 1849.95 507.21 1864.06 516.35C1881.27 527.496 1893.37 542.186 1897.66 562.523C1905.03 597.492 1896.68 627.801 1869.54 651.753C1854.54 664.993 1836.48 672.636 1816.81 675.839C1805.9 677.616 1794.73 679.141 1783.74 678.767C1758 677.889 1733.21 672.175 1709.69 660.332ZM1715.76 464.176C1708.72 470.338 1709.97 481.433 1716.12 486.022C1721.96 490.374 1730.63 489.873 1735.29 484.96C1740.01 479.987 1740.24 471.282 1735.79 465.713C1731.46 460.28 1723.45 459.491 1715.76 464.176ZM1853.96 422.099C1855.63 408.578 1843.31 405.837 1835.78 408.981C1830.58 411.157 1828.01 417.227 1829.17 422.716C1830.24 427.792 1834.66 431.744 1839.52 431.959C1848.15 432.341 1851.57 430.195 1853.96 422.099ZM1848.2 570.897C1849.31 570.576 1850.54 570.46 1851.52 569.898C1855.69 567.495 1859.05 564.518 1858.98 559.083C1858.9 553.707 1857.21 549.419 1852 547.046C1847.1 544.813 1843 546.433 1839.1 549.471C1834.83 552.797 1833.87 557.504 1835.48 562.024C1837.31 567.21 1841.16 571.005 1848.2 570.897ZM1753.03 424.687C1746.31 415.023 1744.89 414.878 1736.38 418.474C1731.59 420.501 1729.31 424.34 1730.46 427.976C1731.76 432.081 1735.13 436.809 1738.87 438.593C1746.21 442.088 1754.72 433.822 1753.03 424.687ZM1796.37 540.04C1798.79 541.708 1801.03 544.252 1803.67 544.796C1806.27 545.328 1810.35 544.77 1811.89 543.024C1815.29 539.17 1816.93 534.708 1814.45 528.804C1812.45 524.052 1809.19 522.768 1805.38 522.587C1800.96 522.378 1796.9 524.36 1794.78 528.697C1792.95 532.439 1791.95 536.263 1796.37 540.04ZM1817 650.608C1820.96 654.134 1824.98 653.256 1828.72 650.405C1832.28 647.686 1834.73 639.786 1832.08 636.954C1829.32 634.001 1824.71 630.64 1821.3 631.018C1817.72 631.414 1813.49 635.427 1811.58 638.961C1809.17 643.431 1812.72 647.275 1817 650.608ZM1717.84 622.819C1717.57 625.082 1716.89 627.388 1717.11 629.601C1717.55 633.842 1720.46 636.322 1724.34 637.544C1728.53 638.869 1732.2 637.776 1735.08 634.399C1737.6 631.446 1738.61 628.262 1737.2 624.328C1734.55 616.92 1724.46 613.423 1717.84 622.819ZM1768.47 634.798C1762.52 639.18 1761.31 645.492 1765.44 650.605C1768.76 654.713 1775.81 655.317 1780.19 651.868C1783.74 649.078 1785.08 643.251 1783.09 639.286C1780.64 634.412 1775.22 632.532 1768.47 634.798ZM1853.2 594.176C1852.34 594.67 1851.46 595.123 1850.63 595.663C1846.7 598.233 1845.38 602.1 1846.19 606.431C1847.02 610.878 1850.13 613.625 1854.54 614.631C1858.9 615.629 1862.92 614.052 1864.74 610.339C1866.18 607.423 1866.83 603.124 1865.76 600.197C1863.97 595.314 1859.42 593.256 1853.2 594.176ZM1800.06 414.281C1801.69 408.442 1799.89 403.988 1794.84 401.405C1789.93 398.888 1785.18 400.21 1781.4 405.148C1779.03 408.241 1779.48 414.195 1782.39 417.555C1786.95 422.802 1795.86 422.52 1800.06 414.281ZM1756.15 502.424C1750.42 506.07 1748.65 511.156 1751.3 516.32C1753.8 521.163 1760.36 523.548 1764.99 521.294C1770.1 518.806 1772.46 512.917 1770.37 507.866C1768.13 502.458 1762.72 500.143 1756.15 502.424Z" fill="#F8F8F8"/>
<path d="M1383.11 154.516C1383.23 144.491 1383.42 134.811 1383.46 125.13C1383.51 109.04 1383.47 92.9505 1383.47 76.3278C1386.12 76.1869 1387.87 76.0137 1389.62 76.0128C1422.28 75.9966 1454.96 75.2926 1487.59 76.2405C1510.82 76.9153 1534.05 79.9016 1553.45 94.7885C1567.8 105.798 1577.03 120.087 1580.08 138.256C1582.36 151.811 1582.59 165.24 1580.03 178.748C1577.43 192.412 1572.23 204.894 1562.43 214.89C1556.21 221.241 1549.11 226.734 1541.81 233.135C1559.34 264.564 1577.38 296.919 1595.82 329.999C1593.44 329.999 1591.85 329.999 1590.25 329.999C1568.59 329.999 1546.93 329.879 1525.27 330.102C1521.04 330.146 1518.83 328.946 1516.9 325.053C1504.25 299.652 1491.27 274.418 1478.48 249.088C1476.99 246.141 1475.23 244.639 1471.66 244.906C1466.68 245.277 1461.65 245.224 1456.67 244.927C1452.82 244.697 1451.91 246.192 1451.93 249.823C1452.07 274.483 1451.84 299.146 1452.13 323.804C1452.19 328.987 1450.69 330.196 1445.7 330.117C1427.21 329.821 1408.71 329.999 1390.22 329.999C1388.42 329.999 1386.61 329.999 1384.06 329.999C1383.74 318.847 1383.24 308.17 1383.15 297.49C1383.05 284.251 1383.33 271.009 1383.35 257.768C1383.37 243.203 1383.22 228.637 1383.24 214.072C1383.28 194.982 1383.42 175.893 1383.49 156.803C1383.49 156.156 1383.24 155.508 1383.11 154.516ZM1472.87 98.5069C1469.6 93.9511 1466.23 93.7486 1462.49 98.0899C1462.07 98.4176 1461.65 98.7453 1460.47 99.1372C1459.72 101.771 1458.04 104.565 1458.46 107.001C1459.11 110.802 1462.39 113.128 1466.28 113.471C1469.01 113.711 1472.52 114.195 1472.82 109.822C1472.82 109.822 1472.67 109.717 1473.47 109.824C1477.52 108.451 1475.9 105.006 1475.81 102.431C1475.78 101.32 1473.82 100.271 1472.84 99.1649C1472.84 99.1649 1472.8 99.2624 1472.87 98.5069ZM1421.86 109.855C1421.86 109.855 1421.76 109.829 1422.51 109.892C1426.39 106.797 1426.82 103.054 1423.8 98.7483C1421.21 95.0463 1416.14 94.1441 1411.81 96.6116C1408 98.7786 1405.92 103.942 1407.75 107.156C1408.22 107.972 1409.51 108.32 1410.8 109.003C1411.02 109.206 1411.11 109.454 1411.07 110.505C1414.79 115.167 1419.76 114.821 1421.86 109.855ZM1410.35 219.091C1407.01 220.657 1406.53 223.474 1407.43 226.566C1408.57 230.461 1411.13 233.992 1415.23 233.69C1418.37 233.458 1422.29 231.501 1424.16 229.024C1427.36 224.781 1425.96 220.996 1421.89 218.345C1418.44 214.595 1413.17 214.954 1410.35 219.091ZM1535.52 173.168C1534.73 173.703 1533.68 174.066 1533.2 174.802C1530.65 178.766 1531.88 183.723 1535.98 186.586C1539.88 189.307 1545.91 188.407 1548.54 184.711C1551.2 180.961 1550.46 174.663 1547.05 172.039C1542.59 168.61 1537.85 169.156 1536.08 173.066C1536.08 173.066 1536.28 173.252 1535.52 173.168ZM1422.04 139.886C1421.66 139.448 1421.28 139.011 1420.87 137.797C1418.96 134.272 1416.09 135.269 1413.17 136.07C1408.89 137.247 1407.25 140.886 1407.41 144.387C1407.53 147.057 1409.49 150.411 1411.69 152.055C1415.83 155.163 1418.84 154.246 1421.08 150.088C1421.53 149.69 1421.98 149.292 1423.21 148.87C1426.92 145.09 1426.67 142.275 1422.04 139.886ZM1482.18 130.009C1473.53 130.006 1464.88 130.119 1456.24 129.942C1452.97 129.875 1451.92 130.986 1451.94 134.24C1452.06 152.036 1452.06 169.834 1451.95 187.63C1451.93 190.735 1452.68 192.211 1456.11 192.046C1466.04 191.567 1476.01 191.674 1485.91 190.843C1493.22 190.228 1500.1 187.671 1505.81 182.69C1513.83 175.696 1515.29 166.501 1515.07 156.497C1514.79 144.231 1509.81 136.825 1498.11 133.226C1493.25 131.73 1488.12 131.081 1482.18 130.009ZM1470.97 226.607C1475.59 223.148 1477.3 218.036 1475.63 212.537C1474.03 207.287 1470.05 204.87 1464.98 204.101C1460.01 203.348 1455.23 206.146 1452.76 210.911C1450.4 215.461 1451.42 221.731 1455.16 225.568C1458.98 229.487 1463.63 229.948 1470.97 226.607ZM1408.6 174.997C1407.91 175.722 1407.12 176.374 1406.56 177.185C1403.41 181.74 1402.97 186.458 1406.16 191.159C1408.99 195.347 1413.06 197.669 1418.1 196.833C1423.17 195.989 1426.69 193.007 1428.27 187.73C1429.85 182.468 1427.8 178.544 1424.25 175.266C1419.59 170.959 1414.4 170.989 1408.6 174.997ZM1521.11 246.229C1518.6 246.942 1515.95 247.359 1513.61 248.436C1509.9 250.14 1506.79 256.104 1507.39 259.564C1508.33 265.061 1513.45 270.097 1518.69 270.695C1523.33 271.226 1528.38 268.171 1530.5 263.951C1533.33 258.317 1531.91 249.919 1521.11 246.229ZM1518.77 214.883C1518.5 214.095 1518.26 213.299 1517.97 212.519C1516.04 207.219 1511.47 204.006 1506.21 204.227C1501.13 204.442 1496.24 208.688 1494.77 214.486C1493.55 219.331 1496.27 222.941 1499.63 225.601C1504.8 229.707 1509.34 229.802 1513.88 225.386C1516.36 222.973 1517.27 218.952 1518.77 214.883ZM1509.26 116.544C1516.86 117.359 1522.77 112.952 1523.85 105.673C1524.63 100.35 1520.4 94.0409 1515.43 93.1202C1507.11 91.5793 1501.19 95.0229 1499.38 102.463C1498.14 107.519 1501.56 112.638 1509.26 116.544ZM1425.86 311.169C1426.24 310.251 1426.67 309.353 1426.98 308.414C1429.34 301.291 1426.71 296.38 1419.27 293.967C1413.72 292.168 1407.67 295.544 1405.74 301.514C1404.04 306.753 1406 311.984 1410.7 314.777C1415.12 317.4 1421.23 316.176 1425.86 311.169ZM1427.6 264.448C1427.16 262.865 1426.91 261.197 1426.24 259.717C1424.44 255.716 1419.12 252.733 1415.36 253.424C1409.59 254.483 1405.24 259.484 1405.08 265.252C1404.95 269.516 1408.63 274.207 1413.08 275.473C1420.19 277.495 1425.46 273.692 1427.6 264.448ZM1540.52 136.19C1541.96 136.584 1543.37 137.124 1544.83 137.347C1550.17 138.163 1554.86 135.038 1556.57 129.629C1558.11 124.755 1555.73 119.253 1551.15 117.117C1545.84 114.637 1539.39 115.925 1536.73 119.999C1533.45 125.02 1534.74 131.583 1540.52 136.19ZM1533.04 300.705C1533.24 302.169 1533.24 303.691 1533.66 305.085C1534.97 309.4 1538.21 311.417 1542.49 311.939C1546.81 312.465 1550.28 311.09 1552.77 307.361C1555.34 303.516 1555.55 299.686 1553.12 295.732C1550.82 292.006 1547.41 290.257 1543.12 290.565C1537.37 290.978 1534.23 294.419 1533.04 300.705Z" fill="#F8F8F8"/>
<path d="M150.992 330.999C119.502 330.999 88.5106 330.913 57.5207 331.096C53.1474 331.122 51.8962 329.98 51.9035 325.53C52.0371 244.22 52.0313 162.91 51.9153 81.6003C51.9093 77.3583 52.8137 75.8638 57.3908 75.8936C88.8803 76.0983 120.395 75.2639 151.854 76.2632C172.456 76.9176 193.329 78.3879 212.05 89.0064C229.815 99.0828 239.172 114.199 240.023 134.657C240.739 151.878 236.667 167.743 225.719 181.144C221.124 186.77 214.833 191.011 210.177 195.119C217.054 199.41 225.206 203.774 232.539 209.238C244.366 218.051 250.472 230.523 251.733 245.035C252.918 258.684 252.47 272.426 246.366 285.053C237.809 302.753 223.686 314.695 205.574 321.947C193.489 326.786 180.829 329.189 167.858 330.008C162.403 330.352 156.946 330.669 150.992 330.999ZM88.883 218.117C88.883 218.117 88.8461 218.225 88.8865 217.474C85.1455 212.815 80.1773 213.208 77.8442 218.856C77.2134 219.574 76.5826 220.292 75.3312 221.326C73.4151 225.961 75.6233 230.527 80.8398 232.332C83.7742 233.348 86.7017 233.741 88.1467 229.273C88.684 228.823 89.2214 228.374 90.5167 227.903C94.3588 223.849 93.6818 220.06 88.883 218.117ZM125.331 297.029C120.214 298.053 120.87 302.116 121.081 305.636C121.254 308.534 122.141 311.352 126.197 311.637C130.918 314.233 135.068 313.152 137.895 308.59C140.324 304.671 139.383 299.408 135.324 296.728C132.375 294.781 128.988 292.851 125.331 297.029ZM89.5563 148.94C90.545 148.459 91.8936 148.237 92.4602 147.452C94.9318 144.025 93.6269 137.261 90.3154 135.391C85.452 132.645 75.801 133.953 74.4064 137.854C71.2299 146.739 74.3973 152.147 82.8266 153.816C86.3679 154.517 89.1818 153.257 88.9058 148.915C88.9058 148.915 88.7754 148.824 89.5563 148.94ZM77.9269 188.109C78.3213 188.605 78.7157 189.102 79.1224 190.358C83.153 193.843 85.4838 193.642 88.1093 189.15C88.6066 188.73 89.104 188.311 90.3599 187.877C94.0485 183.656 92.8246 177.516 87.6468 175.455C84.5564 174.226 80.9254 172.313 78.8915 177.853C78.3957 178.272 77.8998 178.691 76.6434 179.122C73.1204 183.079 73.377 185.727 77.9269 188.109ZM160.509 277.077C183.872 274.164 190.055 254.429 181.932 237.337C180.524 234.376 177.182 231.537 174.075 230.312C157.446 223.752 139.876 225.065 122.503 225.166C121.668 225.171 120.131 226.997 120.121 227.986C119.97 243.97 119.961 259.956 120.139 275.94C120.15 276.965 121.983 278.876 122.922 278.847C135.171 278.473 147.41 277.822 160.509 277.077ZM168.337 135.166C164.432 133.427 160.649 130.606 156.601 130.155C145.441 128.912 134.174 128.561 122.938 128.197C122.002 128.167 120.153 130.682 120.13 132.038C119.915 145.012 120.066 157.992 119.953 170.968C119.927 173.95 120.859 175.113 123.948 175.052C131.931 174.892 139.939 175.361 147.902 174.926C172.232 173.598 179.923 151.518 168.337 135.166ZM186.212 169.067C186.575 170.174 186.875 171.307 187.312 172.384C189.438 177.615 194.668 180.572 200.63 179.955C206.167 179.382 210.427 175.284 211.713 169.293C212.717 164.614 209.756 159.001 204.97 156.514C196.156 151.932 187.38 157.402 186.212 169.067ZM94.9353 298.916C94.5547 298.178 94.254 297.384 93.7803 296.712C90.983 292.742 85.4053 290.589 81.2266 291.819C74.6171 293.764 71.5835 297.143 71.0592 303.143C70.6198 308.172 73.5306 312.725 78.2015 315.119C83.3281 317.747 87.9633 316.745 91.9535 313.25C96.0623 309.652 97.0024 304.868 94.9353 298.916ZM177.837 192.541C176.657 191.93 175.521 191.211 174.291 190.728C168.786 188.566 163.205 190.216 159.694 194.969C156.003 199.967 156.242 205.361 160.384 210.547C163.289 214.184 169.686 215.611 174.432 213.682C182.837 210.265 184.535 201.493 177.837 192.541ZM211.584 216.024C204.453 216.861 199.179 222.117 199.375 228.192C199.574 234.364 205.831 240.859 211.541 240.82C218.034 240.776 223.68 235.321 223.972 228.809C224.308 221.314 220.364 216.953 211.584 216.024ZM173.91 314.932C180.519 317.15 186.188 315.521 189.184 310.542C192.752 304.614 191.182 297.502 185.549 294.078C179.644 290.49 172.054 291.952 168.902 297.285C164.934 303.999 166.543 310.461 173.91 314.932ZM184.039 110.356C187.544 104.026 186.76 97.4739 182.051 93.7289C177.648 90.228 170.317 90.4157 166.418 94.1292C161.255 99.0484 160.864 106.146 165.494 110.95C171.522 117.205 176.977 117.193 184.039 110.356ZM127.544 190.755C119.961 189.042 114.597 192.327 112.571 199.925C111.026 205.716 115.254 212.037 122.07 214.129C127.007 215.644 133.766 211.88 135.593 206.599C137.895 199.943 135.021 193.789 127.544 190.755ZM79.6897 91.9779C72.6459 94.9304 70.0221 100.592 72.4307 107.641C74.0686 112.434 81.3215 116.657 85.4503 115.221C93.698 112.352 97.0196 106.364 94.6579 98.6228C93.0723 93.4253 86.6807 90.3375 79.6897 91.9779ZM132.105 92.0366C128.94 92.6898 125.331 92.5977 122.708 94.1605C118.104 96.9038 116.856 102.996 118.951 107.814C121.055 112.654 126.435 115.705 131.417 114.884C136.62 114.027 140.687 109.767 140.964 104.88C141.403 97.1588 139.563 94.2181 132.105 92.0366ZM77.293 273.528C80.0114 274 82.749 274.954 85.4443 274.847C91.5015 274.605 95.7894 268.806 94.8874 262.675C93.9213 256.108 87.2563 250.985 81.4893 252.378C71.2405 254.853 68.9376 264.745 77.293 273.528ZM227.229 270.601C224.464 265.26 221.149 263.538 214.697 264.047C209.837 264.43 207.602 267.497 206.18 271.795C204.654 276.406 206.269 279.918 209.53 282.865C212.944 285.95 219.002 286.498 222.911 283.908C227.389 280.942 228.757 276.541 227.229 270.601ZM198.961 123.766C198.656 125.048 198.15 126.32 198.081 127.614C197.833 132.305 200.632 136.49 204.914 138.084C210.337 140.103 214.585 138.899 218.094 134.268C221.017 130.41 221.38 126.307 218.515 122.338C213.628 115.566 203.692 114.796 198.961 123.766Z" fill="#F8F8F8"/>
<path d="M449.362 96.6452C462.973 107.032 470.49 120.89 473.702 136.945C476.779 152.325 476.778 167.906 472.934 183.24C468.272 201.836 458.17 216.767 442.129 227.508C439.935 228.977 437.781 230.505 435.156 232.319C453.108 264.528 471.009 296.644 489.371 329.587C487.107 329.762 485.575 329.982 484.042 329.983C462.044 330.006 440.046 329.935 418.05 330.068C414.813 330.088 413.031 329.211 411.498 326.182C398.451 300.408 385.154 274.759 372.077 249C370.592 246.076 368.909 244.753 365.563 244.931C360.578 245.196 355.549 245.268 350.574 244.918C346.256 244.614 344.85 245.888 344.892 250.422C345.118 274.917 344.877 299.416 345.105 323.911C345.149 328.616 344.029 330.187 339.094 330.114C320.101 329.83 301.1 329.915 282.103 330.07C278.336 330.1 276.906 329.246 276.912 325.11C277.032 243.786 277.033 162.462 276.911 81.1382C276.905 76.833 278.348 75.9045 282.354 75.9215C315.516 76.0619 348.697 75.3608 381.836 76.2363C402.36 76.7785 422.887 79.4114 441.057 90.5773C443.867 92.3042 446.4 94.4806 449.362 96.6452ZM410.858 109.857C410.858 109.857 410.761 109.831 411.512 109.894C415.25 106.911 415.721 103.653 413.053 99.2231C410.748 95.3961 405.6 94.1312 401.317 96.3394C397.237 98.4423 395.175 102.869 396.805 106.557C397.234 107.528 398.519 108.12 399.803 109.005C400.018 109.208 400.11 109.456 400.068 110.507C403.806 115.157 408.753 114.814 410.858 109.857ZM408.198 253.199C408.198 253.199 408.334 253.279 407.575 253.165C406.996 253.436 406.149 253.548 405.882 254.002C403.97 257.249 403.592 261.028 406.107 263.644C408.163 265.783 411.707 267.831 414.413 267.621C417.06 267.415 420.26 264.787 421.79 262.333C423.434 259.696 424.879 255.599 419.194 254.019C418.965 253.834 418.868 253.595 418.913 252.491C417.448 248.511 414.021 250.06 411.407 250.189C410.315 250.243 409.318 252.228 408.198 253.199ZM316.574 229.96C320.621 229.473 321.173 226.504 320.787 223.393C320.126 218.064 314.176 213.512 309.051 214.075C303.96 214.634 299.745 220.18 300.044 225.924C300.344 231.664 304.397 234.922 310.819 235.013C314.598 235.066 316.581 233.893 315.921 229.948C315.921 229.948 315.797 229.866 316.574 229.96ZM316.581 189.955C319.633 190.236 320.63 188.414 320.934 185.786C321.625 179.819 317.485 174.629 311.537 174.059C304.625 173.397 300.23 177.39 300.041 184.506C299.865 191.13 303.648 194.849 310.376 195.002C314.141 195.087 316.699 194.334 315.918 189.916C315.918 189.916 315.771 189.824 316.581 189.955ZM405.902 174.235C409.433 167.622 409.652 160.406 408.864 153.304C407.794 143.663 402.847 136.8 393.175 133.502C378.261 128.415 362.907 130.376 347.693 130.211C346.81 130.202 345.131 132.864 345.117 134.295C344.939 152.122 345.066 169.951 344.942 187.778C344.919 191.067 346.022 192.19 349.268 192.043C359.384 191.583 369.57 191.892 379.613 190.82C390.502 189.659 400.271 185.682 405.902 174.235ZM424.315 173.145C421.444 179.584 423.611 187.107 429.183 190.043C434.966 193.09 442.254 191.047 445.727 185.405C448.999 180.092 447.11 172.44 441.633 168.816C435.808 164.963 429.361 166.367 424.315 173.145ZM351.309 226.549C353.71 227.022 356.101 227.834 358.513 227.901C364.164 228.058 367.747 225.236 369.548 219.711C370.969 215.349 368.721 209.17 364.736 206.486C361.257 204.143 353.844 204.437 350.552 207.049C343.627 212.543 343.676 219.174 351.309 226.549ZM305.238 275.536C306.525 275.857 307.796 276.336 309.102 276.469C313.767 276.944 317.479 275.284 320.108 271.312C323.031 266.898 323.099 262.001 319.838 258.338C317.333 255.525 313.244 253.172 309.556 252.614C305.367 251.98 299.863 257.424 299.052 261.14C297.638 267.621 299.124 271.431 305.238 275.536ZM363.043 93.0687C354.319 93.0082 350.947 95.4813 349.549 102.965C348.478 108.696 351.552 113.393 357.625 115.308C363.226 117.074 368.655 114.892 370.995 109.934C374.736 102.004 372.559 96.8946 363.043 93.0687ZM304.967 134.077C303.953 134.93 302.881 135.724 301.934 136.646C298.028 140.449 298.444 145.031 299.916 149.619C301.316 153.982 304.831 155.723 309.127 155.928C314.149 156.168 318.158 154.467 320.64 149.719C323.036 145.136 322.324 140.783 319.274 137.143C315.764 132.955 310.932 132.013 304.967 134.077ZM436.516 137.255C437.478 137.483 438.435 137.873 439.405 137.912C444.281 138.106 448.532 135.038 450.357 130.115C451.923 125.887 450.509 120.206 446.654 117.575C442.761 114.919 438.524 114.021 434.113 116.971C427.015 121.718 424.907 130.874 436.516 137.255ZM447.823 296.028C446.883 294.877 446.074 293.582 444.981 292.604C441.695 289.663 435.934 289.226 432.384 291.505C427.508 294.637 425.427 299.101 426.767 303.559C428.761 310.197 434.584 314.009 440.218 312.365C447.546 310.226 450.301 304.736 447.823 296.028ZM300.446 99.1923C297.696 105.793 299.724 111.794 305.674 114.665C310.449 116.969 317.118 114.83 319.882 110.107C322.995 104.79 321.227 97.9511 315.886 94.6466C310.779 91.4871 304.846 93.0057 300.446 99.1923ZM319.84 299.735C316.619 294.321 311.175 292.574 305.339 295.083C301.18 296.87 298.393 302.71 299.591 307.128C301.274 313.334 307.36 317.247 312.698 315.555C319.832 313.294 322.713 307.444 319.84 299.735ZM406.211 224.82C407.051 223.809 407.979 222.858 408.714 221.776C411.997 216.948 411.344 211.074 407.232 207.907C403.145 204.761 396.733 205.788 392.323 210.297C389.133 213.558 389.027 219.22 392.823 222.968C396.316 226.417 400.749 227.673 406.211 224.82Z" fill="#F8F8F8"/>
<path d="M603.015 276.999C590.652 276.999 590.555 276.975 587.712 288.522C584.273 302.488 581.021 316.499 577.637 330.703C554.442 330.703 531.537 330.703 507.6 330.703C533.622 245.609 559.481 161.051 585.403 76.2878C587.089 76.183 588.553 76.0139 590.017 76.0129C614.338 75.9965 638.66 76.0718 662.981 75.9203C666.382 75.8991 667.972 76.8407 668.951 80.1851C674.261 98.3094 679.813 116.363 685.262 134.446C695.591 168.728 705.865 203.026 716.242 237.292C723.353 260.775 730.619 284.212 737.774 307.681C740.028 315.073 742.145 322.506 744.508 330.542C742.21 330.746 740.788 330.981 739.365 330.982C718.875 331.006 698.385 330.924 677.896 331.069C674.276 331.095 672.609 330.093 671.815 326.346C668.696 311.617 665.157 296.978 661.93 282.271C661.123 278.592 659.953 276.764 655.483 276.855C638.165 277.209 620.836 276.999 603.015 276.999ZM563.8 256.31C563.8 256.31 563.745 256.448 563.659 255.726C560.806 252.66 558.836 254.415 556.351 257.223C552.688 262.174 552.9 265.853 557.094 270.522C561.339 274.448 567.52 273.022 569.648 267.422C570.834 264.299 572.442 260.709 567.074 258.981C566.9 258.791 566.842 258.571 566.881 257.54C565.805 257.134 564.728 256.727 563.8 256.31ZM638.472 244.111C633.836 247.83 634.187 252.72 639.656 254.971C639.953 255.072 640.107 255.279 640.125 256.367C642.38 257.07 644.766 258.622 646.862 258.299C651.043 257.654 653.835 254.235 653.667 250.268C653.546 247.406 651.702 243.786 649.441 242.025C645.12 238.66 640.924 239.988 639.127 244.127C639.127 244.127 639.223 244.152 638.472 244.111ZM666.489 148.873C670.972 145.31 670.586 140.09 665.315 138.074C665.041 137.987 664.895 137.8 664.865 136.725C663.936 135.893 663.094 134.485 662.062 134.329C657.92 133.702 654.714 135.324 652.46 138.985C649.931 143.093 650.935 146.928 653.878 149.934C656.682 152.799 660.537 153.705 664.364 151.562C665.129 151.133 665.332 149.701 665.837 148.838C665.837 148.838 665.731 148.794 666.489 148.873ZM566.097 229.617C568.669 234.027 572.396 233.069 575.94 231.433C579.788 229.656 581.565 226.304 580.899 222.115C580.198 217.71 577.081 215.004 572.946 214.352C570.281 213.931 566.759 213.921 565.295 218.107C561.582 221.643 561.979 226.884 566.097 229.617ZM664.556 188.556C669.258 193.326 671.977 193.186 677.521 187.906C680.781 184.37 680.367 179.41 676.563 176.415C672.647 173.333 668.677 173.627 665.925 177.737C665.348 178.178 664.771 178.619 663.462 179.116C660.519 182.318 660.07 185.336 664.556 188.556ZM630.056 147.341C628.585 141.036 627.114 134.731 625.609 128.277C624.736 128.692 624.5 128.734 624.479 128.825C617.456 159.268 610.488 189.724 603.388 220.15C602.532 223.819 604.361 224.026 607.059 224.017C619.544 223.977 632.029 224.013 644.514 223.969C645.576 223.966 646.636 223.577 647.815 223.344C641.883 198.038 636.038 173.105 630.056 147.341ZM692.028 295.566C691.435 296.559 690.762 297.513 690.265 298.551C687.863 303.562 688.965 309.8 692.799 313.162C697.491 317.278 703.466 317.649 708.685 314.15C713.154 311.154 714.92 305.654 713.173 300.177C710.449 291.641 701.141 289.314 692.028 295.566ZM561.607 309.966C565.231 303.23 563.557 297.039 557.034 293.059C551.704 289.806 544.736 291.353 541.298 296.552C537.289 302.616 538.489 309.777 544.174 313.706C550.015 317.743 556.629 316.536 561.607 309.966ZM690.669 275.909C692.446 275.548 694.337 275.462 695.979 274.778C701.486 272.482 704.539 265.298 702.837 260.526C700.468 253.886 692.308 249.534 686.556 252.902C682.405 255.333 678.851 259.982 679.109 264.367C679.436 269.943 683.167 273.893 690.669 275.909ZM592.537 178.225C589.599 171.011 582.233 171.068 576.912 172.729C572.148 174.217 569.179 180.917 570.496 185.879C572.317 192.737 578.686 196.526 585.296 194.685C592.166 192.771 595.13 186.575 592.537 178.225ZM686.706 213.461C679.319 210.257 672.559 212.564 670.133 219.115C667.63 225.876 670.408 233.275 676.633 234.529C684.45 236.103 690.227 235.305 692.507 225.588C693.642 220.75 690.83 217.031 686.706 213.461ZM581.748 147.366C584.338 152.46 589.016 155.481 593.398 154.889C598.227 154.237 603.157 149.267 603.904 144.298C604.523 140.178 601.783 135.146 597.335 133.004C593.141 130.985 588.796 131.48 585.09 134.107C580.76 137.177 580.474 141.811 581.748 147.366ZM591.114 102.615C591.514 104.211 591.788 105.852 592.338 107.393C594.069 112.245 598.067 114.493 602.732 114.451C607.138 114.411 611.06 112.329 612.888 107.75C614.704 103.204 614.314 98.9947 610.802 95.36C603.963 88.283 594.802 91.3339 591.114 102.615ZM651.224 92.0836C649.303 92.5126 647.295 92.7177 645.477 93.4145C640.816 95.2 638.581 99.2468 639.051 104.555C639.473 109.305 643.247 113.252 648.279 114.203C652.506 115.002 657.868 112.295 659.765 108.404C663.229 101.296 660.721 96.0642 651.224 92.0836ZM613.918 241.536C612.958 240.895 612.081 240.003 611.025 239.657C606.188 238.072 601.757 239.096 598.13 242.569C595.069 245.499 594.772 250.978 597.061 254.986C599.543 259.333 603.481 260.55 608.126 259.891C616.47 258.706 619.159 251.026 613.918 241.536Z" fill="#F8F8F8"/>
<path d="M1877 200C1877 208.331 1876.81 216.168 1877.08 223.989C1877.22 227.929 1875.99 229.111 1872.02 229.083C1848.03 228.914 1824.03 229.126 1800.04 228.891C1795.29 228.844 1793.73 230.054 1793.89 234.948C1794.25 245.932 1794.23 256.944 1793.89 267.93C1793.75 272.667 1795.01 274.15 1799.92 274.113C1829.74 273.889 1859.57 274.079 1889.39 273.913C1893.62 273.889 1895.2 274.78 1895.11 279.381C1894.82 294.87 1894.91 310.369 1895.07 325.862C1895.11 329.574 1894.33 331.102 1890.15 331.091C1837 330.95 1783.85 330.963 1730.7 331.074C1726.91 331.082 1725.93 329.882 1725.93 326.211C1726.02 244.405 1726.02 162.599 1725.93 80.7936C1725.93 77.1277 1726.9 75.9178 1730.7 75.926C1782.51 76.0379 1834.33 76.0505 1886.14 75.9086C1890.33 75.8972 1891.11 77.4185 1891.07 81.1347C1890.91 96.7944 1890.85 112.459 1891.1 128.117C1891.16 132.272 1889.64 133.084 1885.89 133.067C1857.07 132.943 1828.24 133.101 1799.42 132.893C1794.89 132.861 1793.77 134.257 1793.91 138.569C1794.21 148.056 1794.19 157.565 1793.91 167.053C1793.79 171.104 1795.18 172.102 1799.04 172.078C1823.2 171.925 1847.36 172.114 1871.52 171.899C1875.95 171.859 1877.31 173.1 1877.1 177.513C1876.74 184.826 1877 192.169 1877 200ZM1851.93 97.7314C1851.6 98.1564 1851.27 98.5813 1850.24 99.119C1846.67 101.599 1847.72 105.181 1849.58 107.386C1851.62 109.801 1855.25 112.593 1857.88 112.322C1860.78 112.024 1864.11 108.919 1865.88 106.154C1868.24 102.436 1865.7 96.9367 1861.68 94.8908C1857.81 92.9159 1854.22 93.7778 1851.93 97.7314ZM1767.28 187.872C1770.86 184.101 1770.65 181.406 1766.15 178.892C1765.73 178.396 1765.31 177.9 1764.88 176.645C1760.66 172.961 1754.54 174.171 1752.46 179.327C1751.22 182.422 1749.37 186.008 1754.81 188.092C1755.24 188.594 1755.68 189.096 1756.12 190.358C1760.15 193.844 1762.49 193.641 1765.06 189.141C1765.54 188.724 1766.03 188.306 1767.28 187.872ZM1865.94 294.492C1863.54 293.472 1861.19 291.824 1858.71 291.566C1853.85 291.064 1849.57 292.635 1846.92 297.227C1844.06 302.187 1844.21 307.858 1847.85 312.131C1851.06 315.887 1855.12 317.464 1860.29 316.427C1868.81 314.719 1873.85 303.032 1865.94 294.492ZM1759.7 316.715C1761.9 316.086 1764.22 315.721 1766.28 314.777C1772.21 312.061 1774.34 305.907 1771.9 299.218C1769.99 293.957 1763.42 290.512 1757.9 291.87C1751.64 293.407 1748.08 297.716 1748.02 303.816C1747.96 310.512 1751.52 314.62 1759.7 316.715ZM1813.75 315.548C1820.67 311.482 1822.99 306.067 1820.64 299.49C1818.83 294.456 1812.85 290.855 1807.64 291.669C1800.83 292.733 1795.3 299.213 1796.22 305.06C1797.49 313.147 1804.47 317.611 1813.75 315.548ZM1757.69 114.826C1762.96 116.922 1766.57 113.999 1769.79 110.551C1772.51 107.632 1772.89 100.985 1770.9 97.4476C1768.39 92.9975 1762.97 90.3782 1758.39 91.4019C1752.69 92.6751 1749.37 96.0442 1749.04 100.896C1748.51 108.492 1750.52 111.93 1757.69 114.826ZM1799.46 193.103C1795.57 199.908 1796.84 205.794 1802.6 210.115C1808.38 214.458 1814.64 211.728 1818.33 207.245C1822.42 202.274 1821.73 195.788 1817.03 191.586C1812.44 187.486 1804.77 187.919 1799.46 193.103ZM1797.08 101.813C1797.37 103.6 1797.4 105.476 1797.99 107.158C1800.06 113.091 1806.9 116.536 1812.11 114.444C1819.7 111.397 1822.91 104.878 1819.87 98.2722C1817.21 92.5003 1812.17 91.5328 1806.47 92.0191C1800.88 92.4961 1798.73 96.4127 1797.08 101.813ZM1752.55 231.992C1758.35 236.568 1764.93 236.205 1769.37 231.065C1773.21 226.611 1772.79 220.39 1768.34 215.895C1763.32 210.828 1758.01 210.65 1752.51 215.362C1748.06 219.163 1747.85 226.183 1752.55 231.992ZM1750.8 258.535C1750.51 259.309 1750.19 260.072 1749.94 260.859C1748.49 265.473 1750.43 271.147 1754.23 273.433C1758.37 275.926 1764.88 275.291 1768.16 272.073C1771.73 268.575 1772.66 263.181 1770.42 258.94C1766.05 250.666 1757.53 250.185 1750.8 258.535ZM1762.11 153.906C1763.49 153.364 1765 153.024 1766.23 152.247C1772.51 148.293 1772.9 138.756 1767 135.076C1762.33 132.166 1757.21 132.359 1753.07 135.669C1749.56 138.465 1749.54 142.333 1750.37 146.148C1751.16 149.801 1757 153.702 1762.11 153.906ZM1866.08 205.275C1866.37 203.514 1867.41 201.404 1866.79 200.064C1865.34 196.942 1863.68 192.815 1861 191.674C1858.29 190.514 1852.93 191.235 1851.06 193.271C1846.86 197.825 1846.47 203.45 1850.64 207.477C1854.68 211.382 1861.17 210.61 1866.08 205.275Z" fill="#F8F8F8"/>
<path d="M1333 274.001C1338.5 274.003 1343.5 274.085 1348.49 273.975C1351.06 273.919 1352.04 274.901 1352.03 277.485C1351.96 294.146 1351.96 310.807 1352.02 327.468C1352.03 330.002 1351.15 331.229 1348.54 331.003C1347.71 330.931 1346.87 330.999 1346.04 330.999C1293.73 330.999 1241.41 330.939 1189.1 331.101C1184.41 331.115 1182.88 330.039 1182.89 325.106C1183.04 243.967 1183.04 162.827 1182.9 81.6881C1182.89 76.9908 1184.3 75.8946 1188.8 75.9075C1239.95 76.0547 1291.1 76.059 1342.25 75.9017C1346.84 75.8876 1348.19 77.1242 1348.11 81.741C1347.83 97.0641 1347.87 112.397 1348.09 127.722C1348.15 131.838 1346.99 133.114 1342.79 133.088C1314.13 132.918 1285.47 133.09 1256.82 132.905C1252.34 132.876 1250.7 133.924 1250.89 138.675C1251.27 147.99 1251.26 157.342 1250.89 166.657C1250.7 171.327 1252.48 172.117 1256.65 172.086C1280.31 171.91 1303.97 172.127 1327.62 171.896C1332.45 171.849 1334.29 172.762 1334.14 178.117C1333.74 193.268 1333.82 208.44 1334.11 223.596C1334.2 228.162 1332.68 229.125 1328.41 229.091C1304.42 228.901 1280.43 229.118 1256.44 228.893C1251.93 228.851 1250.79 230.218 1250.9 234.552C1251.19 246.041 1251.16 257.545 1250.91 269.036C1250.82 273.05 1252.13 274.103 1256.03 274.08C1281.52 273.926 1307.01 274.001 1333 274.001ZM1212.89 177.853C1212.4 178.272 1211.9 178.691 1210.64 179.122C1207.12 183.08 1207.38 185.726 1211.93 188.11C1212.32 188.606 1212.72 189.102 1213.12 190.358C1217.15 193.843 1219.48 193.642 1222.12 189.144C1222.63 188.73 1223.15 188.316 1224.42 187.886C1228.17 183.385 1226.69 177.247 1221.18 175.237C1218.15 174.131 1214.71 172.675 1212.89 177.853ZM1223.59 148.949C1225.02 147.718 1227.36 146.708 1227.72 145.219C1229.27 138.794 1225.29 133.744 1218.69 133.076C1212.14 132.413 1207.61 136.629 1206.93 142.857C1206.24 149.245 1213.19 154.6 1218.1 154.002C1221.43 153.597 1223.55 152.608 1222.91 148.915C1222.91 148.915 1222.78 148.824 1223.59 148.949ZM1228.93 298.914C1226.07 296.604 1223.51 293.686 1220.28 292.131C1215.84 289.986 1208.57 293.531 1206.53 298.069C1203.65 304.46 1205.4 311.373 1210.65 314.286C1216.04 317.28 1221.59 317.143 1225.93 313.289C1230.04 309.644 1231 304.883 1228.93 298.914ZM1269.35 315.935C1277.62 312.668 1280.56 305.994 1276.89 298.823C1273.89 292.961 1267.61 290.268 1262.13 292.494C1255.51 295.181 1252.39 300.968 1254.16 307.605C1255.67 313.272 1263.55 317.819 1269.35 315.935ZM1315.34 315.958C1321.87 314.62 1325.46 311.431 1325.95 306.542C1326.65 299.527 1324.42 294.994 1319.29 292.972C1314.23 290.971 1309.76 292.35 1305.92 295.72C1301.81 299.322 1302.26 304.314 1303.64 308.71C1305.16 313.596 1309.49 315.645 1315.34 315.958ZM1227.94 109.018C1228.28 106.925 1228.88 104.837 1228.92 102.738C1229.03 96.7557 1226.61 93.4982 1221.35 92.0745C1215.3 90.4393 1210.54 92.0594 1207.57 96.7672C1204.93 100.967 1205.29 107.593 1208.64 111.036C1214.01 116.551 1220.71 117.849 1227.94 109.018ZM1304.8 96.5094C1304.31 97.5663 1303.65 98.5789 1303.35 99.6872C1301.16 107.754 1308.15 116.85 1315.55 115.62C1320.51 114.796 1325.32 110.349 1325.93 106.016C1326.86 99.4194 1325 94.9346 1320.42 92.773C1314.87 90.1522 1309.35 91.2518 1304.8 96.5094ZM1323.02 208.429C1327.36 202.907 1327.27 195.4 1322.81 191.382C1318.71 187.687 1310.12 187.609 1306.38 191.232C1302.17 195.3 1301.65 203.893 1305.62 207.998C1310.31 212.842 1316.41 214.825 1323.02 208.429ZM1277.92 104.203C1278.35 98.9779 1276.01 94.4928 1271.58 92.8424C1268.09 91.5427 1263.09 91.7529 1259.7 93.3139C1254.13 95.8716 1252.69 103.562 1255.6 108.853C1258.41 113.953 1264.61 115.924 1270.31 114.105C1274.97 112.616 1276.48 108.997 1277.92 104.203ZM1256.95 207.398C1262.23 212.583 1266.1 213.572 1270.94 210.976C1276.05 208.234 1279.46 202.568 1277.52 197.886C1276.13 194.542 1273.29 190.498 1270.2 189.471C1265.74 187.988 1260.13 187.947 1256.73 192.987C1253.69 197.489 1253.29 202.16 1256.95 207.398ZM1219.16 234.955C1225.75 234.736 1230.04 227.554 1228.82 221.29C1227.71 215.619 1220.79 210.999 1215.31 212.16C1210.39 213.204 1205.58 219.771 1206.07 224.764C1206.71 231.248 1211.04 234.849 1219.16 234.955ZM1222.8 273.517C1224.34 271.67 1226.49 270.053 1227.29 267.928C1228.99 263.402 1228.1 259.188 1224.25 255.751C1220.86 252.731 1217.27 252.339 1213.18 253.941C1208.48 255.782 1206.78 259.19 1206.99 264.12C1207.34 272.211 1213.64 276.362 1222.8 273.517Z" fill="#F8F8F8"/>
<path d="M969.03 157.664C968.52 141.151 972.227 126.273 981.58 113.052C991.644 98.825 1005.08 89.0898 1021.38 82.974C1036.06 77.4626 1051.26 75.0193 1066.74 76.1535C1090.45 77.8902 1112.57 84.7643 1131.79 99.4333C1143.1 108.068 1143.18 108.038 1134.51 118.97C1126.29 129.328 1117.99 139.617 1110.01 149.575C1101.29 145.197 1093.22 140.604 1084.73 137.014C1073.15 132.12 1060.91 131.569 1048.65 133.983C1041.04 135.481 1035.14 141.199 1035.24 147.421C1035.34 154.056 1038.98 159.013 1045.24 161.602C1059.95 167.694 1074.63 173.86 1089.47 179.633C1100.93 184.091 1112.52 188.217 1122.43 195.731C1137.63 207.248 1146.07 222.347 1148.19 241.548C1149.96 257.514 1147.21 272.281 1139.83 286.2C1130.91 303.02 1116.72 314.121 1099.34 321.332C1083.15 328.053 1066.14 330.518 1048.75 329.91C1032.1 329.328 1015.96 325.834 1000.38 319.76C985.55 313.981 972.119 306.082 959.955 294.387C963.619 289.79 967.171 285.127 970.94 280.649C978.835 271.271 986.938 262.065 994.745 252.615C996.769 250.165 997.866 249.785 1000.6 251.906C1013.88 262.217 1028.67 269.564 1045.33 272.55C1052.97 273.919 1060.77 274.238 1068.34 271.997C1076.95 269.453 1081.9 264.229 1081.93 257.456C1081.95 249.521 1076.66 245.052 1070.18 242.275C1052.34 234.633 1034.28 227.536 1016.42 219.939C992.349 209.696 976.016 192.61 970.333 166.459C969.738 163.718 969.47 160.907 969.03 157.664ZM997.54 281.155C993.431 283.961 993.003 286.26 996.23 289.176C996.23 289.176 996.105 289.361 996.053 290.201C995.959 294.668 999.888 295.537 1002.48 295.364C1005.33 295.174 1008.88 293.365 1010.52 291.099C1011.85 289.269 1010.86 285.709 1010.69 282.928C1010.68 282.619 1009.32 282.388 1008.19 282.044C1007.95 281.877 1007.85 281.648 1007.9 280.548C1005.74 279.708 1003.62 278.448 1001.4 278.226C1000.45 278.131 999.291 280.207 998.191 281.19C998.191 281.19 998.295 281.232 997.54 281.155ZM1097.21 231.823C1097.21 231.823 1097.28 231.688 1097.11 232.482C1097.13 236.143 1099.86 236.82 1102.55 236.907C1104.53 236.971 1107.57 238.337 1108.16 234.033C1108.67 233.655 1109.17 233.277 1110.45 232.885C1114.2 229.096 1113.92 226.265 1109.14 223.937C1108.72 223.482 1108.3 223.028 1107.83 221.74C1105.16 221.378 1102.42 220.547 1099.84 220.889C1098.83 221.023 1098.16 223.782 1097.19 225.119C1097.19 225.119 1097.38 225.309 1096.59 225.247C1094.52 227.681 1093.2 230.028 1097.21 231.823ZM1086.83 304.808C1086.83 304.808 1086.72 304.758 1087.49 304.908C1088.98 302.831 1091.03 300.919 1091.7 298.605C1092.02 297.506 1089.7 295.64 1088.19 294.023C1087.96 293.839 1087.86 293.602 1087.91 292.505C1084.97 288.996 1081.53 288.917 1079.18 292.196C1079.18 292.196 1079.29 292.241 1078.51 292.094C1077.01 294.101 1074.7 295.924 1074.19 298.159C1073.36 301.773 1074.96 303.496 1078.49 304.04C1078.84 304.153 1079.03 304.39 1079.29 305.278C1079.59 305.499 1079.89 305.721 1080.62 305.962C1080.62 305.962 1081.02 306.108 1081.57 306.63C1083.63 306.865 1086.18 308.408 1086.83 304.808ZM1062.37 108.866C1066.85 104.592 1065.25 98.0734 1059.07 95.9302C1057.3 95.3131 1054.94 93.5571 1053.81 97.2364C1053.81 97.2364 1053.65 97.1017 1052.76 97.05C1049.51 96.956 1048.82 98.9097 1049.23 101.822C1049.23 101.822 1049.07 101.986 1048.35 102.098C1046.53 105.824 1048.05 109.864 1052.1 112.013C1055.93 114.041 1059.05 113.178 1060.93 109.205C1061.08 108.95 1061.3 108.842 1062.37 108.866ZM1049.61 300.555C1049.38 299.693 1049.14 298.831 1048.78 297.84C1048.78 297.84 1048.88 297.687 1048.95 296.828C1048.47 291.471 1044.4 291.942 1040.83 292.047C1037.38 292.149 1034.58 293.342 1035.22 297.845C1035.22 297.845 1035.09 297.982 1034.37 298.093C1032.54 299.989 1032.03 301.717 1035.16 303.323C1035.16 303.323 1035.09 303.681 1035.25 304.213C1035.49 304.474 1035.74 304.735 1036.32 305.662C1039.19 306.378 1042.36 308.171 1044.82 307.463C1046.73 306.912 1047.74 303.247 1049.61 300.555ZM1006.5 110.048C1002.6 114.866 1002.09 119.789 1005.56 125.171C1008.27 129.379 1014.74 131.401 1020.2 129.335C1025.26 127.42 1028.7 121.535 1027.72 116.682C1025.71 106.794 1014.6 102.342 1006.5 110.048ZM1110.97 114.089C1110.97 113.094 1110.97 112.099 1110.98 111.104C1111.03 105.698 1107.91 102.604 1103.27 100.715C1098.98 98.9656 1093.43 100.446 1090.26 104.363C1087.29 108.03 1085.76 111.999 1088.33 116.716C1090.87 121.364 1094.59 124.093 1099.86 123.903C1105.62 123.696 1109.3 120.44 1110.97 114.089ZM1123.76 268.179C1122.95 265.718 1122.84 262.487 1121.18 260.971C1118.41 258.454 1114.71 255.658 1111.28 255.498C1106.63 255.28 1102.71 258.303 1100.99 263.402C1099.51 267.794 1100.1 271.448 1103.32 274.794C1110.38 282.138 1119.93 279.375 1123.76 268.179ZM1061.1 199.461C1060.12 200.982 1058.87 202.394 1058.21 204.043C1056.06 209.374 1058.23 215.542 1063.03 218.275C1066.46 220.234 1074.28 218.921 1076.9 215.945C1080.67 211.657 1080.91 205.843 1077.5 201.25C1074.2 196.802 1068.51 195.974 1061.1 199.461ZM1020.75 193.374C1023.84 199.447 1025.78 200.462 1033.11 199.969C1037.68 199.661 1040.54 197.088 1041.74 192.909C1043.36 187.262 1041.74 182.312 1037.9 180.013C1033.94 177.641 1029.71 176.881 1025.63 179.342C1020.64 182.349 1018.97 186.953 1020.75 193.374ZM998.425 168.226C1005 169.746 1009.54 166.92 1011.39 160.154C1012.64 155.586 1009.4 150.011 1004.57 148.408C999.286 146.658 993.596 149.087 991.629 153.929C989.132 160.078 991.399 165.358 998.425 168.226Z" fill="#F8F8F8"/>
<path d="M882.843 325.915C867.661 329.363 852.851 330.891 837.604 329.248C816.827 327.008 797.216 321.394 779.181 310.935C771.498 306.48 764.532 300.789 756.388 295.059C769.426 279.505 781.88 264.648 793.424 250.876C805.872 257.225 817.05 263.741 828.873 268.729C840.899 273.803 853.732 275.521 866.648 271.603C874.067 269.353 878.795 263.75 878.998 257.65C879.207 251.365 875.117 245.552 867.949 242.524C848.388 234.262 828.469 226.774 809.265 217.759C785.019 206.378 769.83 187.797 766.876 160.142C764.943 142.049 769.245 125.881 779.87 111.485C789.644 98.2411 802.608 88.8714 818.072 83.118C839.297 75.2213 860.886 74.138 883.046 78.9023C902.285 83.0386 919.324 91.2028 934.324 103.852C939.729 108.409 939.726 108.792 935.314 114.258C926.684 124.951 918.235 135.789 909.684 146.545C908.764 147.702 907.664 148.715 906.693 149.745C899.664 145.925 893.019 141.871 886.01 138.6C873.004 132.529 859.193 131.067 845.246 134.09C833.815 136.568 828.773 148.126 835.522 156.388C838.484 160.014 843.429 162.459 847.938 164.305C865.436 171.47 883.246 177.877 900.704 185.133C923.594 194.646 939.991 210.251 944.686 235.651C950.14 265.165 939.063 294.535 913.449 312.124C904.14 318.517 894.086 322.961 882.843 325.915ZM904.82 222.193C904.82 222.193 904.785 222.298 904.789 221.491C901.928 219.686 899.064 217.868 896.839 222.969C896.333 223.347 895.826 223.724 894.553 224.115C890.82 227.846 891.061 230.615 895.787 233.101C896.231 233.598 896.676 234.095 897.162 235.407C899.85 235.713 902.608 236.485 905.192 236.097C906.215 235.943 906.851 233.212 907.801 231.87C907.801 231.87 907.616 231.693 908.41 231.752C910.452 229.318 911.852 226.964 907.786 225.154C907.786 225.154 907.664 225.348 907.855 224.552C906.809 223.779 905.763 223.007 904.82 222.193ZM832.575 296.054C831.758 296.693 830.446 297.185 830.203 297.997C828.686 303.074 831.487 308.3 836.374 309.923C841.359 311.578 846.454 308.877 848.58 303.452C850.221 299.263 847.67 293.37 843.349 291.369C838.171 288.973 835.617 290.046 834.036 295.662C833.935 295.953 833.73 296.108 832.575 296.054ZM912.877 260.555C909.968 260.717 907.058 260.88 903.656 261.299C903.46 261.607 903.264 261.916 903.089 262.844C902.734 263.561 902.379 264.278 901.294 265.124C899.026 268.31 899.399 270.667 903.802 271.959C904.047 272.126 904.148 272.357 904.123 273.429C907.991 277.352 911.658 277.037 913.905 272.226C914.023 271.971 914.221 271.856 915.281 271.866C918.313 269.838 919.546 267.641 915.774 264.822C915.774 264.822 915.903 264.636 915.943 263.735C915.037 262.889 914.13 262.044 912.877 260.555ZM810.095 129.823C813.242 129.098 816.963 129.195 819.416 127.479C824.637 123.825 827.067 119.076 822.312 111.623C819.292 106.891 812.73 105.14 807.6 107.688C802.838 110.054 800.854 113.915 801.072 118.948C801.305 124.334 804.289 127.817 810.095 129.823ZM807.512 152.332C806.972 151.702 806.478 151.024 805.885 150.448C801.817 146.506 797.224 145.997 792.283 148.91C788.384 151.209 786.292 156.121 787.359 160.468C788.737 166.082 792.248 168.88 798.03 168.969C806.797 169.103 810.763 162.662 807.512 152.332ZM835.623 180.863C834.631 180.269 833.696 179.534 832.638 179.104C827.572 177.047 823.991 178.018 819.566 183.138C817.048 186.051 816.234 189.447 818.117 193.284C820.424 197.985 823.803 200.404 829.189 199.988C838.972 199.231 842.071 188.451 835.623 180.863ZM855.414 211.612C855.893 212.479 856.274 213.42 856.868 214.198C859.704 217.914 863.334 219.932 868.094 218.721C872.641 217.564 875.75 214.569 876.711 210.014C877.726 205.207 874.957 201.701 871.359 199.074C868.057 196.664 864.493 196.484 860.68 198.627C855.691 201.432 854.692 205.732 855.414 211.612ZM883.38 308.989C889.033 305.908 891.601 301.911 890.843 297.368C889.78 290.998 884.229 287.06 877.777 288.1C872.709 288.916 868.445 294.833 869.163 299.816C869.953 305.298 876.817 311.028 883.38 308.989ZM853.432 93.1232C851.579 93.7905 849.582 94.2075 847.901 95.1744C843.689 97.5971 841.745 102.464 843.064 106.579C844.778 111.93 848.569 115.138 852.916 114.916C858.313 114.641 862.646 111.138 863.731 106.17C864.979 100.462 861.492 95.744 853.432 93.1232ZM808.18 292.517C808.478 291.924 808.827 291.351 809.066 290.736C811.191 285.274 809.532 281.008 804.05 277.776C800.965 275.958 793.865 277.936 791.494 281.275C788.957 284.847 789.815 290.329 793.473 293.914C797.929 298.282 802.183 298.071 808.18 292.517ZM898.089 102.079C897.257 102.07 896.417 101.977 895.595 102.066C890.735 102.59 885.333 109.032 886.254 113.162C887.637 119.36 892.845 122.444 898.852 121.267C903.858 120.286 906.217 116.428 906.546 112.629C906.962 107.833 903.702 104.025 898.089 102.079Z" fill="#F8F8F8"/>
<path d="M1623.66 329.321C1623.22 327.173 1623.01 325.353 1623.01 323.533C1623 242.581 1623 161.63 1623 80.6784C1623 74.0053 1623.01 74.0021 1629.81 74.0014C1648.46 73.9997 1667.12 74.1188 1685.77 73.9105C1689.95 73.8638 1691.09 75.1337 1691.08 79.2606C1690.97 161.045 1690.98 242.829 1691.07 324.614C1691.08 328.569 1690.26 330.148 1685.9 330.097C1666.58 329.87 1647.26 330.005 1627.93 329.984C1626.61 329.982 1625.3 329.765 1623.66 329.321ZM1665.43 173.028C1658.2 166.911 1648.69 170.992 1646.13 177.118C1643.73 182.841 1645.59 188.658 1650.9 192.292C1656.49 196.119 1661.48 194.528 1666.47 189.847C1670.49 186.088 1670.02 178.627 1665.43 173.028ZM1666.55 269.888C1670.64 263.765 1669.44 256.331 1663.82 252.96C1657.91 249.417 1651.3 250.615 1647.49 255.918C1644.09 260.661 1644.88 267.787 1649.24 271.665C1654.16 276.045 1660.77 275.561 1666.55 269.888ZM1645.75 104.535C1648.86 111.924 1654.34 114.609 1661.52 112.256C1667.2 110.394 1670.45 103.827 1668.7 97.7445C1667.09 92.146 1660.22 88.7376 1653.39 90.1418C1648.1 91.2289 1644.71 97.0783 1645.75 104.535ZM1646.41 226.568C1647.22 227.804 1647.86 229.212 1648.88 230.246C1653.55 234.986 1661.42 234.877 1665.77 230.121C1670.56 224.887 1669.74 218.279 1663.67 213.259C1659.05 209.435 1651.38 210.333 1648.06 215.878C1646.44 218.587 1646.74 222.446 1646.41 226.568ZM1655.17 152.514C1663.03 153.43 1670.15 146.343 1668.25 139.491C1666.49 133.1 1662.97 130.654 1656.1 131.044C1650.93 131.338 1646.81 134.968 1646.09 139.862C1645.27 145.379 1648.46 150.103 1655.17 152.514ZM1662.39 293.98C1656.45 289.838 1649.86 294.131 1647.34 298.748C1644.71 303.566 1647.22 309.696 1652.91 312.892C1657.1 315.248 1663.18 313.43 1665.94 308.998C1669.42 303.401 1668.35 298.124 1662.39 293.98Z" fill="#F8F8F8"/>
</svg>
